<svg xmlns="http://www.w3.org/2000/svg" xmlns:xlink="http://www.w3.org/1999/xlink" viewBox="0 0 1920 894.5"><defs><style>.cls-1{opacity:0.2;fill:url(#linear-gradient);}</style><linearGradient id="linear-gradient" y1="447.25" x2="1920" y2="447.25" gradientUnits="userSpaceOnUse"><stop offset="0" stop-color="#aef2ff" stop-opacity="0"/><stop offset="1" stop-color="#124fe6"/></linearGradient></defs><g id="Layer_2" data-name="Layer 2"><g id="Layer_1-2" data-name="Layer 1"><path class="cls-1" d="M1920,1.91V0q-30.48,12.5-59.69,37.43A260.25,260.25,0,0,0,1830,57.9a268.65,268.65,0,0,0-31.39,19,278.36,278.36,0,0,0-32.44,17.18A288,288,0,0,0,1732.87,109a297.68,297.68,0,0,0-34.54,12.43,312.1,312.1,0,0,0-35.46,9.52q-15.31,1.83-30.15,5c-1.77.38-3.58.87-5.42,1.45q-8.47.21-16.78.79h0A61.69,61.69,0,0,0,1596.3,141q-4-.33-8-.59a62,62,0,0,0-21,2.51l-1.26-.25a62.13,62.13,0,0,0-26.8,1,65.07,65.07,0,0,0-28.07,0,67.73,67.73,0,0,0-28-.71,69.67,69.67,0,0,0-28-1.33,71.3,71.3,0,0,0-27.89-1.84,73.09,73.09,0,0,0-27.5-2.22,74.19,74.19,0,0,0-27.52-2.65,75,75,0,0,0-27.33-3,75.61,75.61,0,0,0-27.15-3.22,76.12,76.12,0,0,0-27-3.46h0a76.58,76.58,0,0,0-26.44-3.66l-.4,0a76.63,76.63,0,0,0-26-3.84c-.22,0-.44,0-.65,0a76.61,76.61,0,0,0-25.69-4l-.9,0a76.41,76.41,0,0,0-25.36-4.12c-40.14.26-84.16,30.74-138.55,95.91-48.5,58.11-99.69,137.12-153.87,220.76-39.81,61.45-82.1,126.73-126.53,188.26C587.56,512.5,428.59,449.47,293.5,427.25,178.66,408.36,80,418.67,0,457.91v2c79.76-39.4,178.37-49.79,293.22-30.89,134.83,22.18,293.54,85.1,472.1,187.12q-5.28,7.3-10.59,14.52C576.07,527.39,417.11,463.64,282,441.17,172.54,423,77.75,431.58,0,466.83v2C77.54,433.45,172.25,424.74,281.73,443,416.55,465.4,575.25,529,753.64,632.17q-5.37,7.27-10.79,14.48C564.5,542.28,405.62,477.82,270.56,455,166.37,437.47,75.47,444.47,0,475.85v2c75.29-31.5,166.1-38.55,270.28-21,134.79,22.74,293.4,87.09,471.46,191.27q-5.46,7.25-11,14.38c-2.16-1.23-4.32-2.47-6.47-3.74-174.73-103.36-330.85-167.46-464-190.53C160.86,451,73.45,456.42,0,484.33v1.94c73.27-28,160.6-33.48,260-16.26,133,23,288.85,87.07,463.38,190.3,2.09,1.24,4.18,2.44,6.28,3.63q-5.49,7.09-11,14.07-8.7-4.66-17.31-9.75C531.7,567.64,379.59,504.91,249.23,481.84,154.83,465.13,71.16,469,0,493.37v1.93c71-24.44,154.57-28.37,248.94-11.66,130.13,23,282,85.68,451.48,186.19q8.49,5,17.08,9.63-5.47,6.9-11,13.68-14.16-7.08-28.12-15.37c-164.5-97.84-312.59-159.19-440.15-182.32C148.77,479.23,68.82,481.63,0,502.54v1.9c68.66-21,148.5-23.41,237.9-7.2,127.35,23.1,275.23,84.36,439.55,182.1q13.81,8.22,27.87,15.24-5.48,6.72-11,13.29a428,428,0,0,1-38.9-20.58c-159.28-95-303.31-155-428.09-178.24C142.71,493.28,66.46,494.23,0,511.83v1.89c66.31-17.65,142.45-18.64,227-2.88,124.56,23.22,268.39,83.11,427.49,178a428.49,428.49,0,0,0,38.62,20.47q-5.49,6.51-11,12.88a412.46,412.46,0,0,1-49.63-25.4c-154-92.09-293.86-150.68-415.85-174.15C136.7,507.27,64.07,506.83,0,521.25v1.88c63.93-14.48,136.46-14.06,216.3,1.31,121.77,23.44,261.48,81.95,415.22,173.92a415.77,415.77,0,0,0,49.32,25.28q-5.48,6.29-11,12.43a398.69,398.69,0,0,1-60.34-29.76C461,617.26,325.34,560,206.15,536.25c-75.37-15-144.46-16.84-206.15-5.42v1.85C61.55,521.24,130.53,523,205.8,538c119,23.74,254.49,80.88,402.76,169.83a401.52,401.52,0,0,0,60,29.65q-5.49,6.08-11,12a385.24,385.24,0,0,1-71-33.68c-142.74-85.88-274.1-141.71-390.42-165.93C125.06,535.1,59.36,532,0,540.55v1.83c59.22-8.57,124.83-5.47,195.79,9.3,116.11,24.19,247.26,79.94,389.81,165.7A385.21,385.21,0,0,0,656.16,751q-5.48,5.84-11,11.47a371,371,0,0,1-81.62-37.1C426.83,642.81,300,588.4,186.66,563.61,119.65,549,57.13,544.55,0,550.41v1.83c57-5.87,119.42-1.48,186.33,13.16,113.14,24.75,239.75,79.09,376.3,161.5a373.76,373.76,0,0,0,81.13,37q-5.49,5.6-11,11-46.56-12.46-92.15-40.08C408,654.59,284.15,601.2,172.45,576.19c-61.27-13.72-119-19-172.45-15.75v1.82c53.35-3.23,111,2,172.17,15.73,111.48,25,235.12,78.28,367.5,158.42,30.06,18.19,60.82,31.61,91.63,40q-5.46,5.32-10.94,10.45-51.93-11.58-102.71-42.46c-125.17-76-243.38-127.77-351.34-153.83C107.74,576.38,52.07,569.74,0,570.63v1.82c51.92-.89,107.45,5.74,165.88,19.84,107.78,26,225.82,77.71,350.83,153.63q50.52,30.68,102,42.42-5.37,5-10.79,9.81Q550.64,788,494.69,753.88C376.93,682.13,264.38,632,160.16,604.89,104.25,590.34,50.65,582.36,0,581v1.82c50.54,1.36,104,9.34,159.83,23.86,104,27.08,216.36,77.12,333.91,148.75q55.66,33.92,112.43,44.29-5.34,4.69-10.64,9.16c-40.34-5.2-81.62-19.7-123.8-45.49C361.38,695.92,254.48,647.43,154,619.27,100.74,604.35,49.21,595.08,0,591.56v1.82c49.05,3.53,100.42,12.78,153.51,27.65,100.31,28.11,207.06,76.53,317.27,143.91,41.86,25.6,82.79,40.14,122.81,45.57q-5.3,4.41-10.56,8.58c-45.35-3.61-90-19-134.27-46.19-102.95-63.18-204.2-110-300.94-139.21C97.2,618.41,47.73,607.91,0,602.29v1.83c47.59,5.62,96.92,16.1,147.4,31.34C244,664.62,345,711.38,447.81,774.45c43.92,26.95,88.17,42.39,133.12,46.31q-5.19,4.05-10.34,7.89c-48.94-1.4-97.05-16.83-144.79-46.23-95.56-58.88-191.17-104.06-284.17-134.29A969,969,0,0,0,0,613.23v1.85a965.81,965.81,0,0,1,141.15,34.81C234,680.08,329.44,725.19,424.85,784c47.27,29.13,94.9,44.62,143.33,46.45q-5,3.71-10,7.16c-52.53,1.26-104.1-14-155.29-45.64-88.18-54.55-178.15-98.07-267.42-129.34A1110.8,1110.8,0,0,0,0,624.38v1.85a1110.89,1110.89,0,0,1,134.89,38.1c89.12,31.23,179,74.68,267,129.15,50.63,31.31,101.6,46.66,153.49,46q-4.85,3.3-9.67,6.38c-56.13,4.37-111.17-10.45-165.82-44.42-80.8-50.22-165.15-92.06-250.68-124.36A1305.35,1305.35,0,0,0,0,635.74v1.88a1304.85,1304.85,0,0,1,128.55,41.16C214,711,298.22,752.83,378.92,803c53.9,33.5,108.16,48.51,163.45,45-3.09,1.94-6.19,3.82-9.27,5.63a240.81,240.81,0,0,1-81.87-3.21c-31.43-6.7-63.16-20-94.31-39.42A1537.54,1537.54,0,0,0,123,691.59C82.63,675.16,41.5,660.36,0,647.33v1.9c41.28,13,82.19,27.71,122.31,44.06A1537.13,1537.13,0,0,1,356,812.5c53.56,33.45,107.4,48.29,162.25,44.41,3.64-.26,7.29-.61,10.94-1q-4.29,2.45-8.55,4.71c-1.18.22-2.35.45-3.53.65a235.45,235.45,0,0,1-89.53-1.55c-31.17-6.6-62.66-19.79-93.58-39.22C218.08,747.67,97.56,695.06,0,659.21v1.91C150.69,716.48,262.36,777.63,333,822c52.73,33.13,105.69,47.83,159.58,44q11.39-.81,22.82-2.72c-2.44,1.25-4.89,2.46-7.33,3.62q-7.69,1.91-15.37,3.29a230.09,230.09,0,0,1-88.8-1.16C373,862.55,341.71,849.41,311,830,208.8,765.35,94.86,711.32,0,671.3v2C146,734.84,247.57,792,310,831.52,362,864.37,414.12,879,467.11,875.23a240.13,240.13,0,0,0,33.3-4.76c-1.59.71-3.17,1.39-4.76,2.07a255.11,255.11,0,0,1-27.29,6.77,224.74,224.74,0,0,1-88.09-.81c-30.69-6.43-61.72-19.55-92.23-39-86.88-55.39-192-109.85-288-155.75v2C95.8,731.56,200.49,785.84,287.06,841c51.22,32.65,102.59,47.18,154.75,43.49a236.41,236.41,0,0,0,38.61-6,253,253,0,0,1-36.37,10,219.43,219.43,0,0,1-87.4-.51c-30.46-6.38-61.27-19.51-91.57-39C191.23,801.47,93,746.28,0,696.38v2.07C92.66,748.2,190.51,803.17,264.09,850.54c50.54,32.54,101.2,47,152.59,43.41q39.24-2.78,79.12-19.66,12.6-3.87,25.27-9.13,12.81-3.85,25.72-9.12,12.94-3.84,26-9.06,13.05-3.81,26.2-9,13.18-3.79,26.46-9,13.27-3.76,26.64-8.87,13.4-3.74,26.89-8.81,13.21-3.63,26.51-8.51,14.43-3.86,28.66-9.06,13.49-3.6,27.09-8.43,14-3.66,28.19-8.6,14.85-3.75,29.82-8.93,15.51-3.92,31.16-9.31,13.62-3.51,27.11-8,16.71-4.11,33.58-9.79,14.72-3.75,29.55-8.66,15.23-3.82,30.61-8.87,14.38-3.62,28.95-8.3,14.51-3.57,29.19-8.17,12.73-3.08,25.62-6.9,17-3.84,34.24-9,14.49-3.31,29.1-7.55c93.53-20.59,191.41-69.45,291-145.32a1343.15,1343.15,0,0,0,108.35-92.59,1193.58,1193.58,0,0,0,98.13,73.77C1708.89,581.84,1811,631.58,1920,667.29v-1.91c-108.61-35.66-210.42-85.26-303.23-147.8a1195.36,1195.36,0,0,1-97.79-73.5q8.85-8.38,17.49-16.85,45.85,37,95.21,69.73c88.45,58.54,185.2,106.47,288.32,142.84v-1.93c-102.74-36.3-199.16-84.08-287.32-142.42q-49.15-32.55-94.9-69.5,8.7-8.52,17.18-17.08,44.64,34.85,92.64,66C1731.38,529.32,1822.75,575.28,1920,612v-2c-96.88-36.61-187.93-82.43-271.41-136.64q-47.82-31.06-92.34-65.82,8.55-8.64,16.87-17.3,43.59,32.83,90.44,62.68c79.09,50.35,165.07,94.21,256.44,130.85v-2c-91-36.54-176.67-80.26-255.46-130.43q-46.68-29.72-90.15-62.47,8.4-8.74,16.56-17.49,42.72,31,88.64,59.65c74.36,46.36,154.93,88,240.41,124.2v-2c-85.13-36.12-165.4-77.6-239.48-123.78Q1634.8,401,1592.2,370.1q8.25-8.85,16.24-17.65,42.06,29.35,87.26,56.92c69.61,42.43,144.75,81.65,224.3,117.1v-2c-79.22-35.33-154-74.4-223.37-116.67q-45-27.45-87-56.7,8.1-8.94,15.92-17.79,41.61,27.84,86.35,54.48a2333.22,2333.22,0,0,0,208,109.54v-2a2331.2,2331.2,0,0,1-207.12-109.09q-44.58-26.55-86.06-54.29,7.93-9,15.6-17.89,41.4,26.46,85.94,52.32c59.92,34.79,124.06,68.75,191.64,101.51v-2c-67.25-32.61-131.08-66.42-190.72-101.05q-44.38-25.77-85.66-52.14,7.8-9.06,15.28-18,41.46,25.19,86.11,50.43c55,31.06,113.49,62.16,175,93v-2c-61.17-30.68-119.41-61.64-174.1-92.54q-44.48-25.14-85.82-50.25,7.67-9.12,15-18.07c82.53,47.31,167,92.53,244.93,132.74v-2c-95.61-49.31-176.27-93.46-243.75-132.16q7.49-9.13,14.61-18c75.73,40.65,153.94,82.11,229.14,121.69v-2.06c-74.84-39.39-152.63-80.64-228-121.08q7.35-9.21,14.32-18.12C1777.05,271.27,1849.78,309,1920,346.49v-2.06c-69.87-37.25-142.19-74.81-212.51-109.73q7.27-9.33,14.1-18.27,45.18,20.32,94.06,44.51Q1866,285.86,1920,314.74v-2.07q-53.51-28.59-103.54-53.36-48.66-24.08-93.74-44.37,7.17-9.41,13.82-18.33,47.13,18.67,98.12,42.84,41.47,19.67,85.34,42.87v-2.06q-43.39-22.93-84.55-42.45-50.76-24.06-97.78-42.71,7.08-9.53,13.56-18.42a1092.42,1092.42,0,0,1,102.9,40.62q32.25,14.55,65.87,31.82v-2q-33.21-17-65.11-31.44a1094.52,1094.52,0,0,0-102.54-40.5q7-9.63,13.22-18.42,52,13.56,108.21,37.48,22.8,9.7,46.22,21.11v-2q-23-11.19-45.49-20.75a780.27,780.27,0,0,0-107.81-37.4q6.85-9.69,12.75-18.22,54.75,9.61,113.74,33.1,13.3,5.31,26.81,11.31v-2q-13.15-5.83-26.12-11-58.64-23.37-113.3-33.06c3.38-4.89,6.51-9.48,9.36-13.71l2.7-3.94q57.48,4.45,119.3,27.22c2.68,1,5.37,2,8.06,3v-2q-3.7-1.44-7.41-2.8-61.39-22.64-118.75-27.25,5.94-8.57,12-16.59Q1861,97.53,1920,115.82v-1.91q-58.12-18-112.78-16.49,6-7.9,12.08-15.25,48.92-7.42,100.7,3.77V84.08q-50.77-11-99-4,6-7.12,12-13.7A232.1,232.1,0,0,1,1920,59V57.12a233.77,233.77,0,0,0-84.59,6.71q5.79-6.19,11.64-11.87a207.05,207.05,0,0,1,73-16.48V33.65a208,208,0,0,0-69.35,14.86q5.4-5.09,10.82-9.74,6.48-3.72,13-6.91A192.32,192.32,0,0,1,1920,16.17V14.33a197.47,197.47,0,0,0-51.42,18.57,234.87,234.87,0,0,1,26.75-18.61A192.16,192.16,0,0,1,1920,1.91Zm-97.7,62.21q-3.54,3-7.06,6.07-3.95,1.43-7.87,3Q1814.8,68.35,1822.3,64.12Zm-22.79,14.4q6-2.67,12-5-5.43,4.95-10.82,10.29Q1794.3,85.26,1788,87,1793.72,82.59,1799.51,78.52ZM575.34,836.57c3.08-2,6.16-4,9.25-6.06q4.89-.12,9.81-.44-4.64,2.8-9.26,5.43C581.87,835.92,578.6,836.27,575.34,836.57Zm5.53,1.31q-4.2,2.31-8.39,4.46c-3,.56-6,1-9,1.5q4.21-2.49,8.44-5.12Q576.4,838.38,580.87,837.88ZM1751.75,116.79c-2.64,2.65-5.26,5.35-7.87,8.13-1.48,1.57-3,3.23-4.56,4.93-5.66-.48-11.28-.82-16.86-1.06l.35-.31q6.38-5.56,12.83-10.68C1741,117.33,1746.34,117,1751.75,116.79Zm-13.48-1.06q6.42-5,12.91-9.57c4.86-1.09,9.74-2,14.64-2.88q-6.12,5.58-12.17,11.6Q1745.91,115.14,1738.27,115.73ZM626.2,811.07q5.07-3.66,10.16-7.52,5.46.41,10.93.58-5.12,3.55-10.2,6.89C633.47,811.11,629.84,811.12,626.2,811.07Zm7.88,1.89q-4.94,3.18-9.85,6.17c-3.48.27-7,.46-10.43.59,3.28-2.21,6.56-4.47,9.85-6.81Q628.87,813,634.08,813ZM1690,158.75q-6.12,6.65-12.74,14.07-8.78-3-17.4-5.73c4.33-4.44,8.52-8.62,12.54-12.49Q1681.07,156.53,1690,158.75Zm-16-5.66q6.51-6.19,12.45-11.31,8.67,1,17.5,2.27-6,6.09-12.52,13.18Q1682.57,155,1673.93,153.09ZM678,783.44c2.67-2.14,5.34-4.3,8-6.52,1-.79,1.91-1.6,2.87-2.4q5.88.93,11.78,1.63-5.52,4.27-11,8.33Q683.78,784.08,678,783.44Zm9.5,2.61q-5.4,3.94-10.77,7.65c-3.78-.08-7.55-.25-11.32-.48q5.32-4,10.67-8.26Q681.75,785.62,687.47,786.05Zm940.87-587.88q-6.4,7.11-13.13,14.69l-16.74-9.08q6.6-7.09,12.89-13.66Q1619.81,194.11,1628.34,198.17Zm-15.65-9.43q6.49-6.75,12.66-12.86,8.49,3.31,17.16,6.79-6.27,6.77-12.9,14.09Q1621.12,192.71,1612.69,188.74ZM730.77,753.68q5.57-4.86,11.09-9.88c1.76.41,3.52.82,5.28,1.2,2.42.52,4.83,1,7.25,1.47q-5.58,4.74-11.21,9.31Q737,754.85,730.77,753.68Zm10.49,3.65q-2,1.59-4,3.17-3.59,2.84-7.17,5.58-6.06-.66-12.09-1.55,5.51-4.57,11-9.33C733.08,756,737.17,756.69,741.26,757.33Zm825.39-521.21q-6.66,7.49-13.58,15.31-8.07-5.81-16-11.61,6.78-7.48,13.33-14.6Q1558.45,230.67,1566.65,236.12Zm-15-12.25q6.67-7.23,13.12-14,8.18,5,16.43,10-6.54,7.23-13.35,14.86Q1559.7,229.31,1551.67,223.87Zm-62.48,36.34q7.69,6.62,15.54,13.14-6.87,7.78-13.94,15.83-7.71-6.76-15.28-13.63Q1482.46,267.73,1489.19,260.21Zm-15,14.12q-7.71-7-15.3-14.11,6.81-7.55,13.45-14.75,7.67,6.81,15.51,13.55Q1481.09,266.52,1474.16,274.33Zm16.25-15.47q6.85-7.63,13.5-14.91,7.8,6.3,15.74,12.57-6.75,7.59-13.72,15.47Q1498.1,265.45,1490.41,258.86Zm15.71,15.66q7.68,6.39,15.5,12.71-7,8-14.26,16.25-7.66-6.51-15.2-13.1Zm1.21-1.36q7-7.91,13.76-15.52,7.82,6.14,15.76,12.22l-13.75,15.68-.28.32Q1515,279.54,1507.33,273.16Zm15-16.88q6.89-7.71,13.56-15.1,7.92,5.82,16,11.62-6.78,7.69-13.81,15.69Q1530.1,262.41,1522.3,256.28Zm13.31-17.54q-8-5.93-15.92-11.85,6.64-7.09,13.08-13.75,8,5.52,16.13,11.05Q1542.38,231.27,1535.61,238.74Zm-1.22,1.36q-6.66,7.35-13.52,15.06-7.95-6.25-15.73-12.56,6.75-7.38,13.3-14.38Q1526.33,234.18,1534.39,240.1Zm-30.67,1.36q-7.9-6.41-15.64-12.87,6.64-7,13.09-13.55,7.82,6,15.81,12.08Q1510.46,234.1,1503.72,241.46Zm-1.23,1.34q-6.63,7.26-13.46,14.87-7.82-6.74-15.49-13.54,6.74-7.31,13.28-14.22Q1494.58,236.39,1502.49,242.8Zm-30.31.12q-7.71-6.85-15.26-13.8,6.66-6.93,13.13-13.41,7.6,6.56,15.38,13Q1478.89,235.65,1472.18,242.92Zm-1.23,1.34q-6.62,7.19-13.41,14.72-7.65-7.19-15.16-14.46,6.72-7.25,13.28-14.09Q1463.24,237.39,1471,244.26Zm-14.63,16.07q-6.72,7.44-13.6,15.2-7.58-7.45-15-15,6.78-7.5,13.42-14.65Q1448.64,253.14,1456.32,260.33ZM1441,243.21q-7.49-7.29-14.82-14.66,6.67-6.87,13.17-13.31,7.38,7,14.89,13.93Q1447.74,236,1441,243.21Zm-1.23,1.34q-6.61,7.13-13.39,14.62-7.45-7.61-14.76-15.31,6.72-7.2,13.29-14Q1432.3,237.26,1439.81,244.55Zm-14.62,16q-6.69,7.41-13.55,15.14-7.38-7.87-14.63-15.87,6.77-7.47,13.41-14.6Q1417.73,252.92,1425.19,260.52Zm-14.78-18q-7.23-7.67-14.34-15.43,6.69-6.87,13.23-13.26c4.75,4.94,9.52,9.85,14.36,14.73Q1417.12,235.35,1410.41,242.53Zm-1.24,1.33q-6.63,7.11-13.39,14.57-7.21-8-14.29-16.06,6.72-7.19,13.31-14Q1401.91,236.19,1409.17,243.86Zm-14.62,15.93q-6.69,7.4-13.52,15.1-7.17-8.22-14.19-16.59,6.77-7.47,13.4-14.59Q1387.32,251.81,1394.55,259.79ZM1380.29,241q-6.94-8-13.76-16,6.72-6.87,13.29-13.26,6.81,7.73,13.75,15.37Q1387,233.83,1380.29,241Zm-1.25,1.34q-6.63,7.11-13.39,14.56-6.93-8.25-13.75-16.64,6.74-7.2,13.35-14Q1372.07,234.35,1379,242.33Zm-14.62,15.93q-6.69,7.39-13.5,15.12-6.9-8.5-13.68-17.16,6.75-7.5,13.4-14.63Q1357.47,250,1364.42,258.26Zm-13.67-19.44q-6.64-8.22-13.16-16.56,6.75-6.88,13.36-13.29,6.49,8,13.12,15.89C1359.67,229.36,1355.23,234,1350.75,238.82Zm-1.26,1.34q-6.63,7.11-13.39,14.6-6.66-8.5-13.2-17.13,6.76-7.24,13.4-14.06Q1342.84,231.93,1349.49,240.16ZM784.08,722.42q5.63-5.26,11.21-10.69c4.41,1.31,8.83,2.52,13.26,3.66q-5.65,5.16-11.35,10.15C792.82,724.58,788.45,723.55,784.08,722.42ZM795.5,727q-5.64,4.92-11.32,9.68c-3.39-.61-6.76-1.25-10.12-2l-2.76-.62q5.63-5,11.2-10.24Q789,725.59,795.5,727Zm15.15-11.09q6.6,1.65,13.2,3.06-5.67,4.85-11.36,9.53c-3.82-.66-7.64-1.36-11.43-2.15l-1.65-.36Q805.05,721.06,810.65,715.94Zm1.6-1.47q5.65-5.19,11.27-10.54c4.48,1.29,9,2.47,13.47,3.59q-5.68,5.07-11.4,10C821.14,716.57,816.69,715.57,812.25,714.47Zm26.87-6.41q6.71,1.62,13.42,3-5.68,4.76-11.4,9.37-6.21-1-12.38-2.24l-.93-.2Q833.49,713.09,839.12,708.06Zm1.63-1.47q5.61-5.05,11.18-10.24,6.81,1.89,13.65,3.55-5.61,4.9-11.25,9.66C849.79,708.64,845.27,707.67,840.75,706.59Zm27-6.18q6.79,1.61,13.61,3-5.6,4.59-11.23,9c-4.2-.66-8.39-1.37-12.56-2.17l-1-.2Q862.2,705.3,867.76,700.41Zm1.67-1.48q5.75-5.05,11.46-10.28,6.95,1.86,13.92,3.47-5.79,4.95-11.61,9.75Q876.3,700.54,869.43,698.93Zm27.6-6.3c4.63,1,9.28,2,13.93,2.88q-5.79,4.63-11.6,9.12c-3.73-.56-7.44-1.15-11.14-1.82l-2.68-.5Q891.32,697.54,897,692.63Zm1.74-1.5q5.75-4.95,11.46-10c4.71,1.22,9.44,2.37,14.18,3.42q-5.77,4.83-11.57,9.5Q905.79,692.7,898.77,691.13ZM926.65,685q7.08,1.54,14.2,2.83-5.75,4.5-11.53,8.86-7.07-1-14.1-2.26Q921,689.79,926.65,685Zm1.75-1.48c97.39-82.16,186.94-193.9,267.36-294.24,44.16-55.09,86.53-107.95,125.88-150.29q6.55,8.66,13.22,17.15c-33.26,36.94-68.6,80.18-105.21,125-85.8,105-181.86,222.46-286.88,305.23Q935.57,685,928.4,683.51Zm393.38-447.34q-6.35-8.43-12.58-17,6.78-6.93,13.44-13.35,6.19,8.22,12.53,16.31Q1328.54,228.93,1321.78,236.17Zm-1.26,1.35c-39.46,42.42-81.92,95.39-126.18,150.61C1113.68,488.77,1023.82,600.89,926.16,683q-7.17-1.57-14.3-3.4C1002.42,598.42,1086,492,1162,395.22c51.57-65.68,100.78-128.35,145.94-174.73Q1314.17,229.07,1320.52,237.52Zm-160,156.58c-76.2,97-160,203.78-250.81,285q-7.15-1.86-14.26-4c84.49-80.3,162.91-182.29,234-274.75,59.84-77.84,115-149.54,165.37-198.07q6,8.43,12,16.74C1261.54,265.47,1212.22,328.27,1160.54,394.1ZM908.09,680.53q-5.76,5.13-11.56,10.12c-4.69-1.07-9.36-2.24-14-3.47q5.73-5.26,11.43-10.66Q901,678.65,908.09,680.53Zm-27.67,6.1q-7-1.9-14-4.06,5.72-5.55,11.4-11.24,7,2.42,14.12,4.59Q886.2,681.35,880.42,686.63Zm-1.61,1.46q-5.76,5.24-11.55,10.33-6.9-1.63-13.77-3.53,5.73-5.35,11.42-10.86Q871.84,686.18,878.81,688.09Zm-27.37,6.23q-6.9-2-13.75-4.14,5.7-5.65,11.36-11.43,6.91,2.44,13.89,4.66Q857.21,688.93,851.44,694.32Zm-1.56,1.45q-5.61,5.21-11.26,10.29-6.79-1.66-13.56-3.59,5.6-5.36,11.17-10.85Q843,693.83,849.88,695.77ZM823,701.89q-6.79-2-13.55-4.21,5.58-5.65,11.14-11.44,6.81,2.5,13.67,4.75Q828.67,696.51,823,701.89Zm-1.51,1.45q-5.67,5.37-11.35,10.59c-4.47-1.14-8.93-2.35-13.38-3.66q5.64-5.49,11.25-11.14Q814.75,701.37,821.51,703.34Zm-26.72,6.33q-6.7-2-13.39-4.28,5.61-5.79,11.2-11.73c4.49,1.69,9,3.32,13.49,4.84Q800.47,704.16,794.79,709.67Zm-1.48,1.45q-5.64,5.46-11.31,10.75-6.62-1.74-13.19-3.73,5.61-5.58,11.18-11.3C784.42,708.36,788.86,709.77,793.31,711.12Zm-12.89,12.22q-5.62,5.24-11.3,10.3-6.48-1.47-12.94-3.2,5.6-5.34,11.17-10.85Q773.88,721.58,780.42,723.34Zm-13,11.8q-5.62,5-11.28,9.82c-2.89-.55-5.78-1.12-8.65-1.74-1.35-.29-2.69-.61-4-.92q5.6-5.1,11.15-10.39Q761,733.65,767.46,735.14Zm-10.77,11.77q6.19,1.14,12.42,2.07-2.57,2-5.13,4-3,2.35-6.09,4.65-6.15-.64-12.26-1.5Q751.18,751.6,756.69,746.91Zm1.8-1.53q5.6-4.78,11.15-9.76c1.35.31,2.69.62,4,.91,2.88.61,5.77,1.17,8.67,1.7q-5.62,4.68-11.29,9.19Q764.76,746.52,758.49,745.38Zm26.19-6.72q6.27,1.13,12.59,2c-2.07,1.6-4.13,3.19-6.2,4.75q-2.54,1.92-5.07,3.78-6.25-.6-12.46-1.44Q779.12,743.31,784.68,738.66Zm1.83-1.53q5.61-4.73,11.2-9.62l3,.66c3.3.68,6.61,1.3,9.93,1.89q-5.65,4.61-11.34,9Q792.88,738.23,786.51,737.13ZM813,730.48q6.39,1.1,12.81,1.94-3.56,2.7-7.12,5.35c-1.4,1-2.79,2-4.19,3.05q-6.36-.57-12.68-1.38Q807.41,735,813,730.48Zm1.86-1.54q5.65-4.65,11.25-9.47c.77.16,1.54.34,2.31.49q5.4,1.08,10.83,2-5.67,4.53-11.36,8.89Q821.33,730,814.84,728.94Zm26.8-6.58q6.5,1,13,1.87-5.65,4.21-11.34,8.26c-4.31-.37-8.62-.79-12.9-1.31Q836,726.85,841.64,722.36Zm1.9-1.54q5.65-4.58,11.28-9.31c.81.16,1.61.34,2.41.49q5.46,1.05,10.95,1.93-5.67,4.44-11.39,8.72Q850.15,721.86,843.54,720.82Zm27.12-6.5q6.65,1,13.34,1.82-4.05,3-8.11,5.84l-3.23,2.25c-4.42-.35-8.83-.75-13.23-1.25Q865.07,718.73,870.66,714.32Zm2-1.54q5.57-4.41,11.1-9l4.17.78c3.15.57,6.3,1.09,9.46,1.58q-5.57,4.26-11.17,8.37C881.65,714,877.12,713.45,872.62,712.78Zm27.22-6.22q6.76,1,13.58,1.77-3.79,2.71-7.61,5.35c-1.15.8-2.3,1.57-3.45,2.36q-6.78-.48-13.52-1.18Q894.35,710.78,899.84,706.56Zm2-1.56q5.75-4.46,11.45-9,6.95,1.26,13.93,2.28-5.78,4.34-11.58,8.5Q908.73,706,901.86,705Zm27.91-6.38q6.91,1,13.85,1.7-3.39,2.35-6.79,4.67c-1.58,1.08-3.15,2.13-4.73,3.18q-6.89-.45-13.71-1.15Q924.09,702.9,929.77,698.62Zm2.08-1.57q5.71-4.34,11.4-8.8,5.79,1,11.59,1.87l2.57.36q-5.71,4.18-11.47,8.22Q938.88,698,931.85,697.05Zm23.25-8.73q-5-.72-9.93-1.58c104.69-82.83,200.38-199.89,285.89-304.5,36.52-44.67,71.77-87.8,104.94-124.65q6.8,8.64,13.7,17.17c-26.55,30.14-54.38,63.55-83,97.95-91.28,109.61-194,232.94-307.16,316.23C958.05,688.74,956.57,688.54,955.1,688.32Zm313-314.45c28.56-34.3,56.32-67.62,82.79-97.69q7,8.58,14.11,17c-19.24,22.11-39.11,45.57-59.42,69.55-97.11,114.69-206.93,244.38-329.2,328.14q-7.14-.68-14.24-1.59C1074.87,605.88,1177.14,483.08,1268.08,373.87Zm84-99.07q6.83-7.73,13.51-15.14,7.05,8.37,14.21,16.6-6.75,7.64-13.62,15.53Q1359.08,283.36,1352.09,274.8Zm28.94,2.84q7.18,8.22,14.52,16.3-6.85,7.83-13.85,15.91-7.21-8.25-14.33-16.65Q1374.26,285.3,1381,277.64Zm1.21-1.37q6.84-7.71,13.54-15.13,7.26,8,14.65,15.88-6.77,7.64-13.68,15.54Q1389.43,284.48,1382.24,276.27Zm29.46,2.09q7.36,7.81,14.85,15.49-6.88,7.84-13.93,15.93-7.38-7.86-14.63-15.85Q1404.9,286,1411.7,278.36Zm1.22-1.36q6.86-7.71,13.57-15.15,7.44,7.57,15,15-6.79,7.67-13.76,15.59Q1420.27,284.8,1412.92,277Zm29.89,1.16q7.49,7.35,15.1,14.59-6.93,7.88-14,16-7.5-7.41-14.86-14.94Q1436,285.84,1442.81,278.16Zm1.21-1.36q6.9-7.76,13.62-15.23,7.59,7.11,15.32,14.12-6.84,7.72-13.85,15.69Q1451.49,284.15,1444,276.8Zm30.29.11q7.57,6.87,15.27,13.64L1477,304.85c-.52.59-1,1.19-1.57,1.78q-7.56-6.94-15-14Q1467.45,284.65,1474.31,276.91Zm4.08,29.14L1491,291.74q7.53,6.6,15.2,13.11l-14.47,16.45q-7.51-6.68-14.9-13.43Zm29.15,0q7.51,6.36,15.15,12.64-7.32,8.29-14.83,16.73-7.47-6.4-14.81-12.9Q1500.39,314.19,1507.54,306Zm1.2-1.36,14.29-16.3q7.68,6.19,15.47,12.32-7.2,8.22-14.6,16.61Q1516.27,311,1508.74,304.67ZM1524.23,287l.24-.27L1538.3,271q7.8,6,15.77,11.88Q1547,291,1539.7,299.32,1531.9,293.2,1524.23,287Zm15.27-17.41,13.85-15.74q8,5.7,16.05,11.37l-14.13,16.25Q1547.32,275.55,1539.5,269.6Zm15.06-17.11q6.93-7.85,13.62-15.35,8.07,5.37,16.32,10.74l-13.41,15.41c-.16.19-.32.38-.49.56Q1562.52,258.18,1554.56,252.49Zm14.84-16.72q6.84-7.67,13.41-14.92,8.24,5,16.56,10-6.7,7.64-13.67,15.65Q1577.48,241.13,1569.4,235.77Zm14.67-16.31q6.71-7.38,13.12-14.3l16.78,9.1q-6.54,7.38-13.36,15.17Q1592.15,224.36,1584.07,219.46Zm12.75-16.58-16.56-9q6.43-6.5,12.6-12.42,8.34,3.88,16.77,7.86Q1603.38,195.82,1596.82,202.88Zm-1.28,1.38q-6.39,6.88-13,14.24-8.38-5.1-16.4-10,6.56-6.89,12.84-13.26Q1587.18,199.72,1595.54,204.26Zm-31,3.25q-8.33-5.12-16.23-10,6.42-6.33,12.6-12.1l16.39,8.95Q1571,200.67,1564.51,207.51Zm-1.3,1.37q-6.42,6.75-13.06,14-8.13-5.52-16.09-11,6.56-6.75,12.87-13Q1555,203.84,1563.21,208.88Zm-30.66,1.89q-8-5.57-15.87-11.11,6.46-6.22,12.69-11.88,8,5,16,10Q1539.06,204,1532.55,210.77Zm-1.28,1.32q-6.42,6.63-13,13.7-8-6-15.78-12.06,6.55-6.64,12.9-12.78Q1523.23,206.52,1531.27,212.09Zm-30.25.53q-7.77-6-15.38-12.07,6.57-6.18,12.8-11.69,7.62,5.5,15.42,11Q1507.55,206,1501,212.62Zm-1.29,1.31q-6.42,6.52-13,13.5-7.76-6.48-15.34-13,6.59-6.57,13-12.62Q1491.93,207.89,1499.73,213.93Zm-29.82-.73q-7.5-6.47-14.83-13,6.62-6.12,12.93-11.56,7.32,6,14.81,12Q1476.46,206.66,1469.91,213.2Zm-1.29,1.29q-6.45,6.45-13.08,13.37-7.51-6.92-14.85-13.9,6.49-6.39,12.83-12.29l.22-.2Q1461.09,208,1468.62,214.49Zm-16.34-14.15q-6.36,5.92-12.91,12.37-7.21-6.86-14.27-13.79,6.69-6.07,13.07-11.47,7,6.42,14.2,12.8ZM1438.07,214q-6.48,6.4-13.14,13.28-7.25-7.31-14.32-14.7,6.3-6.13,12.46-11.8l.68-.63Q1430.85,207.1,1438.07,214Zm-16.24-14.56q-6.16,5.67-12.49,11.83-6.87-7.19-13.6-14.45,6.75-6.06,13.23-11.42,6.67,6.77,13.48,13.47C1422.25,199.06,1422,199.24,1421.83,199.43ZM1408,212.53q-6.52,6.38-13.2,13.22-6.93-7.6-13.7-15.32,6.19-6,12.26-11.52l1-.88Q1401.14,205.32,1408,212.53Zm-15.86-15q-6.06,5.51-12.25,11.49-6.53-7.44-12.94-15,6.83-6.06,13.39-11.42,6.31,7.05,12.77,14Zm-13.56,12.75q-6.57,6.38-13.27,13.23-6.61-7.86-13.08-15.84c4.12-4,8.21-7.78,12.24-11.42l1.12-1Q1372.07,202.86,1378.62,210.32Zm-15.32-15.38c-4,3.62-8.08,7.42-12.18,11.35q-6.21-7.66-12.31-15.42,6.92-6.09,13.57-11.43,6,7.27,12.07,14.46Zm-13.5,12.61q-6.6,6.39-13.35,13.27-6.3-8.08-12.49-16.27c4.16-4,8.28-7.82,12.36-11.47l1.13-1Q1343.55,199.88,1349.8,207.55Zm-14.69-15.82c-4,3.61-8.13,7.41-12.24,11.35q-5.92-7.86-11.73-15.84,6.93-6.08,13.74-11.46,5.67,7.47,11.44,14.87C1335.91,191,1335.51,191.36,1335.11,191.73Zm-13.57,12.62q-6.64,6.41-13.43,13.33-6-8.3-12-16.69,6.87-6.57,13.62-12.54Q1315.61,196.46,1321.54,204.35Zm-26.44-4.84q-5.64-8-11.18-16.17,7-6.1,13.9-11.52,5.39,7.63,10.89,15.17Q1302,193,1295.1,199.51Zm-1.33,1.26c-50.61,48.67-105.83,120.49-165.76,198.45-71.25,92.68-149.87,194.94-234.55,275.26q-7.12-2.16-14.2-4.59c78.69-79,152-176.41,218.72-265.1,67.31-89.46,128.74-171.09,184.56-220.24Q1288.11,192.71,1293.77,200.77ZM1096.52,403.7c-66.88,88.87-140.34,186.49-219.18,265.54q-7.11-2.46-14.17-5.18c73.2-77.47,141.6-170.34,204.18-255.3,74.89-101.68,142.56-193.56,203.73-241.09,1.29,1.84,2.58,3.7,3.87,5.63,2.17,3.27,4.38,6.51,6.58,9.75C1225.46,232.35,1163.94,314.11,1096.52,403.7Zm-220.61,267q-5.71,5.72-11.48,11.3-7-2.21-14-4.66,5.7-5.84,11.36-11.81Q868.84,668.21,875.91,670.66Zm-27.34,6q-7-2.5-14-5.26,5.67-6.12,11.3-12.38,7,3,14.08,5.78Q854.3,670.77,848.57,676.63Zm-1.41,1.44q-5.68,5.8-11.42,11.48-6.9-2.25-13.76-4.75,5.67-5.92,11.31-12Q840.21,675.58,847.16,678.07Zm-27,6q-6.9-2.57-13.75-5.37,5.64-6.21,11.23-12.56,6.92,3.07,13.88,5.89Q825.81,678.17,820.12,684.12Zm-1.37,1.43q-5.6,5.82-11.22,11.5-6.81-2.28-13.58-4.83,5.56-6,11.11-12Q811.89,683,818.75,685.55Zm-26.65,6q-6.83-2.6-13.61-5.46,5.57-6.24,11.08-12.62,6.82,3.12,13.7,6Q797.71,685.56,792.1,691.53ZM790.75,693q-5.61,6-11.26,11.77-6.72-2.32-13.42-4.92,5.58-6.09,11.14-12.31Q784,690.36,790.75,693Zm-12.66,13.2q-5.6,5.76-11.24,11.35-6.65-2.06-13.25-4.36,5.6-5.88,11.14-11.9Q771.4,703.86,778.09,706.17ZM765.38,719q-5.61,5.55-11.26,10.92-6.51-1.78-13-3.83,5.57-5.65,11.12-11.46Q758.79,716.91,765.38,719Zm-12.8,12.39q-5.61,5.31-11.24,10.45c-4.27-1-8.53-2.11-12.79-3.28q5.58-5.43,11.12-11Q746.11,729.57,752.58,731.36ZM739.69,743.3q-5.58,5.07-11.21,10c-2.37-.47-4.74-1-7.11-1.47-1.8-.4-3.61-.83-5.41-1.25Q721.51,745.36,727,740C731.25,741.18,735.47,742.29,739.69,743.3ZM721,753.55q2.88.65,5.76,1.21-5.55,4.8-11.13,9.41c-4.11-.63-8.2-1.36-12.28-2.16q5.52-4.9,11-10C716.55,752.55,718.77,753.07,721,753.55Zm-7.24,12.15-2.81,2.3q-4.14,3.35-8.25,6.56-6-.67-12-1.6,5.47-4.62,10.93-9.44Q707.7,764.74,713.74,765.7ZM703.2,776.45c3.82.43,7.66.77,11.5,1q-5.48,3.91-10.93,7.6-5.68-.12-11.34-.45Q697.8,780.66,703.2,776.45Zm2.08-1.62q3.4-2.67,6.8-5.42l4.08-3.33q5.94.9,11.88,1.58-5.52,4.2-11,8.17Q711.14,775.44,705.28,774.83ZM730.65,768q5.83.62,11.63,1-5.47,3.84-10.92,7.46-5.75-.1-11.47-.42Q725.26,772.1,730.65,768Zm2.11-1.61q2.82-2.19,5.66-4.42l5.28-4.23q6,.88,12,1.54-5.57,4.14-11.09,8.07Q738.69,766.94,732.76,766.35Zm25.65-6.84q5.88.6,11.78,1-5.52,3.79-11,7.39-5.83-.09-11.64-.39Q753,763.61,758.41,759.51Zm2.13-1.61c1.52-1.15,3-2.3,4.55-3.48,2.17-1.67,4.32-3.37,6.48-5.08q6.09.85,12.22,1.49-5.6,4.09-11.17,8Q766.58,758.47,760.54,757.9Zm26-6.81q6,.57,12,.93-5.57,3.76-11.11,7.32c-3.95-.05-7.91-.16-11.85-.36Q781,755.14,786.51,751.09Zm2.17-1.62c1.17-.87,2.33-1.72,3.49-2.6Q796,744,799.79,741q6.21.82,12.45,1.44-5.62,4-11.25,7.88Q794.83,750,788.68,749.47ZM815,742.7q6.09.56,12.22.88-5.58,3.69-11.18,7.22-6-.06-12-.31Q809.46,746.7,815,742.7Zm2.24-1.62c.84-.62,1.69-1.22,2.53-1.85,2.88-2.12,5.75-4.29,8.62-6.48q6.32.79,12.67,1.37-5.64,4-11.3,7.76Q823.47,741.58,817.22,741.08Zm26.65-6.71q6.24.52,12.52.82-5.6,3.64-11.18,7.09-6.19,0-12.36-.26Q838.39,738.27,843.87,734.37Zm2.31-1.64q5.6-4,11.15-8.18,6.46.78,13,1.32-5.65,3.9-11.29,7.6Q852.58,733.21,846.18,732.73Zm27-6.63q6.4.48,12.84.75-5.61,3.57-11.18,6.94-6.34,0-12.67-.2Q867.63,729.93,873.15,726.1Zm2.37-1.65,1.41-1c3.26-2.29,6.5-4.64,9.74-7,4.41.49,8.82.91,13.26,1.25q-5.64,3.81-11.26,7.42Q882.07,724.9,875.52,724.45Zm27.33-6.54q6.52.45,13.08.68-5.55,3.46-11.09,6.75-6.51.06-13-.11Q897.34,721.66,902.85,717.91Zm2.43-1.66,1.57-1.07q4.65-3.23,9.29-6.55,6.72.71,13.47,1.19-5.46,3.6-10.9,7C914.22,716.72,909.74,716.53,905.28,716.25ZM932.6,710q6.58.42,13.21.62-5.31,3.24-10.61,6.32-6.63.09-13.24,0Q927.27,713.56,932.6,710Zm2.51-1.69,2.75-1.84q4.27-2.91,8.52-5.89,6.81.67,13.65,1.12-5.71,3.69-11.38,7.19C944.12,708.81,939.61,708.6,935.11,708.34ZM948.7,699q5.67-4,11.31-8.15,7,.93,14,1.63-2.46,1.68-4.93,3.33-3.23,2.15-6.43,4.24C958,699.76,953.34,699.43,948.7,699Zm21.4-1.68c2.26-1.5,4.5-3,6.75-4.56q6.82.63,13.69,1-5.62,3.54-11.21,6.91c-4.56-.09-9.11-.24-13.65-.48Q967.9,698.78,970.1,697.31Zm9.09-6.17c121.75-83.94,231-213,327.76-327.23,20.24-23.9,40-47.28,59.21-69.33q7.11,8.4,14.34,16.65-16.7,19.29-34.23,39.76c-100.79,117.34-215,250.34-343.62,335-3.17,2.09-6.33,4.12-9.49,6.12Q986.16,691.75,979.19,691.14Zm368.46-339c11.52-13.41,22.89-26.65,34.07-39.56q7.15,8.13,14.41,16.12l-7.54,8.69c-97.46,112.2-218.74,251.83-351.09,338.11q-13.95,9.11-27.68,17.18c-4.56-.07-9.12-.22-13.65-.44C1128.1,607.78,1247.32,469,1347.65,352.17Zm35.27-40.94q7-8.06,13.86-15.92,7.26,8,14.64,15.85-7,8-14.09,16.19Q1390.07,319.35,1382.92,311.23Zm29.76,1.25q7.23,7.68,14.59,15.23l-14.39,16.43q-7.22-7.65-14.32-15.44Zm1.2-1.37q7-8.1,13.94-15.95,7.37,7.54,14.86,14.94-5.17,5.92-10.45,11.94l-3.76,4.3Q1421.12,318.8,1413.88,311.11Zm19.72,12.13L1444,311.38q7.3,7.22,14.72,14.32l-14.52,16.47q-7.28-7.2-14.44-14.52ZM1445.18,310l14-16q7.46,7,15,14l-14.34,16.33Q1452.49,317.24,1445.18,310Zm30.41-.78q7.4,6.76,14.89,13.43-7.26,8.22-14.67,16.58-7.35-6.78-14.58-13.66Q1468.49,317.33,1475.59,309.23Zm16.26,14.63q7.34,6.5,14.79,12.9-7.44,8.34-15.07,16.81-7.26-6.49-14.42-13.1Q1484.59,332.1,1491.85,323.86ZM1508,338q7.34,6.27,14.77,12.45-7.63,8.43-15.47,17-7.24-6.24-14.38-12.59Q1500.57,346.31,1508,338Zm1.21-1.36q7.55-8.46,14.87-16.76,7.51,6.15,15.13,12.25-7.51,8.42-15.22,17Q1516.57,342.86,1509.23,336.59Zm16.07-18.13q7.42-8.41,14.63-16.65,7.68,6,15.49,12-7.38,8.39-15,16.94Q1532.8,324.63,1525.3,318.46Zm15.83-18q7.32-8.35,14.4-16.49,7.85,5.82,15.83,11.6-7.24,8.32-14.73,16.86Q1548.82,306.46,1541.13,300.44Zm15.6-17.87,14.17-16.29q8,5.6,16.14,11.17-7.11,8.24-14.48,16.72Q1564.58,288.4,1556.73,282.57Zm15.37-17.67.36-.41,13.57-15.6q8.15,5.3,16.43,10.61-7,8.13-14.23,16.56Q1580.1,270.5,1572.1,264.9Zm15.14-17.4q7-8,13.71-15.7,8.33,5,16.7,9.95l-14,16.35Q1595.38,252.8,1587.24,247.5Zm15-17.12q6.87-7.83,13.42-15.23l16.93,9.16-10.4,12.18-3.27,3.83Q1610.37,235.28,1602.19,230.38Zm14.66-16.63q6.76-7.62,13.2-14.76l17.15,8.22q-6.56,7.64-13.45,15.69Zm14.47-16.17q6.67-7.38,13-14.18,8.6,3.47,17.35,7.09-6.44,7.38-13.23,15.3Q1639.84,201.65,1631.32,197.58ZM1645.64,182q6.58-7,12.75-13.42,8.67,2.76,17.5,5.74-6.27,7.07-13,14.75Q1654.19,185.43,1645.64,182Zm12.23-15.5q-8.65-2.75-17.16-5.27,6.27-5.74,12.12-10.6,8.61,1.62,17.39,3.54Q1664.27,159.9,1657.87,166.47Zm-1.42,1.46q-6.1,6.31-12.62,13.31-8.61-3.47-17.07-6.76,6.39-6.28,12.39-11.85Q1647.71,165.18,1656.45,167.93Zm-31.54,5.83q-8.48-3.3-16.78-6.42,6.16-5.44,12-10.12,8.42,2.29,17,4.82Q1631.2,167.55,1624.91,173.76Zm-1.41,1.4q-6.11,6.08-12.54,12.76-8.39-4-16.69-7.83,6.32-6,12.32-11.39Q1614.95,171.85,1623.5,175.16Zm-31,4.12q-8.23-3.84-16.37-7.58,6.15-5.25,12-9.79,8.17,3,16.53,6.07Q1598.74,173.31,1592.51,179.28Zm-1.41,1.35q-6.12,5.88-12.5,12.34l-16.32-8.9q6.3-5.85,12.34-11.06Q1582.81,176.78,1591.1,180.63Zm-30.49,2.52-15.9-8.7q6.19-5.12,12.14-9.55,7.94,3.6,16,7.28Q1566.85,177.37,1560.61,183.15Zm-1.4,1.31q-6.14,5.74-12.51,12-8.17-5.12-15.92-10,6.33-5.7,12.42-10.8Zm-30,1q-7.86-5-15.26-9.71,6.36-5.07,12.36-9.37l15.21,8.36Q1535.48,179.84,1529.21,185.5Zm-1.41,1.28q-6.21,5.64-12.61,11.82-7.76-5.49-15.35-11,6.48-5.69,12.6-10.63Q1520.07,181.89,1527.8,186.78Zm-29.53-.3q-7.38-5.32-14.58-10.66,6.49-5,12.65-9.23,7.17,4.66,14.42,9.33Q1504.61,180.9,1498.27,186.48Zm-1.4,1.24q-6.27,5.55-12.72,11.64-7.45-5.94-14.74-11.89,6.55-5.61,12.79-10.49Q1489.45,182.35,1496.87,187.72ZM1468,186.3q-7-5.76-13.91-11.54,6.63-5,13-9.12,6.75,5.1,13.67,10.23Q1474.48,180.73,1468,186.3Zm-1.4,1.2q-6.28,5.43-12.87,11.51-7.14-6.34-14.13-12.74,6.66-5.57,13-10.38Q1459.51,181.71,1466.58,187.5ZM1438.23,185q-6.63-6.09-13.13-12.2,6.8-4.94,13.28-9,6.31,5.44,12.78,10.89Q1444.85,179.51,1438.23,185Zm-1.41,1.18q-6.36,5.37-13,11.43-6.78-6.67-13.42-13.41,6.76-5.53,13.23-10.31Q1430.14,180.09,1436.82,186.21Zm-27.71-3.28q-6.24-6.35-12.35-12.73,6.95-4.92,13.6-9,5.9,5.72,11.91,11.41Q1415.82,177.4,1409.11,182.93Zm-1.42,1.15q-6.45,5.35-13.18,11.4-6.42-6.94-12.71-13.94,6.87-5.53,13.46-10.28Q1401.41,177.7,1407.69,184.08Zm-27.11-3.91q-5.85-6.55-11.58-13.16,7.05-4.87,13.81-8.82c1.29,1.28,2.57,2.61,3.86,4q3.63,3.89,7.32,7.76Q1387.42,174.66,1380.58,180.17Zm-1.41,1.14q-6.56,5.34-13.36,11.38-6.06-7.16-12-14.39,7-5.53,13.7-10.25Q1373.28,174.71,1379.17,181.31Zm-26.53-4.41q-4.65-5.68-9.25-11.42c-.56-.71-1.13-1.39-1.69-2.08q6.94-4.68,13.74-8.52,4.49,4.4,8.88,9.51c.65.76,1.32,1.52,2,2.28Q1359.59,171.38,1352.64,176.9ZM1342,166.61q4.59,5.74,9.25,11.42-6.65,5.34-13.54,11.41-5.75-7.35-11.38-14.79,7-5.51,13.89-10.22C1340.79,165.15,1341.38,165.87,1342,166.61Zm-16.75,6.6c-1.38-1.82-2.77-3.63-4.14-5.46q-3.18-4.26-6.41-8.14,6.87-4.55,13.61-8.25,5.43,5.32,10.76,11.68Q1332.19,167.75,1325.22,173.21Zm-5.59-4.37c1.37,1.84,2.77,3.67,4.16,5.5q-6.8,5.39-13.72,11.44-5.44-7.5-10.81-15.08,7-5.43,13.9-10.07Q1316.4,164.55,1319.63,168.84Zm-21.42.4q-5.14-7.26-10.39-13.55,6.78-4.41,13.46-8,5.4,5.28,10.72,11.56Q1305.16,163.86,1298.21,169.24Zm-1.43,1.12q-6.88,5.38-13.87,11.48-3.24-4.76-6.45-9.55c-1.31-2-2.62-3.86-3.94-5.73q6.95-5.33,13.76-9.87Q1291.57,163,1296.78,170.36Zm-25.29-5.27q-5.15-7.2-10.37-13.44c4.48-2.87,8.92-5.5,13.33-7.82,3.59,3.49,7.15,7.33,10.68,11.48Q1278.36,159.81,1271.49,165.09ZM1270,166.2c-61.46,47.73-129.2,139.71-204.15,241.48C1003.2,492.8,934.66,585.85,861.34,663.35q-7.1-2.77-14.13-5.78c68-75.62,131.66-164,190.22-245.23,82.23-114.09,155.84-216.21,222.16-259.69Q1264.86,158.94,1270,166.2ZM1036,411.28C977.31,492.63,913.5,581.16,845.45,656.8q-7.08-3.07-14.11-6.4C894.27,577,953.43,493.09,1008.07,415.64c53.33-75.6,103.71-147,150.87-199.75,33.36-37.3,62.45-62.27,88.83-76q5.37,5.2,10.65,11.39C1191.78,195.09,1118.16,297.22,1036,411.28Zm-191.79,247c-3.77,4.17-7.55,8.32-11.35,12.41q-7-2.8-13.95-5.88,5.65-6.4,11.26-12.93Q837.11,655.16,844.16,658.23Zm-27,5.75c-4.66-2.09-9.31-4.24-13.94-6.5q5.61-6.69,11.18-13.48,7,3.64,14,7Q822.79,657.56,817.13,664Zm-1.27,1.44q-5.62,6.36-11.28,12.59-6.92-2.87-13.77-6,5.61-6.5,11.18-13.11Q808.91,662.29,815.86,665.42Zm-26.77,5.8q-6.92-3.18-13.78-6.64,5.58-6.78,11.12-13.67,6.92,3.72,13.87,7.17Q794.72,664.71,789.09,671.22Zm-1.24,1.43q-5.55,6.4-11.13,12.67-6.84-2.91-13.64-6.09,5.53-6.54,11-13.21Q781,669.47,787.85,672.65Zm-12.41,14.11q-5.58,6.25-11.2,12.36c-4.5-1.76-9-3.63-13.46-5.57q5.55-6.37,11.08-12.88Q768.63,683.85,775.44,686.76Zm-12.52,13.79q-5.58,6-11.19,11.93-6.66-2.37-13.3-5Q744,701.32,749.52,695,756.2,697.9,762.92,700.55Zm-12.56,13.37q-5.58,5.83-11.2,11.52-6.55-2.1-13.1-4.47,5.55-6,11.07-12.05Q743.73,711.56,750.36,713.92Zm-12.64,13q-5.6,5.63-11.21,11.08-6.43-1.83-12.87-3.93,5.55-5.73,11.07-11.62C729,724,733.37,725.49,737.72,726.89ZM725,739.44q-5.57,5.37-11.18,10.58-6.33-1.54-12.65-3.36,5.54-5.49,11.05-11.16Q718.61,737.59,725,739.44Zm-12.77,12q-5.55,5.13-11.14,10.08c-1.85-.38-3.7-.76-5.54-1.17-2.29-.51-4.59-1-6.88-1.61q5.52-5.24,11-10.65Q706,750,712.23,751.49ZM699.4,763.07q-5.52,4.86-11.08,9.52-6.09-1-12.16-2.2,5.49-5,11-10.12Q693.26,761.8,699.4,763.07Zm-12.93,11.07-1.64,1.38c-3.14,2.6-6.27,5.13-9.39,7.62q-5.94-.71-11.86-1.64,5.46-4.71,10.91-9.59Q680.46,773.14,686.47,774.14Zm-12.94,10.52q-5.46,4.3-10.89,8.38-5.79-.42-11.58-1.07c3-2.45,6-4.94,9.05-7.5l1.73-1.48Q667.66,783.94,673.53,784.66Zm-13.15,10.06q-5.29,3.91-10.55,7.62-5.64-.14-11.25-.49,5.24-4,10.48-8.25Q654.72,794.27,660.38,794.72Zm-10.1,9.48q5.25.12,10.52,0c-3.29,2.08-6.58,4.11-9.85,6.06q-5.25.41-10.51.6C643.71,808.73,647,806.5,650.28,804.2Zm2.56-1.81q5.13-3.63,10.27-7.47c3.66.26,7.32.45,11,.57q-5.18,3.53-10.32,6.83Q658.32,802.47,652.84,802.39Zm24.31-6.84c3.47.07,7,.09,10.44,0q-5,3.12-10.05,6-5.19.39-10.35.59Q672.16,799,677.15,795.55Zm2.62-1.8q5.24-3.64,10.48-7.51c3.68.25,7.35.42,11,.53q-5.32,3.56-10.61,6.9Q685.22,793.81,679.77,793.75Zm24.64-6.89q5.26.1,10.55,0c-3.44,2.09-6.87,4.13-10.29,6.09q-5.24.39-10.44.6Q699.32,790.32,704.41,786.86Zm2.53-1.7q5.29-3.63,10.61-7.47,5.57.36,11.16.51-5.4,3.54-10.78,6.86C714.26,785.16,710.59,785.19,706.94,785.16Zm24.94-6.88c3.55.06,7.1.07,10.66,0-3.49,2.09-7,4.11-10.47,6.08q-5.27.38-10.51.58Q726.71,781.71,731.88,778.28Zm2.68-1.79q5.3-3.56,10.62-7.33,5.64.35,11.28.48-5.4,3.48-10.78,6.74C742,776.48,738.26,776.53,734.56,776.49Zm25.17-6.8q5.44.07,10.86,0-5.3,3.12-10.57,6c-3.55.26-7.1.44-10.64.58Q754.56,773.07,759.73,769.69Zm2.69-1.76q5.36-3.54,10.72-7.26c3.81.22,7.63.36,11.45.45q-5.45,3.43-10.87,6.68Q768.07,768,762.42,767.93Zm25.5-6.76q5.51.06,11,0-5.29,3-10.62,6c-3.62.26-7.22.45-10.83.59Q782.7,764.51,787.92,761.17Zm2.78-1.8q5.38-3.5,10.79-7.18,5.82.3,11.67.4-5.48,3.4-11,6.62Q796.44,759.39,790.7,759.37Zm25.92-6.75q5.63,0,11.26-.1-5.37,3-10.72,5.9c-3.68.28-7.36.48-11,.64Q811.39,755.91,816.62,752.62Zm2.86-1.81c3.62-2.31,7.23-4.66,10.84-7.08q6,.27,11.94.35-5.52,3.36-11,6.53C827.32,750.75,823.4,750.81,819.48,750.81Zm26.24-6.71c3.86,0,7.73-.05,11.6-.16q-5.39,3-10.74,5.79-5.72.45-11.42.71Q840.43,747.35,845.72,744.1Zm2.94-1.83c3.62-2.26,7.23-4.58,10.86-7q6.12.26,12.28.28c-3.68,2.2-7.35,4.35-11,6.42C856.74,742.17,852.7,742.24,848.66,742.27Zm26.65-6.66c4,0,7.92-.09,11.88-.23q-5.34,2.91-10.66,5.65c-3.92.33-7.83.58-11.74.78Q870,738.8,875.31,735.61Zm3.05-1.86q5.39-3.3,10.81-6.78,6.26.19,12.55.2-5.47,3.21-10.94,6.25C886.63,733.61,882.49,733.7,878.36,733.75Zm27-6.59c4,0,8.09-.13,12.15-.3q-5.26,2.82-10.49,5.47c-4,.36-8,.63-12,.86C898.45,731.24,901.91,729.22,905.38,727.16Zm3.12-1.87q5.34-3.21,10.72-6.59,6.36.18,12.76.14-5.4,3.1-10.79,6C917,725.09,912.73,725.22,908.5,725.29Zm27.19-6.49q6.07-.09,12.19-.36c-3.45,1.8-6.88,3.57-10.31,5.27-4.05.38-8.09.67-12.13.92Q930.54,721.8,935.69,718.8Zm3.2-1.87q5.11-3,10.25-6.18,6.36.15,12.75.09-5.1,2.86-10.18,5.57Q945.29,716.77,938.89,716.93ZM952,709q5.52-3.44,11.08-7.05,6.61.39,13.26.57-5.61,3.33-11.18,6.5C960.78,709.06,956.4,709,952,709Zm27.58-6.42q6.38.12,12.8.05-5.43,3-10.84,5.79-6.39.36-12.76.5Q974.21,705.79,979.6,702.55Zm3-1.8q5.48-3.33,10.93-6.79,6.63.36,13.28.51-5.47,3.19-10.93,6.22Q989.2,700.83,982.58,700.75Zm27.73-6.22q6.09.09,12.21,0-5.34,2.85-10.65,5.55c-4,.23-8.08.39-12.11.51Q1005,697.63,1010.31,694.53Zm3-1.78q12.5-7.44,25.19-15.69c132.56-86.42,253.93-226.17,351.46-338.45l7.4-8.52q7.11,7.79,14.32,15.42C1316.39,454.1,1200.74,582,1073.6,664.37q-23.91,15.5-47.58,28.29C1021.77,692.75,1017.53,692.79,1013.31,692.75Zm61.28-26.85c127.29-82.49,243-210.41,338.34-319.06q7,7.4,14.1,14.66c-90.71,101.83-197.77,214.46-316,291a697.23,697.23,0,0,1-69.29,39.6q-5.87.33-11.71.5Q1052.16,680.43,1074.59,665.9Zm339.55-320.44,14.4-16.43q7.15,7.32,14.43,14.5-7.29,8.25-14.72,16.6Q1421.14,352.87,1414.14,345.46Zm30.13-.65q7.07,7,14.21,13.82-7.49,8.34-15.1,16.74-7-6.9-13.86-13.93Q1437,353.07,1444.27,344.81Zm1.21-1.36q7.35-8.32,14.54-16.5,7.23,6.89,14.58,13.65-7.36,8.28-14.9,16.68Q1452.53,350.42,1445.48,343.45Zm30.46-1.62q7.15,6.6,14.41,13.09-7.55,8.35-15.28,16.81-7.07-6.54-14.06-13.19Q1468.54,350.14,1475.94,341.83Zm15.78,14.29q7.13,6.35,14.37,12.59-7.77,8.43-15.71,16.93-7-6.28-14-12.68Q1484.17,364.5,1491.72,356.12Zm15.75,13.78q7.14,6.15,14.39,12.22-5.19,5.52-10.46,11.05c-1.9,2-3.81,4-5.71,6q-7-6.08-14-12.27Q1499.7,378.36,1507.47,369.9Zm1.23-1.35q7.85-8.54,15.49-17,7.36,6.1,14.82,12.12-7.85,8.52-15.91,17.11Q1515.86,374.73,1508.7,368.55Zm16.71-18.34q7.72-8.55,15.25-17,7.56,6,15.23,12-7.71,8.54-15.64,17.17Q1532.77,356.32,1525.41,350.21Zm16.46-18.36q7.61-8.55,15-17,7.74,5.88,15.62,11.7-7.58,8.55-15.38,17.21Q1549.43,337.86,1541.87,331.85Zm16.2-18.33q7.52-8.55,14.77-16.9,7.92,5.73,16,11.41-7.42,8.52-15.1,17.2Q1565.83,319.4,1558.07,313.52Zm16-18.28q7.38-8.49,14.51-16.76,8.09,5.5,16.29,11-7.3,8.49-14.83,17.16Q1582,301,1574,295.24Zm15.71-18.15q7.26-8.44,14.26-16.6,8.22,5.26,16.59,10.53-7.15,8.43-14.57,17.08Q1597.81,282.61,1589.75,277.09Zm15.45-18,14-16.41q8.4,5,16.86,9.93-7,8.38-14.32,17Q1613.43,264.36,1605.2,259.1Zm15.26-17.84,3.06-3.59,10.66-12.47,17.11,9.24q-6.86,8.24-14,16.75Q1628.72,246.15,1620.46,241.26Zm14.93-17.48q6.93-8.1,13.5-15.75,8.64,4.17,17.33,8.4-6.72,8.13-13.75,16.58Zm14.73-17.17q6.86-8,13.31-15.38,8.67,3.6,17.52,7.38l-3,3.57L1667.41,215Q1658.74,210.76,1650.12,206.61Zm14.57-16.83q6.75-7.74,13.07-14.85,8.76,3,17.68,6.17-6.39,7.71-13.28,16.05Q1673.34,193.39,1664.69,189.78Zm14.39-16.32q6.69-7.5,12.88-14.21,8.8,2.22,17.77,4.71-6.24,7.46-13,15.65Q1687.8,176.43,1679.08,173.46Zm14.29-15.73c4.44-4.78,8.69-9.25,12.73-13.35q8.79,1.34,17.73,3-6.09,7.06-12.81,15.06Q1702.13,160,1693.37,157.73Zm14.32-14.95c4.53-4.55,8.8-8.65,12.8-12.24q8.58.32,17.27,1-5.9,6.51-12.56,14.22Q1716.38,144.12,1707.69,142.78Zm13.93-15.67c-.59.51-1.19,1-1.79,1.58q-8-.28-15.95-.24,6.61-4.45,13.3-8.51,7.54-1.09,15.18-1.84Q1727,122.45,1721.62,127.11Zm-3.73,3.33q-5.85,5.34-12.43,12-8.67-1.3-17.2-2.28c4.28-3.6,8.34-6.74,12.15-9.38l.77-.52C1706.71,130.2,1712.28,130.27,1717.89,130.44Zm-32.1,9.45q-8.41-.91-16.68-1.52c3.08-2,6-3.79,8.87-5.27,1.35-.7,2.71-1.4,4.07-2.08q7.86-.51,15.85-.68C1694.09,133.06,1690.05,136.26,1685.79,139.89Zm-1.9,1.64c-3.86,3.35-7.89,7.06-12.09,11.09q-8.65-1.91-17.14-3.53,6.25-5.09,12-9.06Q1675.19,140.61,1683.89,141.53Zm-31.55,7.12q-8.38-1.58-16.62-2.88a121.28,121.28,0,0,1,11.35-6.64q8.28.18,16.71.7Q1658.28,143.75,1652.34,148.65Zm-1.81,1.51q-5.73,4.8-11.85,10.44-8.49-2.5-16.8-4.79,6-4.73,11.62-8.55Q1641.93,148.57,1650.53,150.16Zm-30.81,5.06q-8.17-2.22-16.18-4.22c3.76-2.4,7.41-4.53,11-6.35q8.12,1,16.39,2.21Q1625.48,150.64,1619.72,155.22Zm-1.75,1.41q-5.73,4.62-11.76,10-8.26-3.1-16.35-6,6-4.51,11.59-8.24Q1609.63,154.39,1618,156.63Zm-30.11,3.24q-7.87-2.82-15.57-5.49,5.74-3.52,11.22-6.23,7.7,1.69,15.56,3.62Q1593.6,155.46,1587.86,159.87Zm-1.71,1.32q-5.78,4.5-11.81,9.69-8-3.66-15.81-7.22,6-4.4,11.76-8Q1578.14,158.32,1586.15,161.19Zm-29.48,1.63q-7.39-3.34-14.7-6.61c4-2.36,7.94-4.42,11.73-6.18q7.14,2.34,14.44,4.85Q1562.52,158.5,1556.67,162.82Zm-1.68,1.24q-5.87,4.4-12,9.46l-15-8.26q6.21-4.38,12.08-7.92Q1547.46,160.66,1555,164.06Zm-28.88.18-13.78-7.59q6.38-3.53,12.39-6.1,6.58,2.89,13.24,5.86Q1532.14,160,1526.11,164.24Zm-1.64,1.17q-6,4.32-12.21,9.3c-4.92-3.16-9.67-6.23-14.29-9.23q6.42-4.32,12.49-7.79Zm-28.14-1c-4.45-2.89-8.74-5.71-12.91-8.46a130.47,130.47,0,0,1,13-5.93c.69.35,1.38.69,2.07,1.07l10.1,5.58Q1502.64,160.14,1496.33,164.41Zm-1.63,1.11q-6.12,4.22-12.53,9.18-6.84-5.05-13.52-10.11,6.64-4.29,12.95-7.67Q1488.1,161.23,1494.7,165.52Zm-27.59-2.1q-6-4.54-11.89-9.07a125.28,125.28,0,0,1,13.19-5.58,81.31,81.31,0,0,1,7.72,4.53l3.76,2.49Q1473.65,159.18,1467.11,163.42Zm-1.62,1.06q-6.27,4.16-12.84,9.09-6.4-5.4-12.67-10.79,6.87-4.25,13.41-7.53c.12.09.24.17.36.27Q1459.55,160,1465.49,164.48Zm-26.94-2.94q-3-2.58-6-5.18c-1.7-1.49-3.42-2.9-5.14-4.24a121.19,121.19,0,0,1,13.07-5.11,85.94,85.94,0,0,1,11.24,7Q1445.3,157.34,1438.55,161.54Zm-7.17-3.81c1.84,1.61,3.71,3.22,5.57,4.83q-6.45,4.09-13.19,9c-4-3.75-7.9-7.52-11.78-11.29q6.94-4.12,13.59-7.28Q1428.5,155.21,1431.38,157.73ZM1410.61,159l-.32-.31a118.79,118.79,0,0,0-10.48-9.12,117.82,117.82,0,0,1,12.91-4.74,88.91,88.91,0,0,1,11.19,7Q1417.4,154.9,1410.61,159Zm-1.61,1q-6.62,4-13.52,8.93-3.76-4-7.49-7.94-1.77-1.89-3.56-3.67,6.88-3.93,13.48-6.9A117.18,117.18,0,0,1,1409,159.93Zm-25.91-4a123.85,123.85,0,0,0-10.72-9.33,111.87,111.87,0,0,1,12.79-4.38,90.89,90.89,0,0,1,11.07,6.9Q1389.78,152.07,1383.09,155.92Zm-1.64,1q-6.69,3.93-13.65,8.75l-2.11-2.42q-4.26-4.95-8.59-9.25,6.74-3.72,13.35-6.54A120.43,120.43,0,0,1,1381.45,156.87Zm-25.7-4.23a123.72,123.72,0,0,0-10.65-9.24,110.16,110.16,0,0,1,12.66-4.11,93.59,93.59,0,0,1,11,6.87Q1362.32,149,1355.75,152.64Zm-1.66.93q-6.71,3.81-13.54,8.44-5.27-6.27-10.61-11.56a144.06,144.06,0,0,1,13.21-6.25A120.11,120.11,0,0,1,1354.09,153.57Zm-25.5-4.43A126.66,126.66,0,0,0,1318,140a108.37,108.37,0,0,1,12.49-3.88,94,94,0,0,1,10.93,6.84Q1335.07,145.64,1328.59,149.14Zm-1.67.92q-6.64,3.67-13.4,8.16c-3.49-4.14-7-7.94-10.56-11.44a141.23,141.23,0,0,1,13.07-6A123.08,123.08,0,0,1,1326.92,150.06Zm-25.31-4.61a128.47,128.47,0,0,0-10.52-9.06,103.06,103.06,0,0,1,12.36-3.69,95.24,95.24,0,0,1,10.87,6.81Q1308,142.07,1301.61,145.45Zm-1.69.92q-6.59,3.57-13.26,7.93-5.21-6.13-10.51-11.34a136.26,136.26,0,0,1,12.92-5.81A125,125,0,0,1,1299.92,146.37Zm-25.14-4.73a129.16,129.16,0,0,0-10.47-9,101.1,101.1,0,0,1,12.21-3.54,97.24,97.24,0,0,1,10.84,6.81Q1281.11,138.37,1274.78,141.64Zm-1.7.89q-6.51,3.47-13.12,7.74c-3.46-4.06-7-7.83-10.47-11.27a129.87,129.87,0,0,1,12.78-5.65A127.35,127.35,0,0,1,1273.08,142.53Zm-25-4.85a132.41,132.41,0,0,0-10.44-9,101.53,101.53,0,0,1,12.1-3.4,98,98,0,0,1,10.78,6.8A134.12,134.12,0,0,0,1248.11,137.68Zm-1.72.88c-71.57,37.56-150.67,149.68-239.81,276-54.7,77.54-113.94,161.52-176.94,235q-7.08-3.37-14.09-7c58.07-70.95,112.82-150.24,163.63-223.82,53.6-77.64,104.23-151,151.77-205,40-45.52,74-73,104.66-84.31A126.85,126.85,0,0,1,1246.39,138.56ZM977.68,417.7c-50.85,73.65-105.67,153-163.78,224Q806.84,638,799.83,634c53.34-68.1,103.8-142.75,150.83-212.35,53.82-79.63,104.66-154.85,152.53-210.22,46.63-53.94,85.23-83,120-90.12a100.12,100.12,0,0,1,10.74,6.81C1157.6,157.19,1073.37,279.11,977.68,417.7Zm-165,225.44q-5.58,6.81-11.2,13.5-7-3.45-13.94-7.17,5.58-6.94,11.11-14Q805.68,639.44,812.72,643.14ZM786,648.6q-7-3.78-13.92-7.84,5.51-7.15,11-14.41l9.29,5.43q2.4,1.41,4.82,2.79Q791.54,641.64,786,648.6ZM784.79,650q-5.55,6.9-11.14,13.7-6.93-3.53-13.79-7.31,5.55-7,11-14.21C775.53,644.91,780.15,647.53,784.79,650Zm-12.33,15.14q-5.52,6.68-11.08,13.25c-4.58-2.17-9.13-4.4-13.67-6.75q5.52-6.84,11-13.8Q765.56,661.66,772.46,665.18Zm-12.3,14.68Q754.61,686.4,749,692.8c-4.52-2-9-4.07-13.5-6.22q5.54-6.66,11-13.45Q753.32,676.63,760.16,679.86Zm-12.4,14.38q-5.53,6.32-11.12,12.51-6.69-2.7-13.35-5.66,5.54-6.47,11-13.07C738.79,690.17,743.26,692.26,747.76,694.24Zm-12.42,13.94q-5.55,6.14-11.14,12.12-6.59-2.43-13.16-5.12,5.54-6.25,11-12.65C726.47,704.51,730.9,706.38,735.34,708.18Zm-12.48,13.56q-5.57,5.93-11.15,11.68-6.5-2.14-13-4.57,5.52-6,11-12.23Q716.3,719.31,722.86,721.74Zm-12.57,13.13q-5.53,5.7-11.12,11.21-6.39-1.86-12.77-4,5.54-5.82,11-11.79Q703.84,732.71,710.29,734.87Zm-12.6,12.67q-5.54,5.44-11.11,10.72c-4.18-1.06-8.36-2.19-12.54-3.42q5.51-5.57,11-11.3Q691.35,745.67,697.69,747.54ZM685,759.73q-5.5,5.19-11,10.2c-1.31-.28-2.61-.54-3.91-.83-2.81-.63-5.61-1.31-8.41-2q5.49-5.31,10.94-10.78Q678.82,758.15,685,759.73Zm-15.36,11.14c.87.2,1.75.38,2.62.56q-5.5,5-11,9.69-6-1-12-2.27,5.47-5,10.92-10.29C663.3,769.38,666.48,770.16,669.66,770.87ZM659.5,782.6l-.57.49q-5.2,4.39-10.36,8.58-5.9-.7-11.78-1.68,5.41-4.74,10.81-9.68Q653.52,781.57,659.5,782.6Zm-12.94,10.68q-5.35,4.31-10.68,8.37-5.75-.42-11.49-1.09,5-4.12,10-8.43c.21-.19.42-.38.64-.56Q640.78,792.55,646.56,793.28Zm-12.89,10.06q-5.22,3.95-10.42,7.66-5.58-.13-11.18-.51,5.17-4.05,10.36-8.3Q628,802.88,633.67,803.34Zm-13,9.48q-5.1,3.6-10.19,7-5.43.13-10.84.06c3.39-2.49,6.78-5,10.18-7.66C613.49,812.49,617.1,812.69,620.71,812.82Zm-13.08,8.91q-4.92,3.22-9.82,6.25c-3.46.27-6.93.47-10.38.6q4.89-3.36,9.81-6.91Q602.43,821.81,607.63,821.73Zm-9.49,8.08c3-.24,6-.51,9-.85q-4.2,2.26-8.38,4.4c-3,.55-6,1.06-9.06,1.5C592.48,833.22,595.31,831.55,598.14,829.81Zm3.46-2.16c3.1-1.94,6.2-3.92,9.31-6q4.92-.13,9.86-.45c-3.11,1.85-6.21,3.62-9.31,5.35Q606.52,827.2,601.6,827.65Zm23-6.7c3-.23,6-.5,9-.84-2.81,1.49-5.61,2.95-8.4,4.34-3,.55-6.08,1.06-9.12,1.5Q620.3,823.52,624.56,821Zm3.51-2.14q4.66-2.88,9.35-5.92c3.3-.09,6.59-.23,9.88-.44q-4.68,2.73-9.32,5.27C634.67,818.14,631.37,818.51,628.07,818.81Zm23.08-6.62q4.33-.33,8.65-.79-4.27,2.22-8.54,4.31-4.31.75-8.61,1.37Q646.9,814.71,651.15,812.19Zm3.66-2.19q4.66-2.84,9.35-5.83,4.86-.13,9.75-.44c-3.16,1.8-6.31,3.53-9.46,5.22C661.24,809.35,658,809.71,654.81,810ZM678,803.45q4.37-.33,8.75-.8-4.34,2.21-8.66,4.28c-2.86.49-5.72.93-8.59,1.34Q673.79,805.93,678,803.45Zm3.68-2.16c3.13-1.87,6.28-3.8,9.42-5.78,3.27-.09,6.53-.24,9.81-.44q-4.8,2.68-9.58,5.2C688.14,800.67,684.93,801,681.72,801.29Zm23.42-6.5c3-.22,5.89-.49,8.84-.8q-4.38,2.19-8.76,4.24c-2.89.5-5.78.94-8.66,1.35Q700.85,797.25,705.14,794.79Zm3.78-2.17q4.82-2.82,9.66-5.83c3.29-.09,6.59-.23,9.88-.43q-4.92,2.71-9.83,5.25C715.39,792,712.15,792.34,708.92,792.62Zm23.8-6.54c3-.22,6-.49,8.95-.8q-4.51,2.22-9,4.3c-2.93.49-5.86.95-8.78,1.35C726.82,789.37,729.77,787.74,732.72,786.08Zm3.67-2.07c3.27-1.88,6.55-3.83,9.83-5.82q5-.13,10-.44-5,2.7-10,5.24Q741.33,783.58,736.39,784Zm24.18-6.55c3-.22,6.07-.5,9.1-.81q-4.59,2.22-9.21,4.31c-3,.49-6,.95-8.92,1.36C754.54,780.75,757.55,779.12,760.57,777.46Zm3.84-2.14q4.94-2.79,9.9-5.75c3.42-.1,6.83-.27,10.23-.48q-5,2.67-10.11,5.21l-1.07.13C770.37,774.78,767.39,775.06,764.41,775.32Zm24.66-6.54c3.07-.24,6.13-.51,9.19-.83q-4.66,2.22-9.32,4.31-4.5.74-9,1.34Q784.53,771.26,789.07,768.78Zm3.81-2.1q5-2.76,9.93-5.67,5.21-.16,10.41-.5c-3.39,1.77-6.78,3.47-10.17,5.13l-1.5.19C798.66,766.16,795.77,766.43,792.88,766.68Zm24.84-6.49q4.75-.37,9.52-.87-4.68,2.19-9.35,4.24c-3.12.5-6.24,1-9.35,1.39Q813.12,762.64,817.72,760.19Zm4-2.16c3.35-1.82,6.7-3.68,10.06-5.61q5.36-.2,10.73-.56c-3.42,1.75-6.83,3.43-10.23,5.07l-1.87.23C827.5,757.5,824.61,757.78,821.71,758Zm25.43-6.53c3.26-.26,6.52-.56,9.79-.92-3.15,1.45-6.28,2.84-9.41,4.2q-4.83.78-9.63,1.44Q842.51,753.93,847.14,751.5Zm4.09-2.17q5-2.69,10.09-5.53c3.6-.15,7.21-.34,10.82-.59l.15,0q-5.1,2.58-10.18,5l-2.18.28C857,748.78,854.13,749.07,851.23,749.33Zm26-6.52c3.37-.28,6.73-.62,10.1-1-3,1.38-6.11,2.71-9.15,4-3.36.56-6.7,1.08-10,1.55Q872.63,745.16,877.19,742.81Zm4.26-2.22q4.95-2.61,9.94-5.39,4.59-.21,9.2-.52l2.08-.16q-5,2.47-10,4.81l-2.49.32C887.28,740,884.36,740.31,881.45,740.59Zm26.1-6.48q5.07-.45,10.14-1c-3,1.32-6,2.6-8.91,3.85q-5.12.87-10.18,1.6Q903.07,736.39,907.55,734.11Zm4.38-2.25q4.88-2.52,9.77-5.19,3.79-.2,7.61-.46c1.25-.08,2.51-.19,3.76-.29q-4.91,2.39-9.8,4.63l-1.9.26C918.22,731.2,915.08,731.55,911.93,731.86Zm25.75-6.34q5.18-.46,10.37-1.08-4.26,1.88-8.52,3.63c-3.56.62-7.12,1.2-10.67,1.71C931.81,728.4,934.75,727,937.68,725.52Zm4.56-2.28q4.82-2.44,9.61-5c2.17-.12,4.35-.25,6.52-.41,1.68-.11,3.37-.26,5-.4-3.21,1.53-6.41,3-9.6,4.44C950,722.4,946.1,722.84,942.24,723.24Zm13.45-7q4.89-2.66,9.77-5.41,6.09-.1,12.21-.38-4.81,2.46-9.6,4.78Q961.88,715.79,955.69,716.2Zm26.35-6q3-.16,5.92-.37l4.59-.35q-4.35,2-8.68,3.92-5.32.72-10.64,1.29Q977.63,712.49,982,710.19Zm4-2.08q5.13-2.72,10.28-5.58,5.75-.12,11.52-.39-5.24,2.61-10.43,5.06Q991.69,707.72,986,708.11Zm26.3-6.21c1.82-.11,3.63-.21,5.44-.34,1.53-.11,3.06-.22,4.59-.35q-4.87,2.2-9.74,4.3-5,.63-9.9,1.16Q1007.51,704.35,1012.32,701.9Zm4.13-2.12q5-2.58,10-5.31,5.52-.12,11-.37-5.08,2.46-10.14,4.81Q1021.92,699.42,1016.45,699.78Zm25.85-5.93c2.06-.11,4.11-.24,6.17-.39,1.17-.08,2.35-.19,3.53-.28q-4.73,2.09-9.42,4.05-4.77.62-9.53,1.11Q1037.67,696.15,1042.3,693.85Zm4.16-2.08A710.84,710.84,0,0,0,1112,654c118.41-76.61,225.54-189.3,316.32-291.19q6.87,7,13.84,13.91c-27.82,30.61-57.2,61.9-88.11,92.76-72.76,72.63-139.5,128.31-204,170.2A703.91,703.91,0,0,1,1057,691C1053.49,691.26,1050,691.54,1046.46,691.77ZM1151,641.2c64.65-42,131.49-97.72,204.33-170.44,30.93-30.88,60.31-62.17,88.13-92.77q6.78,6.67,13.65,13.22c-77.72,83.45-167.92,170.25-265.77,234.37Q1130.7,665.32,1072,689.36q-4.71.58-9.39,1.06A711.57,711.57,0,0,0,1151,641.2Zm293.69-264.56q7.65-8.42,15.11-16.75,7,6.66,14.06,13.18-7.68,8.37-15.51,16.81Q1451.47,383.31,1444.68,376.64Zm30.51-2.34q6.91,6.39,13.94,12.67-7.89,8.41-16,16.86-6.81-6.29-13.53-12.7Q1467.51,382.7,1475.19,374.3Zm15.3,13.89q6.93,6.18,13.94,12.26Q1496.2,409,1488,417.32q-6.78-6.06-13.5-12.25Q1482.58,396.63,1490.49,388.19Zm15.33,13.44q6.93,6,14,11.85-8.37,8.44-16.94,16.86-6.76-5.85-13.45-11.81Q1497.55,410.21,1505.82,401.63Zm1.26-1.32c1.88-1.95,3.75-3.91,5.64-5.89q5.31-5.58,10.54-11.14,7.17,6,14.44,11.85-8.22,8.52-16.65,17.05Q1514,406.3,1507.08,400.31ZM1524.51,382q8.07-8.61,15.92-17.14,7.39,5.94,14.9,11.78-8.07,8.59-16.36,17.21Q1531.69,387.93,1524.51,382Zm17.15-18.48q8-8.64,15.67-17.21,7.61,5.88,15.33,11.66-7.92,8.65-16.08,17.34Q1549.08,369.42,1541.66,363.48Zm16.89-18.56q7.82-8.67,15.41-17.24,7.8,5.76,15.72,11.47-7.77,8.69-15.78,17.43Q1566.18,350.79,1558.55,344.92Zm16.62-18.61q7.68-8.69,15.13-17.23,8,5.63,16.09,11.21-7.62,8.7-15.49,17.5Q1583,332.08,1575.17,326.31Zm16.33-18.61q7.56-8.68,14.86-17.19,8.16,5.44,16.45,10.86-7.49,8.7-15.21,17.54Q1599.49,313.33,1591.5,307.7Zm16.06-18.58q7.43-8.67,14.59-17.12,8.31,5.21,16.76,10.44-7.32,8.69-14.91,17.54Q1615.71,294.57,1607.56,289.12Zm15.78-18.53q7.31-8.62,14.35-17,8.5,5,17,9.92-7.17,8.67-14.64,17.55Q1631.65,275.81,1623.34,270.59Zm15.56-18.47q7.15-8.53,14-16.8l17.28,9.31q-7,8.56-14.28,17.41Q1647.25,257,1638.9,252.12Zm15.21-18.23q7-8.49,13.79-16.64,8.71,4.25,17.5,8.56-6.84,8.53-14,17.38Zm15-18.08,10.3-12.47,3.29-4q8.76,3.73,17.68,7.65-6.7,8.48-13.81,17.35Q1677.8,220.06,1669.1,215.81Zm14.8-17.92,13.37-16.14q8.84,3.18,17.82,6.56-6.55,8.37-13.55,17.23Q1692.65,201.64,1683.9,197.89Zm14.6-17.63q6.87-8.26,13.16-15.76,8.88,2.49,17.91,5.24-6.4,8.23-13.31,17.07Q1707.3,183.42,1698.5,180.26ZM1713,163q6.81-8.1,13-15.22,8.86,1.68,17.87,3.68l-1.87,2.41-11.14,14.37Q1721.78,165.45,1713,163Zm14.33-16.81q6.79-7.84,12.78-14.43,8.71.75,17.56,1.87c-3.93,5-8.12,10.44-12.63,16.25Q1736.08,147.86,1727.28,146.16ZM1741.6,130c1.22-1.33,2.43-2.63,3.6-3.87q4.59-4.87,9.22-9.49,8.28-.25,16.68-.1-2.47,3-4.95,6.15c-2.3,2.91-4.72,6-7.23,9.21Q1750.21,130.82,1741.6,130Zm14.7-15.22q6.39-6.28,12.85-12.08,7.71-1.21,15.51-2-6.09,6.8-12.1,14.09Q1764.38,114.62,1756.3,114.82Zm15.36-14.31q6.22-5.48,12.5-10.49,7-2.08,14.11-3.77-5.91,6-11.78,12.44Q1779,99.41,1771.66,100.51Zm19.15-17.93q-3.76,2.81-7.5,5.79c-2.81.83-5.6,1.72-8.4,2.65Q1782.82,86.49,1790.81,82.58ZM1767,95.74c4.17-1.54,8.36-3,12.56-4.32q-5.62,4.62-11.19,9.6c-4.44.71-8.85,1.51-13.24,2.43Q1761,99.42,1767,95.74Zm-8.71,3.4q-3.93,2.58-7.83,5.32-4.37,1-8.7,2.1C1747.2,103.9,1752.71,101.41,1758.26,99.14Zm-24.72,11.55c4.31-1.26,8.65-2.4,13-3.45q-5.83,4.22-11.61,8.79-6.9.61-13.74,1.51Q1727.34,114,1733.54,110.69Zm-8.79,2.7c-2.74,1.55-5.47,3.16-8.2,4.8-3.1.46-6.19.94-9.27,1.49Q1716,116.25,1724.75,113.39Zm-25.86,9.76c4.51-.93,9-1.75,13.61-2.49q-6,3.74-11.89,7.8c-4.82.06-9.6.23-14.36.48Q1692.54,125.9,1698.89,123.15Zm-8.82,2q-4.27,2-8.51,4.12-4.85.32-9.65.76Q1680.91,127.28,1690.07,125.11Zm-26.81,7.61q7-.84,14.19-1.39l-.31.16a108.57,108.57,0,0,0-11,6.68q-7.83-.51-15.52-.76c1.66-.75,3.3-1.43,4.91-2Q1659.39,134,1663.26,132.72Zm-8.86,1.17a78.17,78.17,0,0,0-7.75,3.41c-3.77-.08-7.51-.1-11.23-.08Q1644.81,135.3,1654.4,133.89Zm-26.81,5.27q7.79-.19,15.7-.09-4.93,2.72-10.19,6.28-7.89-1.22-15.61-2.18A80.45,80.45,0,0,1,1627.59,139.16Zm-17,.79h0c3.65-.25,7.33-.44,11-.59-2.44,1-4.94,2.13-7.48,3.42-4.3-.5-8.56-1-12.78-1.35A57.31,57.31,0,0,1,1610.63,140Zm-14.15,2.87q7.35.62,14.87,1.46-5,2.7-10.21,6.13-7.56-1.87-15-3.54A90.24,90.24,0,0,1,1596.48,142.82Zm-8.28-.62c1.25.08,2.52.19,3.78.28q-4.24,1.61-8.66,3.76-6-1.32-11.83-2.51A57.56,57.56,0,0,1,1588.2,142.2Zm-20.75,2.58q6.58,1.29,13.3,2.75-5.22,2.7-10.65,6.1-7-2.43-13.95-4.71A93.77,93.77,0,0,1,1567.45,144.78Zm-3.86-.71a105.86,105.86,0,0,0-10.06,4c-3.24-1.06-6.46-2.11-9.64-3.12l-.76-.22A59.69,59.69,0,0,1,1563.59,144.07Zm-20.26,2.59,7.81,2.52q-5.54,2.67-11.28,6.09-6.45-2.88-12.83-5.69a93.27,93.27,0,0,1,12.28-4C1540.66,145.88,1542,146.24,1543.33,146.66Zm-8-1.9a101.37,101.37,0,0,0-10.62,3.82l-3.1-1.37a66.42,66.42,0,0,0-6.42-2.42A63,63,0,0,1,1535.37,144.76Zm-14.45,4.12,1.55.68q-5.84,2.59-12,6.06l-11.07-6.12-.66-.35a94.31,94.31,0,0,1,12.47-3.61A62.24,62.24,0,0,1,1520.92,148.88Zm-13.86-4.22a102.2,102.2,0,0,0-10.48,3.37,69.51,69.51,0,0,0-9.25-3.84A65.84,65.84,0,0,1,1507.06,144.66Zm-12.81,4.27a138.21,138.21,0,0,0-12.55,5.88l-4.56-3c-2.09-1.39-4.21-2.66-6.34-3.82a91.82,91.82,0,0,1,12.25-3.12A66.93,66.93,0,0,1,1494.25,148.93Zm-15.47-5.07a100.74,100.74,0,0,0-10.23,2.93,74.68,74.68,0,0,0-9-3.82A67.84,67.84,0,0,1,1478.78,143.86Zm-12.61,3.8a136.13,136.13,0,0,0-12.59,5.47,88.67,88.67,0,0,0-10.66-6.88,89.88,89.88,0,0,1,12.14-2.74A70.39,70.39,0,0,1,1466.17,147.66Zm-15.55-5.22a94.46,94.46,0,0,0-10,2.6,75.46,75.46,0,0,0-8.89-3.81A69.17,69.17,0,0,1,1450.62,142.44Zm-12.46,3.41a127.12,127.12,0,0,0-12.38,5,92.13,92.13,0,0,0-10.54-6.8,88.71,88.71,0,0,1,12-2.4A72.21,72.21,0,0,1,1438.16,145.85Zm-15.62-5.33a92.32,92.32,0,0,0-9.66,2.3,77.89,77.89,0,0,0-8.59-3.75A70.4,70.4,0,0,1,1422.54,140.52Zm-22.93-1.09a75,75,0,0,1,10.73,4.16,121.1,121.1,0,0,0-12.2,4.66,93.34,93.34,0,0,0-10.39-6.72,88.69,88.69,0,0,1,9.92-1.89C1398.32,139.55,1399,139.5,1399.61,139.43Zm-4.64-1.22a93.72,93.72,0,0,0-9.58,2,83.11,83.11,0,0,0-8.53-3.78A71.67,71.67,0,0,1,1395,138.21ZM1372,136.77a76.81,76.81,0,0,1,10.71,4.23,119.84,119.84,0,0,0-12,4.33,98.28,98.28,0,0,0-10.32-6.69,89.15,89.15,0,0,1,10.52-1.76Zm-4.72-1.28a92.78,92.78,0,0,0-9.33,1.87,81.62,81.62,0,0,0-8.36-3.77A73,73,0,0,1,1367.32,135.49Zm-22.61-1.68a77.5,77.5,0,0,1,10.61,4.25,116.12,116.12,0,0,0-11.89,4.07,99.57,99.57,0,0,0-10.25-6.64,86.47,86.47,0,0,1,11-1.64Zm-4.79-1.33c-3,.4-6.08,1-9.15,1.7a81.78,81.78,0,0,0-8.24-3.75A73.22,73.22,0,0,1,1339.92,132.48Zm-22.4-1.9h0a79.9,79.9,0,0,1,10.53,4.28,111.71,111.71,0,0,0-11.75,3.85,100.33,100.33,0,0,0-10.15-6.61,86.66,86.66,0,0,1,10.8-1.48Zm-4.81-1.37c-3,.36-6,.89-9,1.56a83,83,0,0,0-8.11-3.74A73.18,73.18,0,0,1,1312.71,129.21ZM1301,131.42a109.21,109.21,0,0,0-11.6,3.67,99.14,99.14,0,0,0-10.08-6.58,84.87,84.87,0,0,1,11.24-1.37A78.79,78.79,0,0,1,1301,131.42Zm-15.31-5.7a85.59,85.59,0,0,0-8.84,1.44,84.83,84.83,0,0,0-8-3.73A74,74,0,0,1,1285.66,125.72Zm-11.61,2.07a107.77,107.77,0,0,0-11.45,3.52,102.48,102.48,0,0,0-10-6.56,82.46,82.46,0,0,1,11.13-1.26A81.31,81.31,0,0,1,1274.05,127.79ZM1258.81,122a85.58,85.58,0,0,0-8.72,1.34,87.5,87.5,0,0,0-7.94-3.73A74.34,74.34,0,0,1,1258.81,122Zm-11.51,2a104.44,104.44,0,0,0-11.36,3.38,102.27,102.27,0,0,0-10-6.55,82.72,82.72,0,0,1,11.06-1.16A82,82,0,0,1,1247.3,124Zm-15.23-5.82c-2.85.27-5.72.68-8.62,1.25-2.59-1.38-5.19-2.62-7.82-3.71A74.15,74.15,0,0,1,1232.07,118.18Zm-11.4,1.85c-34.6,7.93-72.91,37.09-118.86,90.24C1053.87,265.73,1003,341,949.16,420.66,902.09,490.3,851.6,565,798.23,633.12c-1.69-1-3.36-1.93-5-2.91l-9.11-5.32c48.76-64.92,95-134.84,138.37-200.34,54-81.61,105-158.7,153.16-215.39,53.15-62.57,96-92.3,134.8-93.45A82.53,82.53,0,0,1,1220.67,120ZM894.44,427.42c54.16-83.59,105.31-162.55,153.75-220.58,54-64.73,97.59-95,137.16-95.26a74.45,74.45,0,0,1,20.11,2.6c-38,3.42-79.94,33.42-131.24,93.8C1026,264.75,975,341.89,920.93,423.55,877.57,489.08,831.27,559,782.5,624q-7.29-4.23-14.52-8.37C812.39,554.08,854.66,488.84,894.44,427.42ZM766.91,617.08q7.22,4.14,14.49,8.36-5.46,7.24-11,14.41l-.21-.13q-7-4.1-13.92-8.11Q761.64,624.38,766.91,617.08Zm-11.69,16q7,4.06,14.09,8.21h0q-5.51,7.17-11.07,14.23c-3.67-2-7.34-4.14-11-6.29l-2.84-1.67Q749.85,640.37,755.22,633.08Zm-11.9,16,3,1.76q5.37,3.18,10.77,6.18-5.5,7-11.05,13.84c-4.58-2.39-9.15-4.84-13.69-7.41Q737.86,656.27,743.32,649Zm-12.07,15.82c4.53,2.57,9.08,5,13.65,7.4q-5.52,6.82-11.07,13.51-6.8-3.32-13.54-6.9Q725.78,671.93,731.25,664.86Zm-12.11,15.46c4.48,2.38,9,4.69,13.49,6.89q-5.52,6.62-11.06,13.1c-4.48-2-9-4.12-13.4-6.33Q713.68,687.22,719.14,680.32ZM707,695.43q6.64,3.29,13.35,6.31-5.52,6.43-11.08,12.7-6.63-2.75-13.22-5.78Q701.53,702.11,707,695.43Zm-12.16,14.68q6.55,3,13.15,5.77-5.52,6.23-11.08,12.29-6.54-2.48-13-5.23Q689.37,716.6,694.83,710.11ZM682.6,724.39q6.48,2.75,13,5.22-5.52,6-11.07,11.83c-4.29-1.47-8.58-3-12.86-4.65Q677.14,730.67,682.6,724.39Zm-12.25,13.84q6.38,2.46,12.78,4.65-5.52,5.76-11.06,11.36c-4.22-1.28-8.44-2.63-12.66-4.09Q664.9,744.27,670.35,738.23Zm-12.3,13.39q6.29,2.18,12.56,4.08-5.5,5.52-11,10.84-6.21-1.6-12.43-3.5C650.8,759.3,654.43,755.48,658.05,751.62Zm-12.33,12.89q6.16,1.89,12.33,3.52-5.5,5.28-11,10.36-6.11-1.32-12.2-2.91Q640.28,770.08,645.72,764.51Zm-12.37,12.4c3.71,1,7.42,1.9,11.13,2.73l.93.2q-5.46,5-10.95,9.78-6-1-12-2.32Q628,782.2,633.35,776.91Zm-12.48,11.92q5.89,1.3,11.8,2.35-5.4,4.67-10.76,9.09-5.85-.74-11.69-1.72Q615.56,793.8,620.87,788.83Zm-12.4,11.29q5.73,1,11.48,1.76-5.3,4.32-10.55,8.41-5.68-.43-11.4-1.12Q603.22,804.76,608.47,800.12ZM596,810.83q5.58.7,11.15,1.18-5.22,4-10.4,7.8-5.56-.15-11.1-.54Q590.85,815.16,596,810.83ZM583.54,821q5.38.42,10.78.61-5.07,3.64-10.11,7.07-5.37.14-10.74,0Q578.5,825,583.54,821Zm-12.49,9.52c3.44.09,6.88.12,10.33.07q-4.89,3.27-9.74,6.31-5.16.4-10.31.6Q566.17,834.09,571.05,830.5Zm-12.53,8.92c3.24-.08,6.49-.23,9.73-.43q-4.59,2.82-9.18,5.47c-3.25.43-6.51.81-9.76,1.11Q553.92,842.59,558.52,839.42ZM521,863.4q-2.38.72-4.77,1.38,2.36-1.2,4.71-2.45c1.62-.31,3.24-.64,4.86-1Q523.35,862.4,521,863.4Zm12.68-5.61q-3.74.9-7.49,1.7c2.44-1.35,4.87-2.73,7.31-4.15,2.5-.33,5-.7,7.49-1.11C538.5,855.45,536.07,856.64,533.63,857.79Zm3.8-4.81c2.85-1.7,5.71-3.47,8.56-5.28,3-.23,5.93-.51,8.89-.85q-4.32,2.42-8.63,4.66c-1.57.29-3.14.58-4.7.84C540.18,852.58,538.8,852.78,537.43,853Zm9.18,1.32q-2.39.71-4.78,1.36c1.57-.78,3.15-1.59,4.72-2.41,1.62-.3,3.24-.63,4.86-1Q549,853.31,546.61,854.3Zm12.89-5.61c-2.54.61-5.07,1.19-7.61,1.72,2.46-1.33,4.91-2.7,7.37-4.11,2.51-.33,5-.69,7.53-1.09C564.35,846.4,561.93,847.57,559.5,848.69Zm13-3.44q-2.34.69-4.7,1.32c1.56-.76,3.11-1.56,4.67-2.35,1.61-.3,3.22-.62,4.83-.94Q574.94,844.29,572.54,845.25ZM586,839.46q-3.87.93-7.74,1.74,3.53-1.89,7.07-3.88,3.76-.48,7.54-1.08Q589.46,837.91,586,839.46Zm13.89-3.68c-1.76.52-3.53,1-5.29,1.5,1.36-.67,2.73-1.35,4.09-2,1.6-.29,3.21-.6,4.81-.92C602.32,834.82,601.11,835.3,599.91,835.78Zm12.39-5.26c-2.57.61-5.13,1.16-7.7,1.69,2.36-1.24,4.71-2.5,7.07-3.8,2.51-.33,5-.68,7.55-1.08C616.91,828.43,614.61,829.49,612.3,830.52Zm12.5-3.23c-1.23.35-2.47.68-3.7,1l4-2c1.32-.24,2.65-.5,4-.76C627.68,826.17,626.24,826.73,624.8,827.29Zm13.27-5.48c-2.32.53-4.63,1-6.94,1.49,2.35-1.22,4.71-2.46,7.07-3.75,2.35-.3,4.71-.62,7.07-1Q641.67,820.23,638.07,821.81Zm13.48-3.43c-1.27.36-2.53.7-3.79,1,1.35-.63,2.69-1.27,4-1.92l3.9-.72C654.31,817.31,652.93,817.86,651.55,818.38Zm13.31-5.4c-2.34.52-4.67,1-7,1.49,2.33-1.18,4.67-2.4,7-3.65,2.35-.3,4.69-.61,7-1C669.54,810.92,667.2,812,664.86,813Zm13.66-3.43c-1.3.36-2.6.72-3.91,1.06l3.92-1.83,3.74-.67C681,808.59,679.77,809.08,678.52,809.55Zm13.34-5.34c-2.34.52-4.67,1-7,1.47,2.35-1.17,4.7-2.39,7-3.62,2.37-.3,4.73-.62,7.1-1Q695.43,802.7,691.86,804.21Zm13.73-3.37c-1.29.35-2.57.7-3.87,1,1.35-.61,2.69-1.23,4-1.86,1.3-.22,2.59-.46,3.89-.7Q707.62,800.09,705.59,800.84Zm13.49-5.31c-2.34.51-4.69,1-7,1.45,2.37-1.16,4.73-2.36,7.1-3.58,2.38-.29,4.77-.61,7.15-1C723.89,793.5,721.49,794.53,719.08,795.53Zm13.85-3.33-3.76,1,4-1.8,3.92-.69Zm13.8-5.31q-3.59.76-7.16,1.44,3.64-1.76,7.31-3.62,3.66-.45,7.32-1Q750.47,785.36,746.73,786.89Zm13.88-3.28-3.3.82c1.33-.59,2.67-1.18,4-1.79l3.75-.64C763.58,782.55,762.09,783.08,760.61,783.61Zm14.07-5.32q-3.52.74-7,1.4,3.75-1.79,7.48-3.64c2.44-.3,4.89-.62,7.33-1C779.86,776.19,777.27,777.25,774.68,778.29Zm14.18-3.3c-1.24.32-2.47.61-3.71.91,1.43-.61,2.87-1.24,4.3-1.88l4.1-.7C792,773.89,790.42,774.45,788.86,775Zm14.51-5.39c-2.46.51-4.93,1-7.39,1.44q3.87-1.8,7.76-3.71c2.57-.31,5.15-.64,7.72-1Q807.41,768,803.37,769.6Zm14.49-3.31-3.92,1q2.37-1,4.74-2c1.46-.24,2.93-.49,4.39-.75C821.33,765.08,819.6,765.69,817.86,766.29Zm15-5.47c-2.57.53-5.14,1-7.71,1.5,2.56-1.18,5.13-2.38,7.7-3.62q3.93-.48,7.88-1C838.06,758.74,835.44,759.8,832.82,760.82Zm15.58-3.57c-1.46.37-2.93.74-4.39,1.09l4.35-1.86c1.49-.24,3-.5,4.49-.77C851.37,756.24,849.88,756.75,848.4,757.25Zm15-5.41q-4.07.85-8.12,1.6,3.81-1.73,7.65-3.54c2.71-.34,5.44-.71,8.17-1.11C868.48,749.83,865.91,750.86,863.35,751.84Zm15.43-3.53-4.45,1.1,4.32-1.82c1.52-.25,3-.52,4.55-.8C881.73,747.31,880.26,747.81,878.78,748.31Zm15.38-5.51c-2.79.59-5.58,1.14-8.35,1.67q3.69-1.65,7.39-3.37c2.74-.35,5.48-.74,8.24-1.15C899,740.92,896.58,741.88,894.16,742.8ZM910.54,739q-2.92.75-5.85,1.45l3.9-1.61c1.68-.29,3.36-.58,5-.89C912.61,738.28,911.57,738.62,910.54,739Zm14.56-5.18c-3,.64-6.05,1.26-9.06,1.83,2.4-1,4.81-2.13,7.21-3.23q4.34-.57,8.68-1.23C929.65,732.06,927.37,732.93,925.1,733.79Zm15.49-3.63-3.52.89,3-1.22,3.15-.55Zm14.5-5.08c-2.47.52-4.92,1-7.37,1.5,2.2-1,4.4-1.93,6.61-2.93,2.43-.32,4.87-.68,7.31-1C959.45,723.45,957.27,724.27,955.09,725.08Zm14.71-3.4-2.24.54,2-.8.49-.2,2.42-.43Zm-.23-2.22c-3.15.55-6.28,1-9.41,1.52q4.19-2,8.39-4,4.68-.45,9.36-1C975.12,717.17,972.34,718.34,969.57,719.46Zm15.08-2.89c-2.21.46-4.41.91-6.61,1.33q3.15-1.33,6.32-2.73c1.49-.2,3-.39,4.48-.61.71-.1,1.42-.22,2.12-.33C988.86,715,986.75,715.81,984.65,716.57Zm15-3.43-1.65.41,1.94-.77,1.74-.3Zm-.6-2q-4.38.74-8.74,1.4,3.74-1.71,7.49-3.48,4.29-.4,8.59-.9C1004,709.12,1001.52,710.12,999.08,711.09Zm15.06-2.84q-3,.62-5.95,1.19c1.71-.71,3.41-1.44,5.12-2.17,1.93-.25,3.87-.52,5.8-.8C1017.45,707.08,1015.79,707.66,1014.14,708.25Zm14.73-3.29-1.6.39.57-.22,1.11-.19Zm-1.52-1.59-.49.08c-2.46.4-4.91.77-7.37,1.12q4.25-1.87,8.5-3.85,4.1-.39,8.2-.85Q1031.76,701.66,1027.35,703.37Zm14.22-2.57-5.34,1q3.33-1.35,6.68-2.75c1.95-.25,3.91-.52,5.86-.79Q1045.15,699.57,1041.57,700.8Zm13.77-3,2.31-.88,1.15-.18Zm1.94-2.68c-2.64.42-5.29.81-7.93,1.19,2.71-1.17,5.42-2.38,8.13-3.6q4.05-.36,8.1-.8Q1061.43,693.58,1057.28,695.14Zm14.6-2.59c-1.87.36-3.75.73-5.62,1.07,2-.82,4.1-1.64,6.16-2.48,1.92-.23,3.85-.49,5.78-.75C1076.09,691.12,1074,691.85,1071.88,692.55Zm120.45-65.45c98-64.22,188.3-151.11,266.08-234.63q6.72,6.39,13.51,12.68-9.48,9.92-19.18,19.81c-76.35,77.85-147.1,138.15-216.29,184.35-50.88,34-101,60.05-149.72,78-2.63.4-5.27.79-7.9,1.15Q1134.63,664.89,1192.33,627.1Zm-103,61.78c-1.39.32-2.78.65-4.17,1l2.1-.75,2.89-.44Zm6.5-3c46.23-17.86,93.59-42.92,141.66-75,69.29-46.28,140.14-106.66,216.58-184.6q9.72-9.9,19.21-19.84,6.7,6.17,13.48,12.23c-69,70-134.27,126-198.79,170.6-63.09,43.59-125,75.48-185,95.33Q1099.36,685.23,1095.8,685.84Zm21.62-4.25-.82.18c56-20.09,113.72-50.53,172.38-91.06,64.63-44.65,130-100.75,199.12-170.88q6.68,6,13.43,11.79c-45.7,44.81-95.37,88.56-148.14,127.41Q1231.7,648.61,1117.42,681.59ZM1408.2,536.48c-89.63,68.29-177.86,114.65-262.75,138.15q101.57-35.1,209-114.13c52.9-38.94,102.67-82.79,148.45-127.69q6.64,5.73,13.35,11.35A1337.45,1337.45,0,0,1,1408.2,536.48Zm109.38-93.58q-6.72-5.62-13.36-11.37,8.57-8.41,17-16.88,6.9,5.76,13.88,11.43Q1526.43,434.51,1517.58,442.9Zm18.79-18.1q-7-5.67-13.91-11.45,8.43-8.53,16.67-17.08,7.15,5.78,14.4,11.46Q1545.06,416.28,1536.37,424.8Zm18.44-18.37q-7.26-5.69-14.42-11.47,8.31-8.62,16.39-17.24,7.4,5.76,14.88,11.43Q1563.35,397.79,1554.81,406.43Zm18.12-18.6q-7.5-5.67-14.9-11.44,8.16-8.7,16.1-17.36,7.62,5.7,15.35,11.33Q1581.32,379.09,1572.93,387.83ZM1590.72,369q-7.74-5.62-15.36-11.34,8-8.76,15.81-17.46,7.83,5.61,15.78,11.18Q1599,360.19,1590.72,369Zm17.46-19q-8-5.57-15.79-11.19,7.89-8.81,15.52-17.53,8,5.51,16.17,11Q1616.27,341.13,1608.18,350Zm17.12-19.13q-8.16-5.46-16.18-11,7.74-8.85,15.22-17.57,8.21,5.36,16.54,10.68Q1633.23,321.93,1625.3,330.91Zm16.78-19.24q-8.34-5.32-16.55-10.68,7.62-8.88,14.94-17.58,8.35,5.16,16.86,10.33Q1649.84,302.64,1642.08,311.67Zm16.43-19.34q-8.49-5.18-16.85-10.33,7.47-8.89,14.67-17.59,8.55,4.95,17.14,9.88Q1666.17,283.22,1658.51,292.33Zm16.14-19.48q-8.72-5-17.13-9.88,7.32-8.87,14.32-17.47l17.39,9.35Q1682.12,263.73,1674.65,272.85Zm15.74-19.44L1673,244.07q7.21-8.88,14.07-17.43,8.78,4.32,17.61,8.7Q1697.74,244.22,1690.39,253.41Zm15.43-19.54-17.58-8.69q7.13-8.9,13.86-17.41,8.82,3.87,17.79,7.9Q1713.08,224.57,1705.82,233.87Zm15.2-19.69q-9-4-17.76-7.89,7-8.89,13.61-17.31,8.89,3.36,17.92,6.93Q1728.16,204.81,1721,214.18Zm14.9-19.78q-9-3.56-17.87-6.92,6.95-8.88,13.37-17.16,8.92,2.75,18,5.76Q1743,184.92,1735.92,194.4Zm14.62-19.87q-9-3-17.93-5.75,5.57-7.16,10.73-13.83l2.38-3.07q8.92,2,18,4.35Q1757.48,165,1750.54,174.53Zm14.27-19.89q-9-2.32-17.86-4.34,6.84-8.82,12.76-16.42,8.82,1.16,17.76,2.69Q1771.62,145,1764.81,154.64Zm23.63-34.1c-3,4.42-6.28,9.23-9.83,14.38q-8.86-1.53-17.6-2.7c2.27-2.91,4.47-5.7,6.57-8.36q2.89-3.67,5.82-7.22,8.52.21,17.13.82C1789.83,118.48,1789.13,119.5,1788.44,120.54Zm3.29-4.82q-8.48-.63-16.85-.87,6.19-7.47,12.48-14.41,8-.75,16.11-1.07Q1797.56,107.26,1791.73,115.72Zm13.15-18.23q-7.89.27-15.7,1,6.18-6.74,12.43-13c5-1.11,10-2.06,15-2.88Q1810.71,89.78,1804.88,97.49Zm13.46-17q-7.18,1.11-14.31,2.62,6-5.89,12.11-11.29,6.77-2.46,13.59-4.48Q1824,73.66,1818.34,80.48Zm13.75-15.74q-6.15,1.74-12.25,3.82,5.48-4.71,11-9,5.79-3,11.63-5.59Q1837.25,59.15,1832.09,64.74Zm14-14.37c-2.55,1.08-5.09,2.2-7.62,3.38q7.24-5.3,14.57-9.91Q1849.57,47,1846.1,50.37Z"/></g></g></svg>