<svg xmlns="http://www.w3.org/2000/svg" xmlns:xlink="http://www.w3.org/1999/xlink" viewBox="0 0 1348 563"><defs><style>.cls-1{opacity:0.2;fill:url(#linear-gradient);}</style><linearGradient id="linear-gradient" x1="1127.74" y1="-21.41" x2="56.64" y2="545.64" gradientUnits="userSpaceOnUse"><stop offset="0" stop-color="#4861ff"/><stop offset="1" stop-color="#69ebff" stop-opacity="0"/></linearGradient></defs><g id="Layer_2" data-name="Layer 2"><g id="Layer_1-2" data-name="Layer 1"><path class="cls-1" d="M1345.81,0q-1.32,10.56-3,20.61C1331.89,85,1308.61,129.88,1269.54,162c-50.3,41.37-129.85,64.52-250.33,72.86-34.89,2.41-73.52,3.6-116.45,3.56,81.34-4.26,147.35-12.55,200.12-25.1,71.29-16.95,122.21-42.65,155.65-78.56,33-35.42,49-80.14,56.69-134.76h-2.17c-7.62,54.15-23.57,98.47-56.18,133.49-33.14,35.59-83.7,61.09-154.54,77.93-58,13.79-132.11,22.44-225.07,26.2,188.18-18,295.47-53.65,351.76-115.35,30.46-33.39,45.87-73.84,53.52-122.27h-2.21c-7.61,48-22.89,88-53,121-58.27,63.87-171.85,99.7-374.44,116.82h-.58c186.49-26.42,292.24-65.81,347.51-128,27.74-31.21,42.41-67.45,50-109.82h-2.21c-7.59,41.94-22.13,77.78-49.51,108.58-56.08,63.1-164.73,102.62-358,129l-3.89-.1c80.89-15.83,145.85-33.3,197.25-53,62.9-24.12,107.89-52.59,137.54-87,23-26.75,37.85-58,46-97.38H1215c-7.51,36.08-21.21,67.75-45.67,96.16-29.42,34.2-74.12,62.47-136.67,86.46C979.55,203,911.94,221,827.18,237.19l-5.73-.18c77.56-19.62,140-40,189.48-61.77,60.2-26.5,103.27-56.05,131.64-90.34,20.15-24.34,33.68-51.75,41.71-84.9h-2.23c-8,32.67-21.34,59.72-41.21,83.72-28.17,34-71,63.4-130.86,89.76-50.8,22.36-115.22,43.2-195.72,63.29l-7-.24C1045.06,161.91,1125.73,91.16,1151.46,0h-2.35C1123,91,1041.49,161.59,801.29,236.31l-7.9-.31c155.16-58.73,246.84-114.06,293.52-176.28A206.84,206.84,0,0,0,1118.34,0h-2.28a204.68,204.68,0,0,1-31,58.62c-46.87,62.47-139.49,118-296.8,177.17l-8.59-.36c147.87-66.17,235.33-125.3,280-188.51A215.84,215.84,0,0,0,1085.08,0h-2.32a214.37,214.37,0,0,1-24.9,45.87c-44.77,63.39-133,122.74-282.6,189.36l-9.15-.42c64-33.41,116-64.67,157.91-94.87,50-36,85.57-70.73,108.85-106A227.84,227.84,0,0,0,1051.44,0h-2.36A224,224,0,0,1,1031,32.92C1007.86,68,972.42,102.5,922.67,138.39,880.25,169,827.39,200.7,762.14,234.61l-9.56-.48C885.31,154.36,966.65,85.81,1006.43,20.67Q1012.84,10.2,1017.78,0h-2.38q-4.78,9.74-10.87,19.72C964.66,85,882.81,153.73,749,234l-9.85-.52C865.48,146.8,942.78,74.13,980.36,7.12q2-3.58,3.85-7.12H981.8q-1.62,3.09-3.38,6.23c-37.63,67.1-115.36,140-242.64,227-3.35-.17-6.73-.37-10.12-.56C842.06,142.33,914.5,67.42,951,0h-2.44c-36.7,67.29-109.38,142.13-226,232.5l-10.37-.61c52.57-46,95.46-87.89,130.17-127.14C875.69,67.07,900.79,32.59,918.53,0h-2.42c-17.64,32.19-42.51,66.28-75.46,103.53-34.95,39.52-78.24,81.77-131.38,128.18l-10.58-.65C789.66,141.72,851.78,65.46,886.9,0h-2.42C849.23,65.38,787,141.57,695.93,230.88l-10.71-.68C772.88,134,825.72,59.56,856.37,0H854c-30.75,59.49-83.66,133.84-171.42,230l-10.83-.72C749.52,134.15,798,59.68,827.11,0h-2.37C795.55,59.61,747,134,669.18,229.12l-10.93-.76C722.58,140.88,769.17,65.25,798.86,0h-2.35c-29.73,65.17-76.37,140.76-140.73,228.19l-11.08-.8c42.16-63.8,76.49-122.18,102.41-174.2Q760.84,25.64,771.64,0h-2.32q-10.68,25.23-24.2,52.38c-26,52.17-60.47,110.78-102.84,174.83l-11.13-.82Q707.17,98.6,745.49,0h-2.31Q705,98.25,628.79,226.21l-11.2-.86Q685.51,98.65,720.43,0h-2.28Q683.29,98.32,615.27,225.17L604,224.28c43-89.14,72.63-163,92.24-224.28h-2.2c-19.65,61.2-49.26,135-92.32,224.11-3.76-.3-7.52-.6-11.32-.92Q644.6,98.5,673,0h-2.24Q642.4,98.23,588.17,223l-11.38-.94C610.76,135,634.43,61.66,650.28,0h-2.21q-25.35,98.39-73.5,221.88-38.33-3.19-79.34-7C351.58,201.44,225.54,216,109.88,259.26A831.59,831.59,0,0,0,0,310.21v2.31a827.73,827.73,0,0,1,110.71-51.45C226,217.91,351.73,203.43,495,216.8q40.77,3.81,78.81,7-1.65,4.22-3.33,8.48-37.49-2.39-78.82-5.55c-137.77-10.86-259.75,3.55-372.92,44A888.08,888.08,0,0,0,0,323.86v2.29c36.69-19.6,76.26-38.06,119.54-53.55,112.85-40.37,234.52-54.74,371.93-43.92,27.4,2.11,53.43,3.94,78.25,5.53-1.12,2.82-2.24,5.65-3.38,8.5-24.79-1.06-50.81-2.42-78.25-4.1-131.66-8.07-249.37,6.35-359.83,44.05-46.59,15.91-89,35-128.26,55.06V340c39.45-20.24,82.13-39.47,129-55.48,110.16-37.6,227.57-52,358.91-43.92,27.21,1.66,53,3,77.64,4.08q-1.68,4.15-3.36,8.36c-24.56-.49-50.41-1.34-77.69-2.53-125.4-5.48-238.65,8.83-346.21,43.77C87.89,310.63,42.15,330.43,0,351v2.24c42.36-20.77,88.34-40.72,139.05-57.19C246.34,261.25,359.31,247,484.42,252.45c27,1.18,52.65,2,77,2.5-1.11,2.76-2.22,5.51-3.36,8.28-24.33.1-50-.19-77.12-.87-118.9-3-227.43,11.2-331.82,43.39C94.57,322.57,45.26,343.06,0,364v2.22c45.46-21.11,95-41.73,149.84-58.65,104.12-32.12,212.42-46.28,331-43.28,26.87.68,52.27,1,76.38.88q-1.65,4.05-3.33,8.15c-24.12.74-49.57,1-76.55.89-112.1-.63-215.63,13.4-316.49,42.88C101.81,334.39,48.61,355.51,0,376.69v2.19c48.79-21.3,102.22-42.56,161.56-59.89C262.2,289.58,365.49,275.6,477.37,276.2c26.68.14,51.87-.14,75.74-.85l-3.32,8c-23.9,1.39-49.16,2.3-76,2.71-104.94,1.62-203.06,15.42-300,42.22C109.76,346.05,52.22,367.79,0,389v2.16C52.39,369.85,110.14,348,174.47,330.2c96.71-26.73,194.64-40.51,299.38-42.12,26.5-.41,51.46-1.3,75.1-2.66q-1.62,3.91-3.27,7.85-35.74,3.23-75.44,4.72C266.39,305.68,124.08,354.56,0,400.83V403c124.11-46.3,266.42-95.31,470.33-103q39.19-1.5,74.49-4.64c-1.08,2.57-2.17,5.16-3.27,7.75q-35.43,4.38-74.88,6.8C266.85,322.17,125.2,370,.22,412.21l-.22.07v2.09c.32-.11.65-.21,1-.33,124.85-42.16,266.34-89.93,465.85-102.21q38.9-2.4,73.85-6.66c-1.08,2.54-2.16,5.06-3.26,7.57-23.41,3.73-48.14,6.73-74.33,9C283.56,337.38,149.8,377.91,31.79,413.66Q15.67,418.54,0,423.26v2.07q16-4.8,32.48-9.81c117.9-35.71,251.53-76.2,430.82-91.81q38.59-3.37,73.16-8.83c-1.09,2.49-2.2,5-3.33,7.41q-34.72,6.88-73.62,11.34c-156.79,17.95-280,51.52-388.78,81.15-24.22,6.61-47.74,13-70.73,19v2c23.2-6,46.91-12.48,71.35-19.14,108.67-29.6,231.82-63.15,388.43-81.08q38.24-4.38,72.36-11.07c-1.13,2.42-2.25,4.82-3.38,7.22q-34.31,8.24-72.83,13.78c-130.54,18.8-239.38,45.75-335.4,69.53C78.2,425.53,38.37,435.38,0,443.77v2c38.55-8.41,78.56-18.31,121.1-28.85,96-23.76,204.75-50.7,335.16-69.48Q494,342,527.66,334q-1.7,3.53-3.42,7a702.53,702.53,0,0,1-71.89,16.36c-99.05,17.43-187.27,37.83-265.1,55.83C120.15,428.75,58.67,443,0,453.23v2C58.84,445,120.49,430.7,187.78,415.13c77.8-18,166-38.4,265-55.81a707.26,707.26,0,0,0,70.29-15.9c-1.11,2.22-2.22,4.42-3.35,6.6a613.8,613.8,0,0,1-70.94,19.26c-59.3,12.48-113.82,24.93-166.56,37C178.94,429.83,86.8,450.87,0,462.11v2c87-11.25,179.28-32.32,282.73-55.94,52.72-12.05,107.24-24.5,166.52-37a622,622,0,0,0,69.13-18.61c-1.14,2.16-2.28,4.32-3.43,6.45a551.91,551.91,0,0,1-69.78,22.13l-16,4C260.64,426.92,127.18,460,0,470.47v2C127.45,462,261,428.85,429.74,387l16-4a556.3,556.3,0,0,0,67.72-21.31c-1.12,2.08-2.25,4.13-3.4,6.17a500,500,0,0,1-68.49,25.14c-91.11,26.29-163.84,44.73-228.9,58C137.54,466.45,70.84,475.22,8.8,477.9c-3,.12-5.87.24-8.8.33v2l8.9-.34c62.18-2.7,129-11.48,204.26-26.86,65.11-13.31,137.92-31.77,229.08-58.08a506.1,506.1,0,0,0,66.18-24.08c-1.11,1.95-2.22,3.87-3.34,5.79A459.29,459.29,0,0,1,438,405c-164.14,54.72-298.46,80.32-422.71,80.57q-7.66,0-15.28-.09v2q6.66.11,13.39.1h1.9c124.51-.26,259.07-25.9,423.45-80.7a462,462,0,0,0,64.42-26.91c-1.06,1.79-2.14,3.57-3.21,5.33a426.2,426.2,0,0,1-65.56,31.64C280,475.91,138.2,501.07,0,492v2q27.36,1.8,54.91,1.8c121.2,0,246-25.79,380.33-77.18a429,429,0,0,0,62.45-29.76q-1.49,2.39-3,4.74a399.54,399.54,0,0,1-63.91,35.11c-68.34,29.85-137.32,51-205,62.79A786.2,786.2,0,0,1,28.1,500.8q-14-1.12-28.1-2.74v2q14,1.62,27.91,2.73,31.11,2.48,62.4,2.48a791.29,791.29,0,0,0,135.87-11.77c67.89-11.85,137.05-33,205.57-63a403,403,0,0,0,60.18-32.58c-.87,1.34-1.76,2.68-2.64,4a380.92,380.92,0,0,1-62.09,38.71C363.44,472.35,297.11,494,230,505c-63.28,10.36-129.1,11.53-195.64,3.49q-17.07-2.06-34.39-5v2q17.16,2.88,34.1,4.92a725.09,725.09,0,0,0,86.9,5.28,677.83,677.83,0,0,0,109.42-8.78c67.31-11,133.87-32.73,197.82-64.53a382.14,382.14,0,0,0,57.52-35.23c-.65,1-1.3,1.93-2,2.88a367.74,367.74,0,0,1-60.19,42.53,554.09,554.09,0,0,1-189.37,65.83c-61.36,9.35-126.52,8.59-193.65-2.26Q20.53,512.87,0,508.39v2q20.31,4.43,40.2,7.65a668.31,668.31,0,0,0,106.58,8.77,583.44,583.44,0,0,0,87.81-6.52,556.24,556.24,0,0,0,190.16-66.09A369.22,369.22,0,0,0,479,416.8l-.84,1.16A361.49,361.49,0,0,1,420,464.45a451.16,451.16,0,0,1-181.67,67.32c-59.61,8.39-124.1,5.72-191.68-8q-23-4.65-46.66-11.06v2q23.42,6.32,46.18,10.92c42.1,8.53,83,12.79,122.29,12.79a503.52,503.52,0,0,0,70.2-4.8,453.42,453.42,0,0,0,182.58-67.65,360.55,360.55,0,0,0,47.59-36.49,361.66,361.66,0,0,1-52.43,46.81C305.79,556.72,166.43,570.06,0,516.71v2.08q99.72,31.89,186.47,31.89,130.84,0,231.29-72.77a353.2,353.2,0,0,0,39.36-33.33,367.61,367.61,0,0,1-34.32,35.13c-43.14,38.48-93.48,63.6-149.59,74.65C194.42,569.88,103,558.34,0,520.06v2.12Q110.09,562.94,202.23,563a369.6,369.6,0,0,0,71.44-6.72c56.52-11.13,107.21-36.42,150.66-75.17a385.44,385.44,0,0,0,49.87-54.33q6.23-6.91,12.24-14.23,6.54-6.72,12.84-13.85,6.77-6.46,13.3-13.33c4.71-4.17,9.31-8.49,13.85-12.93q7.29-6,14.3-12.4,7.5-5.76,14.73-11.86,7.66-5.48,15-11.26,7.9-5.21,15.48-10.75,8.13-4.94,15.91-10.2,7.67-4.31,15-8.84,9.17-4.69,17.92-9.74,8.8-4.15,17.25-8.61c6.11-2.61,12.07-5.31,17.93-8.12q9.39-3.6,18.4-7.5,9.6-3.27,18.76-6.82,9.86-2.94,19.23-6.14,7.51-1.93,14.83-4l5.64-1.62c2-.42,4-.86,6-1.31,5.58-1.24,11.06-2.49,16.51-3.74q11.85-2,23.32-4,12.18-1.44,24-2.92,12.41-.87,24.42-1.83,12.31-.32,24.23-.73c58.3.95,109.25-.14,154.06-3.23,121-8.37,200.94-31.69,251.63-73.36C1310.46,131,1334,85.71,1345,20.91q1.74-10.19,3-20.91Zm-855,403.76c-.2.16-.38.34-.56.5l.68-1,.74-.56C491.41,403,491.12,403.39,490.84,403.76ZM775.72,237.21l7.87.35c-1.93.73-3.88,1.44-5.84,2.17-2.55,0-5.12,0-7.7,0Zm-13.07-.61,8.59.41-6.1,2.7-8.38-.06ZM594.27,307.34c-2.14.65-4.29,1.27-6.47,1.89,1.28-1.64,2.56-3.3,3.82-5,2.25-.52,4.51-1.06,6.73-1.6C597,304.26,595.65,305.8,594.27,307.34Zm1.3,1.69c1.82-.54,3.62-1.09,5.42-1.65-1.25,1.23-2.5,2.44-3.77,3.65l-5.17,1.9C593.23,311.63,594.41,310.34,595.57,309Zm-17.26,8.64c-2.08.69-4.18,1.37-6.28,2q1.86-2.55,3.7-5.13c2.2-.57,4.37-1.16,6.55-1.76C581,314.46,579.64,316.06,578.31,317.67Zm1.36,1.65q2.63-.87,5.22-1.76c-1.21,1.27-2.45,2.54-3.68,3.8-1.65.68-3.31,1.34-5,2Zm-16.89,9.19q-3,1.11-6.09,2.19c1.2-1.76,2.4-3.53,3.58-5.31,2.13-.63,4.24-1.27,6.35-1.91C565.35,325.17,564.06,326.85,562.78,328.51Zm1.4,1.61,5.06-1.88c-1.08,1.21-2.16,2.4-3.26,3.6q-2.41,1.1-4.86,2.15Zm-16.31,9.46c-2,.79-4,1.58-5.94,2.36,1.11-1.74,2.21-3.5,3.31-5.26l6.15-2.05C550.22,336.29,549.06,337.94,547.87,339.58Zm6.42-.48c-1.13,1.38-2.29,2.73-3.43,4.08-1.56.77-3.12,1.51-4.69,2.27,1.07-1.43,2.11-2.87,3.16-4.31C551,340.47,552.64,339.78,554.29,339.1Zm-21.12,12.33c-1.9.84-3.82,1.66-5.74,2.49q1.67-2.81,3.32-5.66c2-.73,4-1.46,6-2.21C535.56,347.85,534.37,349.65,533.17,351.43Zm6.31-.63c-1.09,1.41-2.2,2.82-3.31,4.23-1.5.8-3,1.6-4.54,2.38q1.54-2.22,3.06-4.47C536.29,352.23,537.9,351.52,539.48,350.8Zm-7.18-5.21q1.66-2.91,3.3-5.87c2.2-.67,4.37-1.35,6.54-2.05-1.17,1.88-2.36,3.72-3.55,5.56C536.5,344,534.4,344.81,532.3,345.59ZM718.19,245.15c-3,.06-5.93.1-8.92.14l5.71-4.37,9.2.2C722.19,242.47,720.2,243.81,718.19,245.15Zm9.51-4,8.8.16-6,3.55-8.54.18Zm-170.93,76q1.8-3.18,3.57-6.43c2.59-.47,5.16-1,7.71-1.47-1.26,2.05-2.54,4.1-3.83,6.13C561.75,316,559.28,316.63,556.77,317.21Zm5.91.65c-1.27,2-2.56,3.93-3.85,5.88-2.3.67-4.62,1.34-7,2,1.2-2.05,2.39-4.1,3.58-6.19C557.88,319,560.28,318.43,562.68,317.86Zm122.91-65.75c-3,.13-6,.23-9,.34l5.26-5h9.23Q688.38,249.76,685.59,252.11Zm8.72-4.73,8.92-.06-5.66,4.28-8.65.38Zm-112.13,42,3.74-6.61c2.93-.24,5.83-.5,8.72-.77l-4,6.31Q586.45,288.87,582.18,289.38Zm7.12,1.09c-.54.83-1,1.66-1.58,2.5l-2.38,3.68c-2.68.46-5.38.92-8.1,1.35.23-.38.46-.77.67-1.16,1-1.78,2-3.54,3-5.32C583.76,291.17,586.53,290.83,589.3,290.47Zm41.49-28.92c-3.09.14-6.19.27-9.33.38,1.49-2.17,3-4.34,4.43-6.5l9.61-.08Zm7.36-6.24,9.42-.14L642.66,261c-3,.16-6.07.3-9.14.45C635.08,259.39,636.61,257.35,638.15,255.31ZM604,271.07l4.16-6.72,9.34-.3L613,270.47C610,270.68,607,270.87,604,271.07Zm7.66,1.47q-2.18,3.1-4.33,6.24c-2.88.3-5.77.59-8.69.87,1.38-2.19,2.73-4.36,4.08-6.54Q607.18,272.84,611.62,272.54Zm8.45-8.59q4.62-.17,9.17-.36c-1.53,2-3.06,4-4.61,6q-4.41.34-8.9.66C617.18,268.16,618.64,266.06,620.07,264ZM618.83,262l-9.47.32,4.22-6.87,9.76,0Q621.11,258.74,618.83,262Zm-12,.39c-3.18.09-6.38.19-9.61.26q2-3.62,4-7.22l9.89,0C609.68,257.79,608.25,260.1,606.82,262.42Zm-1.24,2c-1.39,2.26-2.8,4.52-4.2,6.78q-4.59.29-9.24.54c1.32-2.37,2.64-4.72,4-7.08C599.28,264.6,602.44,264.51,605.58,264.43Zm-5.49,8.84c-1.37,2.2-2.75,4.42-4.14,6.63l-8.85.8c1.31-2.31,2.6-4.62,3.9-6.92C594.06,273.62,597.08,273.45,600.09,273.27Zm-2.8,8.48c2.86-.27,5.69-.55,8.51-.84-1.35,1.95-2.73,3.91-4.1,5.87-2.75.4-5.51.78-8.31,1.15C594.7,285.87,596,283.81,597.29,281.75Zm11.28-1.13,8.29-.91c-1.39,1.81-2.81,3.62-4.22,5.45l-8.08,1.22Zm1.49-2.14,4.24-6.13q4.4-.3,8.73-.64l-4.49,5.83C615.73,277.86,612.9,278.18,610.06,278.48Zm15.77-7c2.86-.22,5.69-.46,8.49-.7l-4.63,5.41c-2.73.34-5.48.68-8.24,1Zm1.62-2.11,4.52-5.91c3-.14,6-.28,8.95-.44l-4.78,5.63C633.27,268.9,630.37,269.15,627.45,269.38Zm16.33-6.49c2.93-.16,5.82-.31,8.7-.49-1.63,1.73-3.26,3.46-4.93,5.2-2.79.28-5.61.54-8.45.8C640.67,266.55,642.24,264.72,643.78,262.89Zm1.75-2.06,4.81-5.71c3.09-.06,6.15-.13,9.2-.21l-5.09,5.41C651.5,260.49,648.52,260.67,645.53,260.83Zm16.92-6,9-.26-5.24,5c-2.88.2-5.77.4-8.68.57Zm12-.36,8.66-.31c-1.78,1.5-3.55,3-5.35,4.52-2.77.22-5.58.43-8.4.63C671.12,257.72,672.81,256.1,674.5,254.49Zm-1-1.93c-3,.09-6.1.19-9.18.27l5.11-5.48c3.17,0,6.33,0,9.47,0Zm-12.09.34c-3.12.08-6.26.16-9.42.22l4.93-5.88,9.68.09Zm-12.19.27-9.59.16q2.39-3.15,4.72-6.27l9.86.14Zm-12.25.2q-4.85.06-9.76.09l4.49-6.65c3.38.07,6.74.15,10.06.2Q639.41,250.18,637,253.37Zm-12.32.1c-3.27,0-6.57,0-9.89,0l4.27-7,10.17.25C627.71,249,626.2,251.23,624.67,253.47Zm-12.38,0c-3.31,0-6.64,0-10,0l4-7.34,10.29.3C615.18,248.8,613.75,251.15,612.29,253.51Zm-12.43,0-10.12-.07,3.81-7.69,10.39.35C602.59,248.54,601.24,251,599.86,253.49Zm-1.08,2c-1.35,2.42-2.69,4.85-4,7.29l-9.75.2c1.27-2.53,2.55-5.07,3.79-7.57Zm-5.16,9.28c-1.32,2.38-2.66,4.76-4,7.16-3.1.15-6.23.31-9.38.45,1.26-2.47,2.51-5,3.75-7.42Zm-5.13,9.19q-2,3.49-4,7c-3,.25-6,.5-9,.72l3.7-7.28C582.34,274.23,585.42,274.07,588.49,273.92ZM583.36,283c-1.26,2.23-2.54,4.47-3.82,6.71-2.86.36-5.75.69-8.66,1,1.2-2.35,2.41-4.69,3.59-7C577.46,283.47,580.42,283.24,583.36,283Zm-5,8.84c-.79,1.37-1.57,2.73-2.35,4.11-.48.84-1,1.67-1.46,2.51-2.74.43-5.51.86-8.29,1.27l3.56-6.91C572.67,292.49,575.51,292.17,578.34,291.83Zm-5.09,8.8c-1.26,2.15-2.52,4.27-3.8,6.38-2.61.52-5.25,1-7.9,1.53,1.2-2.2,2.39-4.43,3.56-6.67C567.84,301.47,570.56,301.06,573.25,300.63Zm-2.37,8.1c2.5-.5,5-1,7.43-1.52-1.31,1.9-2.63,3.81-4,5.69-2.37.62-4.75,1.23-7.17,1.83C568.42,312.74,569.65,310.75,570.88,308.73Zm1.38-2.29c1.24-2.06,2.48-4.14,3.69-6.23,2.67-.43,5.32-.86,7.94-1.31-1.3,2-2.63,4-4,6C577.4,305.39,574.83,305.92,572.26,306.44Zm14.46-8c2.57-.44,5.12-.9,7.66-1.35q-2,2.76-4.09,5.5c-2.46.56-4.92,1.12-7.4,1.66C584.18,302.3,585.45,300.36,586.72,298.41Zm1.45-2.24c.48-.75,1-1.48,1.43-2.23.81-1.28,1.61-2.56,2.43-3.83l8.12-1.11-.7,1c-1.12,1.6-2.26,3.18-3.39,4.76ZM601.28,291c.59-.82,1.15-1.64,1.73-2.46,2.64-.38,5.26-.76,7.86-1.17q-2.07,2.68-4.2,5.31c-2.52.51-5.07,1-7.63,1.48C599.78,293.14,600.55,292.11,601.28,291ZM613,288.15l.93-1.19,7.53-1.22c-1.4,1.61-2.82,3.22-4.27,4.81-2.42.51-4.84,1-7.3,1.52C610.91,290.77,611.94,289.47,613,288.15Zm2.69-3.47c1.38-1.77,2.74-3.54,4.1-5.3,2.69-.31,5.36-.64,8-1l-4.29,5C620.9,283.84,618.28,284.27,615.66,284.68Zm15.2-6.65c2.59-.32,5.15-.66,7.7-1l-3.87,4-.45.46c-2.49.46-5,.9-7.52,1.34C628.1,281.24,629.49,279.64,630.86,278Zm1.92-2.23,4.51-5.27c2.75-.24,5.48-.5,8.19-.76l-4.72,5Zm15.86-6.33q4-.37,7.87-.8l-4.79,4.48-7.65,1.12C645.61,272.66,647.13,271.07,648.64,269.47Zm2.09-2.19,4.77-5.06c2.83-.16,5.64-.35,8.42-.53l-5,4.74C656.19,266.72,653.47,267,650.73,267.28Zm16.44-5.82,8.06-.58c-1.68,1.42-3.39,2.85-5.1,4.28q-3.89.46-7.83.9Zm11.58-.86,7.63-.62-5.09,3.78-7.41.94C675.52,263.33,677.13,262,678.75,260.6Zm2.58-2.18,5.16-4.38,8.3-.35-5.42,4.06Zm17.08-4.9,7.82-.4-5.38,3.55-7.61.73Zm2.79-2.11,5.44-4.13,8.54-.11q-2.83,1.91-5.71,3.79C706.74,251.12,704,251.26,701.2,251.41Zm4.64-6.08-9.23.07c1.88-1.61,3.74-3.23,5.6-4.83,3.2.1,6.37.18,9.53.26C709.78,242.33,707.82,243.83,705.84,245.33Zm-12.41.08c-3.15,0-6.31,0-9.5,0l5.44-5.26c3.29.11,6.56.22,9.8.31C697.27,242.12,695.36,243.77,693.43,245.41Zm-12.48,0-9.71,0,5.27-5.68,10,.35Zm-12.51-.06-9.89-.09c1.7-2,3.38-4.07,5.05-6.09l10.18.41Zm-12.58-.12-10-.14c1.63-2.17,3.23-4.33,4.83-6.47l10.33.44C659.28,241.13,657.58,243.2,655.86,245.26Zm-12.62-.19c-3.38,0-6.79-.12-10.21-.2l4.59-6.83,10.5.48Zm-12.72-.25c-3.4-.08-6.84-.15-10.3-.25,1.47-2.4,2.91-4.8,4.35-7.18l10.59.52C633.62,240.21,632.08,242.51,630.52,244.82Zm-12.73-.31-10.41-.3c1.38-2.52,2.75-5,4.1-7.53l10.69.58C620.71,239.66,619.26,242.09,617.79,244.51ZM605,244.14l-10.5-.34q1.95-3.95,3.85-7.85l10.78.61Q607.09,240.33,605,244.14Zm-12.83-.43c-3.51-.12-7-.24-10.59-.39,1.21-2.72,2.42-5.45,3.61-8.16,3.64.23,7.26.44,10.86.65C594.77,238.43,593.47,241.06,592.17,243.71Zm-1,1.93-3.83,7.75c-3.38,0-6.8-.07-10.22-.13l3.56-8C584.25,245.39,587.74,245.53,591.21,245.64Zm-4.81,9.71L582.58,263l-9.86.13c1.2-2.64,2.38-5.27,3.56-7.9ZM581.59,265l-3.79,7.51c-3.15.13-6.31.27-9.51.39,1.19-2.6,2.36-5.19,3.54-7.78Q576.75,265,581.59,265Zm-4.81,9.52L573,281.84q-4.54.35-9.15.66c1.18-2.55,2.34-5.09,3.49-7.64C570.54,274.75,573.66,274.61,576.78,274.48Zm-4.8,9.41c-1.2,2.36-2.42,4.73-3.64,7.11-2.91.32-5.86.63-8.81.93,1.14-2.48,2.28-4.93,3.41-7.4Q567.5,284.23,572,283.89Zm-4.72,9.2-3,5.82-.62,1.18c-2.81.42-5.64.81-8.48,1.2q1.71-3.65,3.39-7.29C561.47,293.71,564.37,293.4,567.26,293.09Zm-4.75,9.16c-1.21,2.29-2.42,4.55-3.65,6.8q-4,.75-8.08,1.46c1.14-2.35,2.26-4.71,3.39-7.09Zm-4.86,9c-1.22,2.21-2.44,4.4-3.68,6.59-2.54.58-5.11,1.15-7.69,1.71,1.15-2.28,2.3-4.57,3.43-6.88Zm-5,8.92q-1.83,3.19-3.7,6.34c-2.39.65-4.81,1.3-7.24,1.93,1.16-2.19,2.3-4.4,3.44-6.63C547.65,321.31,550.14,320.76,552.63,320.2ZM547.46,329q-1.85,3.06-3.71,6.08c-2.24.73-4.49,1.44-6.76,2.15q1.74-3.17,3.45-6.37C542.79,330.23,545.14,329.62,547.46,329Zm-.59,5.07q1.78-2.93,3.55-5.88c2.26-.62,4.49-1.25,6.71-1.89-1.26,1.87-2.53,3.74-3.81,5.59C551.19,332.62,549,333.34,546.87,334.06ZM562,322.81q1.85-2.82,3.67-5.68,3.47-.86,6.9-1.74c-1.3,1.81-2.61,3.62-3.94,5.4Zm15.53-10.75q1.92-2.73,3.79-5.49c2.39-.51,4.75-1,7.11-1.57q-2,2.61-4.06,5.19Q581,311.14,577.52,312.06Zm16-10.26q2-2.62,3.91-5.29c2.45-.46,4.89-.92,7.32-1.4q-2.07,2.52-4.17,5C598.2,300.68,595.85,301.25,593.48,301.8Zm14.45-7.32q3.51-.71,6.94-1.42c-1.39,1.5-2.78,3-4.19,4.47-2.2.58-4.44,1.16-6.67,1.72C605.33,297.67,606.63,296.07,607.93,294.48Zm4,4.78q2.82-.74,5.63-1.52c-1.28,1.17-2.55,2.33-3.85,3.48L608.31,303C609.51,301.76,610.72,300.52,611.91,299.26Zm2.58-2.74c1.31-1.39,2.6-2.8,3.89-4.22,2.17-.46,4.34-.93,6.48-1.42q-2.05,2-4.15,3.94C618.65,295.4,616.58,296,614.49,296.52Zm6.15-6.71c1.34-1.52,2.68-3,4-4.56l.05-.06,7.15-1.24c-1.42,1.44-2.85,2.88-4.31,4.3Q624.12,289,620.64,289.81Zm8.06.2c2-.44,3.9-.91,5.84-1.36-1.29,1.09-2.6,2.2-3.92,3.29q-2.79.84-5.61,1.65Q626.87,291.82,628.7,290Zm2.71-2.66q2-2,4-4l6.7-1.25c-1.41,1.26-2.83,2.52-4.25,3.76C635.7,286.34,633.56,286.84,631.41,287.35Zm6.33-6.47,4.13-4.32c2.45-.34,4.89-.68,7.31-1.05l-2.75,2.57c-.51.49-1,.95-1.57,1.43C642.5,280,640.13,280.43,637.74,280.88Zm8.21.43c2-.4,4.06-.8,6.07-1.22-1.33,1.05-2.66,2.09-4,3.13-1.93.52-3.88,1-5.84,1.51Q644.08,283,646,281.31Zm2.81-2.58,4-3.76q3.44-.51,6.83-1.05l-1.43,1.19c-.92.76-1.85,1.5-2.78,2.26C653.2,277.83,651,278.29,648.76,278.73Zm6.57-6.13,4.6-4.3,7.45-.85-4.78,4C660.19,271.84,657.77,272.23,655.33,272.6Zm8.27.68,6.21-1q-2,1.44-4,2.86c-2,.44-4,.9-6,1.34Zm3-2.51L671.1,267c2.33-.28,4.65-.56,6.95-.86l-4.66,3.44C671.14,270,668.88,270.39,666.62,270.77Zm15.58-5.15c2.09-.27,4.18-.55,6.25-.84q-2.18,1.44-4.4,2.85c-2,.39-4.06.78-6.13,1.16Zm3.26-2.42,4.78-3.56c2.37-.21,4.73-.42,7.08-.65l-5,3.25C690.07,262.57,687.78,262.89,685.46,263.2Zm16.2-4.63,6.35-.64-4.7,2.68c-2,.32-4.11.63-6.19.93C698.65,260.55,700.15,259.56,701.66,258.57Zm3.53-2.32,5.06-3.36c2.43-.13,4.85-.28,7.25-.43-1.74,1-3.5,2-5.27,3Zm8.29-5.51c1.82-1.22,3.65-2.43,5.44-3.64Q723,247,727,247l-5.67,3.3Zm17.67-3.89,7.48-.19-5.52,2.77-7.26.52Zm3.49-2,5.73-3.38,8.33.12-6,3Q738.72,244.7,734.64,244.8ZM753,241.58l7.69.06q-2.85,1.26-5.74,2.5l-7.49.28ZM749.56,236l9.09.46q-3.07,1.6-6.21,3.2l-8.85-.1Zm-13.11-.7,9.49.51-6.2,3.69-9.22-.16Zm-13.15-.73,9.82.54c-2,1.39-4.07,2.77-6.12,4.16l-9.54-.21Zm-13.22-.79,10.1.6c-2,1.53-4,3.07-6,4.6l-9.81-.26C706.31,237,708.2,235.38,710.08,233.73Zm-13.27-.82c3.48.22,6.92.44,10.35.64-1.91,1.67-3.85,3.35-5.8,5l-10-.31Zm-13.27-.86,10.5.68-5.58,5.44-10.2-.36Zm-13.33-.89c3.58.25,7.13.49,10.67.71-1.76,1.94-3.55,3.89-5.35,5.84-3.43-.13-6.89-.26-10.36-.41C666.87,235.24,668.55,233.2,670.21,231.16Zm-13.33-.93,10.78.75c-1.68,2.07-3.39,4.14-5.11,6.22l-10.48-.46Zm-13.43-1,11,.79c-1.62,2.19-3.25,4.38-4.87,6.58l-10.65-.5Zm-13.42-1,11,.82c-1.53,2.3-3.06,4.61-4.61,6.92l-10.71-.54C627.16,233.07,628.59,230.66,630,228.27Zm-13.45-1,11.09.85c-1.45,2.42-2.89,4.83-4.36,7.26-3.57-.18-7.17-.38-10.8-.58C613.87,232.26,615.24,229.74,616.58,227.24Zm-13.49-1.05,11.17.87c-1.35,2.52-2.72,5.05-4.09,7.58L599.29,234C600.57,231.4,601.83,228.79,603.09,226.19Zm-13.5-1.09,11.22.9c-1.26,2.62-2.54,5.25-3.82,7.89q-5.44-.3-11-.65ZM576.05,224l11.29.93-3.58,8.2-11-.69C573.85,229.6,575,226.78,576.05,224ZM572,234.35c3.68.23,7.32.46,10.94.67-1.2,2.74-2.41,5.47-3.63,8.22-3.53-.14-7.08-.28-10.67-.44C569.75,240,570.86,237.16,572,234.35Zm-4.13,10.39,10.58.42c-1.19,2.69-2.38,5.37-3.6,8.06-3.4-.05-6.85-.1-10.31-.17ZM563.72,255q5.16.12,10.23.19c-1.19,2.64-2.38,5.29-3.59,8-3.29,0-6.62.06-10,.07C561.52,260.46,562.62,257.73,563.72,255Zm-4.12,10.19c3.31,0,6.61,0,9.87-.08q-1.77,3.91-3.56,7.84c-3.19.13-6.39.24-9.62.35C557.4,270.56,558.5,267.87,559.6,265.18Zm-4.14,10.09c3.2-.1,6.37-.2,9.53-.32-1.18,2.56-2.36,5.14-3.54,7.72-3.07.21-6.16.4-9.29.59Q553.83,279.26,555.46,275.27Zm-4.14,10c3.09-.18,6.16-.37,9.19-.57-1.14,2.49-2.3,5-3.46,7.48q-4.44.45-9,.86Q549.72,289.14,551.32,285.27Zm-4.08,9.83c3-.27,5.92-.55,8.84-.84-1.14,2.46-2.28,4.91-3.44,7.38-2.85.38-5.74.75-8.64,1.11C545.09,300.2,546.17,297.64,547.24,295.1Zm-4.4,10.45.29-.69,8.5-1.1c-1.13,2.41-2.29,4.82-3.44,7.2-2.74.46-5.49.93-8.26,1.38Q541.39,309,542.84,305.55ZM539,314.48c2.72-.44,5.44-.88,8.13-1.35-1.16,2.36-2.33,4.71-3.51,7-2.61.55-5.23,1.09-7.88,1.62C536.81,319.37,537.9,316.93,539,314.48ZM534.71,324q3.9-.78,7.75-1.59c-1.18,2.29-2.36,4.55-3.55,6.8q-3.72,1-7.48,1.87C532.53,328.73,533.63,326.37,534.71,324Zm-4.37,9.39c2.45-.59,4.88-1.2,7.3-1.81-1.18,2.2-2.38,4.38-3.58,6.55-2.32.71-4.67,1.41-7,2.1Q528.69,336.81,530.34,333.38Zm-4.52,9.25c2.3-.66,4.58-1.32,6.84-2-1.14,2-2.3,4.07-3.46,6.08q-3.27,1.19-6.61,2.33Q524.22,345.85,525.82,342.63Zm-4.52,8.95,6.37-2.21c-1.17,2-2.35,4-3.54,5.95-2,.85-4.07,1.68-6.11,2.51C519.12,355.76,520.21,353.67,521.3,351.58Zm-4.74,9c1.94-.77,3.88-1.56,5.8-2.35-1.14,1.88-2.3,3.74-3.46,5.58-1.84.88-3.68,1.76-5.55,2.62C514.43,364.47,515.49,362.51,516.56,360.55ZM525.1,363q-1.58,2.21-3.18,4.38c-1.46.85-2.92,1.69-4.4,2.52q1.5-2.31,3-4.65C522,364.51,523.57,363.76,525.1,363Zm-13.41,6.39c1.74-.8,3.47-1.62,5.2-2.43q-1.65,2.58-3.32,5.13l-5,2.68Q510.17,372.09,511.69,369.39Zm-5,8.67c1.51-.78,3-1.57,4.47-2.36-1,1.52-2,3-3.07,4.54-1.42.88-2.83,1.77-4.25,2.64C504.8,381.29,505.75,379.67,506.7,378.06Zm-10,18c-.73.6-1.47,1.19-2.22,1.78l1.88-2.91,2.39-1.62C498.08,394.27,497.39,395.19,496.7,396.1Zm7.32-6.05-.67.58.71-1,.8-.59Zm-1.59-1.76c-1.1.79-2.22,1.55-3.33,2.33.83-1.33,1.67-2.68,2.5-4q1.78-1.05,3.57-2.13C504.26,385.73,503.35,387,502.43,388.29Zm7.67-5.6-2.36,1.76,1.95-2.82,2.54-1.59Zm7.52-5.78-.74.58.75-1c.29-.18.56-.38.85-.57C518.19,376.28,517.91,376.6,517.62,376.91Zm-1.57-1.77c-1.15.75-2.31,1.51-3.48,2.25.86-1.28,1.73-2.57,2.59-3.88l3.71-2.06C517.93,372.68,517,373.91,516.05,375.14Zm7.87-5.35-2.48,1.73,2-2.71,2.65-1.57C525.4,368.1,524.66,368.94,523.92,369.79ZM522.5,362q1.61-2.58,3.19-5.2c1.8-.75,3.58-1.52,5.36-2.29-1.15,1.66-2.29,3.31-3.45,4.95C525.92,360.35,524.21,361.19,522.5,362Zm9.14,2.27-.79.58.79-.95.9-.55Zm-1.52-1.81-3.64,2.2,2.67-3.73c1.28-.67,2.57-1.32,3.86-2Zm8.08-5.07-2.6,1.66,2.07-2.57c.94-.5,1.87-1,2.8-1.53Zm-1.41-7.61c1.12-1.67,2.22-3.33,3.32-5,1.84-.71,3.69-1.42,5.52-2.15q-1.77,2.4-3.55,4.75C540.33,348.2,538.56,349,536.79,349.81Zm9.3,2.41-.84.56.83-.92c.32-.17.63-.36.95-.54Zm-1.47-1.85c-1.26.72-2.53,1.42-3.8,2.12q1.38-1.78,2.74-3.59c1.35-.62,2.68-1.26,4-1.9C546.59,348.12,545.61,349.25,544.62,350.37Zm8.27-4.8-2.7,1.6,2.12-2.47,2.9-1.46C554.44,344,553.66,344.8,552.89,345.57Zm-1.38-7.47c1.1-1.54,2.19-3.07,3.26-4.62,1.91-.66,3.78-1.32,5.66-2-1.14,1.45-2.29,2.88-3.45,4.31C555.17,336.56,553.35,337.34,551.51,338.1Zm9.48,2.54-.91.56c.28-.3.58-.6.88-.9l1-.52C561.63,340.06,561.31,340.35,561,340.64Zm-1.44-1.88c-1.32.69-2.63,1.38-4,2.05.95-1.14,1.88-2.3,2.81-3.45l4.17-1.81C561.57,336.63,560.57,337.7,559.55,338.76Zm8.48-4.52-2.82,1.53,2.16-2.37,3-1.37Zm-1.58-7.08c1.2-1.57,2.39-3.14,3.58-4.74,2-.61,3.91-1.22,5.83-1.85q-1.89,2.24-3.8,4.44C570.19,325.74,568.34,326.45,566.45,327.16Zm9.92,2.39-1,.59.9-.87c.36-.16.72-.34,1.08-.52Zm-1.48-1.85-4.11,1.94c.89-1,1.76-2,2.63-3l4.25-1.68C576.75,325.86,575.82,326.79,574.89,327.7Zm8.71-4.27c-1,.5-2,1-2.94,1.46.63-.63,1.25-1.27,1.87-1.92l3.05-1.27Zm-1.57-7c1.23-1.51,2.46-3,3.67-4.57q3-.84,6-1.71c-1.3,1.43-2.61,2.86-3.93,4.27C585.9,315.11,584,315.79,582,316.44ZM592.18,319l-1.13.6.48-.44,1-.43Zm-1.93-1.46c-1.38.61-2.78,1.21-4.18,1.81l3.06-3.25c1.48-.52,2.94-1.06,4.41-1.59C592.45,315.52,591.35,316.52,590.25,317.53Zm8.82-3.94-2.93,1.32c.79-.73,1.56-1.49,2.34-2.23l3.17-1.19C600.79,312.19,599.93,312.88,599.07,313.59Zm-1-7.37c1.26-1.45,2.53-2.92,3.78-4.39l6.26-1.57c-1.34,1.38-2.67,2.74-4,4.11Zm9.6,3.31c-.32.14-.63.31-.95.45l1-.86,1.12-.44Zm-1.15-2.07c-1.45.58-2.9,1.16-4.37,1.72,1-1,2.12-2.07,3.16-3.12,1.55-.49,3.07-1,4.61-1.49Zm9.09-3.69-3.13,1.28c.82-.7,1.62-1.43,2.43-2.14,1.1-.37,2.21-.74,3.3-1.12C617.31,302.45,616.45,303.12,615.58,303.77Zm8.87-3.84-1.15.51,1-.8,1.26-.45Zm-1.26-2c-1.51.54-3,1.09-4.56,1.61,1.1-1,2.19-2,3.27-3l4.76-1.36Zm9.36-3.44c-1.1.42-2.21.83-3.33,1.24l2.51-2.05c1.16-.35,2.32-.68,3.46-1Zm9.55-3.74c-.57.23-1.14.47-1.72.69l1-.75,1.63-.53Zm-1.75-1.8-4.74,1.49,3.33-2.86,4.95-1.24C642.72,287.22,641.54,288.08,640.35,289Zm9.77-3.22L646.47,287l2.6-2,3.73-1Zm9.57-3.35L658,283l1-.69,1.65-.48Zm-1.64-1.87q-2.47.69-5,1.37,1.71-1.35,3.39-2.72l5.18-1.1Zm9.93-2.89-3.78,1.12,2.63-1.85,3.91-.9C669.84,276.54,668.91,277.07,668,277.62Zm9.78-3-1.76.56,1.11-.68,1.73-.43Zm-1.58-1.93L671,273.9l.33-.24,3-2.23c1.77-.32,3.54-.63,5.29-1C678.48,271.2,677.35,271.94,676.18,272.66Zm10.19-2.56-4,1,.59-.37,2-1.28c1.35-.25,2.68-.52,4-.79Zm10-2.7-1.86.51.11-.06.87-.5c.6-.11,1.2-.24,1.8-.37Zm-1.72-1.88-5.26,1.06,3.79-2.47,5.33-.79C697.24,264.06,696,264.78,694.66,265.52Zm10.59-2.3-.11,0c-1.3.3-2.62.59-3.95.87l2.92-1.66c1.32-.2,2.63-.41,3.94-.63Zm10.25-2.35-1.78.43c.4-.21.82-.4,1.22-.6l1.66-.28Zm-1.3-2-5.24.88,4-2.31,5.35-.6Zm10.77-1.9c-1.25.23-2.51.46-3.77.67,1-.49,2-1,3.06-1.51l3.79-.45Zm-1.39-2.73-6.32.73,4.76-2.75c2.17-.15,4.34-.29,6.49-.45Zm12.12.68-1.32.26c.35-.16.72-.3,1.08-.46l1.29-.17Zm-.88-2.1c-1.75.24-3.51.45-5.28.68l4.22-2.11,5.38-.41Zm11.24-1.56c-1.25.18-2.48.37-3.73.54l3.1-1.33,3.77-.33Zm-1.21-2.72c-2.15.19-4.31.36-6.48.54l5-2.53,6.66-.22C748.3,247,746.58,247.76,744.85,248.5Zm12.41,1-1,.15.85-.31,1-.09Zm-.67-2.09c-1.79.18-3.58.34-5.39.5l4.3-1.86,5.5-.22Zm11.72-1.15-3.71.38,3-1.11,3.75-.18Zm-1.16-2.68c-2.21.1-4.42.21-6.65.3l5.13-2.25,6.82,0ZM780.33,245l-1,.11.44-.13.81,0Zm-1-2-5.54.29,4.36-1.61h5.57Zm12.33-.73c-1.29.09-2.57.17-3.88.24l2.91-.88,3.79,0Zm-1.34-2.61-6.86.05,5.19-1.95,7,.29C793.9,238.6,792.14,239.14,790.36,239.67Zm12.78,1.89.2-.05H804Zm-.11-2-3.59,0-2.11,0c1.43-.43,2.86-.88,4.28-1.32l5.7.2Zm12.65-.19-3.88.07,2.71-.68,3.76.13Z"/></g></g></svg>