<svg xmlns="http://www.w3.org/2000/svg" xmlns:xlink="http://www.w3.org/1999/xlink" viewBox="0 0 1280 200"><defs><style>.cls-1{opacity:0.1;fill:url(#linear-gradient);}</style><linearGradient id="linear-gradient" y1="100" x2="1280" y2="100" gradientUnits="userSpaceOnUse"><stop offset="0" stop-color="#83fff2"/><stop offset="1" stop-color="#124fe6"/></linearGradient></defs><g id="Layer_2" data-name="Layer 2"><g id="Layer_1-2" data-name="Layer 1"><path class="cls-1" d="M1280,.43V0a286.24,286.24,0,0,0-39.79,8.37Q1230,10.34,1220,13q-10.59,1.82-20.93,4.25-10.93,1.64-21.63,3.84-11.25,1.39-22.2,3.33-11.67,1.14-23,2.78-12,.83-23.64,2.12-10.21.42-20.1,1.12c-1.18.08-2.39.19-3.61.32q-5.65,0-11.19.18h0c-3,.07-6.2.29-9.47.63l-5.32-.13a120,120,0,0,0-14,.56l-.84-.05a121,121,0,0,0-17.86.23,127,127,0,0,0-18.72,0,131.66,131.66,0,0,0-18.7-.16,136.83,136.83,0,0,0-18.67-.3,140.31,140.31,0,0,0-18.59-.41,141.37,141.37,0,0,0-18.34-.5,144.91,144.91,0,0,0-18.34-.59,144.72,144.72,0,0,0-18.22-.66,144.76,144.76,0,0,0-18.1-.72,146.58,146.58,0,0,0-18-.78h0a147.21,147.21,0,0,0-17.63-.81h-.27a146.67,146.67,0,0,0-17.34-.86h-.43a145.56,145.56,0,0,0-17.13-.9h-.6a146,146,0,0,0-16.9-.92c-26.76.06-56.11,6.87-92.37,21.45C665.53,59,631.4,76.64,595.28,95.35c-26.54,13.73-54.73,28.33-84.35,42.09-119.22-22.85-225.2-36.94-315.26-41.91C119.11,91.31,53.31,93.61,0,102.38v.46C53.17,94,118.91,91.71,195.48,95.93c89.89,5,195.69,19,314.73,41.84-2.34,1.09-4.7,2.17-7.06,3.25C384.05,117.92,278.07,103.67,188,98.64,115,94.57,51.83,96.5,0,104.38v.45C51.69,96.91,114.83,95,187.82,99c89.88,5,195.68,19.25,314.61,42.31q-3.58,1.62-7.2,3.23c-118.9-23.33-224.82-37.74-314.86-42.84C110.91,97.81,50.31,99.38,0,106.4v.44c50.19-7,110.73-8.62,180.19-4.7,89.86,5.09,195.6,19.48,314.3,42.77-2.42,1.08-4.86,2.15-7.3,3.22l-4.32-.84c-116.48-23.11-220.56-37.44-309.34-42.6C107.24,100.84,49,102.05,0,108.29v.44c48.85-6.27,107.07-7.49,173.33-3.64,88.64,5.15,192.57,19.47,308.92,42.55l4.19.81q-3.66,1.59-7.34,3.15-5.81-1-11.54-2.18c-113.09-22.5-214.5-36.53-301.41-41.69C103.22,104,47.44,104.87,0,110.31v.43c47.33-5.46,103.05-6.34,166-2.6,86.75,5.15,188,19.15,301,41.63q5.66,1.13,11.38,2.15c-2.43,1-4.88,2.05-7.33,3.06q-9.44-1.59-18.75-3.44C342.59,129.67,243.86,116,158.82,110.78,99.18,107.15,45.88,107.69,0,112.36v.43c45.77-4.69,99-5.24,158.6-1.61,84.9,5.16,183.49,18.86,293,40.71q9.21,1.85,18.58,3.41c-2.43,1-4.88,2-7.33,3q-13.1-2-25.93-4.6C330.76,132.43,234.74,119,151.55,113.82,95.14,110.29,44.31,110.5,0,114.44v.42c44.21-3.94,95-4.17,151.33-.64,83,5.19,178.93,18.58,285,39.8,8.48,1.7,17.08,3.22,25.74,4.58q-3.66,1.46-7.34,2.88-16.74-2.4-33.09-5.68C319,135.21,225.73,122.11,144.41,116.86c-53.28-3.44-101.7-3.54-144.41-.31V117c42.62-3.24,91-3.15,144.2.29,81.18,5.24,174.32,18.32,276.81,38.89q16.23,3.25,32.88,5.65c-2.43.94-4.88,1.86-7.33,2.78-13.56-1.78-27-4-40.23-6.66-99-19.91-189.44-32.7-268.9-38-50.24-3.36-96.3-3.77-137.43-1.21v.41c41-2.56,87-2.16,137.2,1.2,79.32,5.31,169.66,18.08,268.51,38,13.14,2.65,26.5,4.86,40,6.63q-3.66,1.36-7.33,2.68c-16-1.88-31.8-4.39-47.34-7.53-95.16-19.2-182.73-31.68-260.28-37.1C83.37,119.64,39.57,119,0,120.86v.41c39.48-1.92,83.22-1.22,130.53,2.08,77.4,5.41,164.84,17.87,259.87,37.05q23.69,4.78,47,7.51-3.65,1.31-7.31,2.56c-18.32-1.9-36.56-4.68-54.42-8.29C284.55,143.73,200,131.56,124.44,126c-44.67-3.28-86.35-4.26-124.44-3v.41c38-1.32,79.61-.34,124.22,2.94,75.43,5.53,159.83,17.68,250.87,36.11,17.74,3.59,35.87,6.36,54.08,8.27q-3.66,1.26-7.33,2.47a560.08,560.08,0,0,1-61.43-9c-88.4-17.94-171-29.88-245.44-35.47-40.85-3.07-79.34-4.24-115-3.52v.41c35.57-.73,74,.45,114.78,3.51,74.32,5.59,156.75,17.51,245,35.42a565.34,565.34,0,0,0,61.09,8.94q-3.64,1.18-7.3,2.33a544.42,544.42,0,0,1-68.47-9.49c-83.45-17-162.25-28.57-234.23-34.39-39-3.17-76.16-4.65-110.87-4.45v.4c34.61-.2,71.63,1.29,110.59,4.44,71.85,5.82,150.54,17.38,233.88,34.35a550.93,550.93,0,0,0,68,9.48q-3.58,1.13-7.2,2.2a534.61,534.61,0,0,1-75.5-9.9c-78.5-16-153.54-27.25-223-33.31-37.27-3.26-73-5-106.77-5.34v.4c33.69.31,69.35,2.09,106.55,5.34,69.34,6,144.24,17.24,222.61,33.26a539,539,0,0,0,74.95,9.9q-3.56,1-7.09,2.05a523.92,523.92,0,0,1-82.53-10.17c-73.57-15.09-144.84-25.93-211.82-32.23C67.16,135.13,32.81,133.05,0,132.27v.4c32.7.79,67,2.86,102.34,6.19,66.87,6.28,138,17.11,211.51,32.17a524.36,524.36,0,0,0,81.88,10.19c-2.36.66-4.7,1.3-7,1.92a510,510,0,0,1-89.52-10.33A1998.76,1998.76,0,0,0,98.55,141.69c-33.75-3.42-66.73-5.77-98.55-7v.41c31.73,1.25,64.61,3.59,98.27,7a1998.12,1998.12,0,0,1,200.27,31.08,513.22,513.22,0,0,0,88.75,10.35c-2.31.61-4.6,1.2-6.9,1.77a499.78,499.78,0,0,1-96.52-10.34c-63.71-13.16-127.45-23.27-189.45-30-32-3.49-63.61-6.1-94.42-7.81v.42c30.71,1.69,62.2,4.3,94.1,7.78,61.89,6.75,125.53,16.84,189.13,30a502.14,502.14,0,0,0,95.56,10.38c-2.24.55-4.48,1.09-6.7,1.6a488.11,488.11,0,0,1-103.53-10.2c-58.79-12.2-118.77-21.93-178.28-28.92C60,144.59,29.79,141.73,0,139.6V140c29.67,2.12,59.76,5,89.93,8.52,59.41,7,119.3,16.7,178,28.87A491.1,491.1,0,0,0,370.25,187.7c-2.16.49-4.3,1-6.45,1.43a477.85,477.85,0,0,1-110.55-9.94c-53.86-11.22-110.1-20.58-167.12-27.8-28.58-3.62-57.39-6.71-86.13-9.25v.43c28.6,2.52,57.27,5.6,85.7,9.2,57,7.21,113.11,16.56,166.91,27.77a480.81,480.81,0,0,0,109,10.06c-2.06.43-4.13.85-6.18,1.25a474.74,474.74,0,0,1-54.58-.71A472.13,472.13,0,0,1,238,181.32c-49-10.26-101.44-19.24-156-26.69-26.88-3.67-54.3-7-82-9.89v.42c27.52,2.9,54.79,6.2,81.54,9.85,54.46,7.45,106.87,16.41,155.77,26.66a470.62,470.62,0,0,0,108.16,9.93q3.64-.09,7.3-.23l-5.7,1-2.36.14a464,464,0,0,1-59.68-.34,463.85,463.85,0,0,1-62.39-8.77C145.39,167.17,65,155.41,0,147.39v.43c100.46,12.38,174.91,26.05,222,36a460.26,460.26,0,0,0,106.39,9.85q7.59-.19,15.21-.61c-1.62.28-3.26.55-4.88.81q-5.13.42-10.25.73a451.34,451.34,0,0,1-59.2-.26,453.28,453.28,0,0,1-61.93-8.73C139.2,171.12,63.24,159,0,150.1v.43c97.33,13.77,165.05,26.56,206.69,35.39a450.62,450.62,0,0,0,104.72,9.77q11.05-.25,22.2-1.06l-3.18.46q-9.1.93-18.19,1.51a442.57,442.57,0,0,1-58.73-.18A442.53,442.53,0,0,1,192,187.7c-57.92-12.38-128-24.56-192-34.82v.45c63.87,10.24,133.66,22.38,191.37,34.72a441.14,441.14,0,0,0,103.17,9.72q12.82-.3,25.74-1.35-12.15,1.46-24.25,2.25a432.24,432.24,0,0,1-58.26-.12,433.8,433.8,0,0,1-61.05-8.72C127.49,179.2,62,166.86,0,155.7v.47c61.77,11.12,127,23.41,176.06,34a430.88,430.88,0,0,0,101.73,9.71,451.88,451.88,0,0,0,52.74-4.4q8.4-.85,16.85-2,8.53-.85,17.15-2,8.63-.85,17.3-2,8.7-.85,17.47-2,8.79-.84,17.64-2,8.85-.84,17.76-2,8.93-.84,17.93-2,8.81-.81,17.67-1.9,9.61-.87,19.11-2,9-.81,18.06-1.88,9.35-.82,18.79-1.93,9.9-.84,19.88-2,10.33-.88,20.77-2.08,9.09-.79,18.08-1.79,11.13-.93,22.38-2.19,9.81-.84,19.7-1.94,10.15-.85,20.41-2,9.59-.81,19.3-1.86,9.68-.79,19.46-1.82,8.49-.69,17.08-1.55,11.32-.85,22.83-2,9.66-.75,19.4-1.69c62.35-4.61,127.6-15.53,194-32.49,25.35-6.48,49.52-13.5,72.23-20.71q31.5,8.82,65.42,16.5c62.07,14,130.16,25.14,202.81,33.13v-.43c-72.41-8-140.28-19.06-202.15-33q-33.8-7.65-65.2-16.44,5.91-1.87,11.66-3.77,30.57,8.3,63.48,15.6c59,13.08,123.46,23.8,192.21,31.93v-.43c-68.49-8.12-132.77-18.8-191.55-31.84q-32.76-7.27-63.26-15.54,5.79-1.9,11.45-3.82,29.76,7.78,61.76,14.76c55.85,12.17,116.77,22.45,181.6,30.65v-.44c-64.59-8.18-125.29-18.43-180.94-30.55q-31.87-6.95-61.56-14.71,5.7-1.93,11.25-3.87,29.05,7.33,60.29,14c52.73,11.26,110,21.07,171,29.26v-.44c-60.68-8.17-117.78-17.94-170.31-29.16q-31.11-6.65-60.1-14,5.61-2,11-3.91,28.48,6.93,59.1,13.34C1169.3,106.75,1223,116.06,1280,124.16v-.45c-56.75-8.07-110.27-17.35-159.65-27.67q-30.48-6.37-58.88-13.29,5.49-2,10.82-4,28.05,6.57,58.18,12.73c46.4,9.49,96.5,18.26,149.53,26.18v-.44c-52.81-7.9-102.69-16.64-148.91-26.09q-30-6.14-58-12.68,5.4-2,10.61-4,27.75,6.23,57.57,12.19c43.19,8.62,89.63,16.82,138.7,24.49v-.45c-48.84-7.64-95.07-15.8-138.08-24.39q-29.72-5.94-57.37-12.14c3.52-1.34,7-2.68,10.4-4q27.6,5.91,57.29,11.7c40,7.78,82.71,15.37,127.76,22.69v-.45c-44.83-7.29-87.39-14.85-127.15-22.59q-29.58-5.77-57.1-11.66,5.19-2,10.18-4,27.64,5.63,57.41,11.28C1200,84.11,1239,91.06,1280,98V97.5c-40.78-6.86-79.61-13.78-116.07-20.69q-29.64-5.62-57.21-11.24c3.41-1.36,6.73-2.7,10-4,55,10.58,111.32,20.69,163.29,29.68v-.45c-63.74-11-117.51-20.89-162.5-29.55q5-2,9.74-4c50.49,9.09,102.63,18.36,152.76,27.21v-.46c-49.89-8.81-101.75-18-152-27.08q4.9-2.06,9.55-4.05c47.14,7.85,95.63,16.3,142.44,24.67V77c-46.58-8.33-94.79-16.73-141.67-24.53q4.85-2.08,9.4-4.09,30.12,4.55,62.7,10,33.57,5.58,69.57,12v-.46q-35.67-6.39-69-11.93-32.43-5.38-62.49-9.92,4.79-2.1,9.21-4.1,31.43,4.17,65.42,9.58,27.65,4.4,56.89,9.58v-.46q-28.93-5.13-56.37-9.49-33.84-5.37-65.18-9.55,4.71-2.13,9-4.12,33,3.7,68.6,9.09,21.5,3.24,43.91,7.11v-.46q-22.14-3.81-43.41-7-35.46-5.35-68.36-9.05c3.1-1.44,6-2.81,8.82-4.12q34.68,3,72.14,8.38,15.19,2.17,30.81,4.72v-.45q-15.36-2.5-30.33-4.64-37.26-5.32-71.87-8.36,4.58-2.17,8.5-4.08,36.5,2.14,75.83,7.4,8.86,1.18,17.87,2.53v-.45q-8.77-1.31-17.41-2.46-39.09-5.22-75.54-7.39c2.26-1.09,4.34-2.12,6.24-3.06l1.8-.88q38.33,1,79.54,6.08l5.37.68v-.43c-1.65-.22-3.29-.43-4.94-.63q-40.93-5.05-79.17-6.09,4-1.92,8-3.71A666.52,666.52,0,0,1,1280,25.9v-.43a670.32,670.32,0,0,0-75.19-3.69c2.67-1.18,5.36-2.31,8.06-3.41a545.9,545.9,0,0,1,67.13.85V18.8a549.23,549.23,0,0,0-66-.9q4-1.59,8-3.06a452.89,452.89,0,0,1,58-1.66v-.41a457,457,0,0,0-56.39,1.5q3.86-1.38,7.76-2.65A383.89,383.89,0,0,1,1280,7.93V7.52a387.13,387.13,0,0,0-46.23,3.33q3.6-1.14,7.21-2.18c2.88-.56,5.77-1.07,8.67-1.55q14.89-2.43,30.35-3.5V3.2a332.52,332.52,0,0,0-34.28,4.16c5.89-1.58,11.85-3,17.83-4.16Q1271.68,1.58,1280,.43Zm-65.13,13.91c-1.58.44-3.14.89-4.71,1.35-1.75.22-3.5.44-5.25.68Q1209.86,15.28,1214.87,14.34Zm-15.2,3.22q4-.6,8-1.12c-2.41.74-4.82,1.51-7.21,2.3q-4.28.33-8.49.72C1194.53,18.8,1197.09,18.16,1199.67,17.56ZM383.56,187.05q3.07-.66,6.17-1.36c2.17,0,4.35-.05,6.54-.09-2.06.41-4.12.82-6.18,1.21Zm3.69.29q-2.81.53-5.6,1l-6,.33,5.62-1.14Q384.26,187.46,387.25,187.34ZM1167.83,26.11c-1.76.6-3.5,1.2-5.24,1.82l-3,1.1c-3.78-.1-7.52-.18-11.24-.23l.23-.07c2.83-.83,5.69-1.63,8.55-2.39C1160.65,26.23,1164.23,26.16,1167.83,26.11Zm-9-.23q4.28-1.12,8.6-2.14c3.24-.25,6.5-.46,9.76-.65q-4.08,1.25-8.11,2.6C1165.66,25.72,1162.24,25.79,1158.85,25.88ZM417.47,181.35l6.77-1.68c2.43.06,4.85.1,7.29.13-2.28.53-4.54,1-6.8,1.54Q421.1,181.37,417.47,181.35Zm5.25.42-6.57,1.38q-3.48.09-6.95.13c2.19-.49,4.37-1,6.57-1.52Q419.25,181.79,422.72,181.77ZM1126.63,35.49l-8.49,3.15q-5.85-.66-11.6-1.28c2.89-1,5.68-1.93,8.36-2.79C1118.77,34.86,1122.69,35.16,1126.63,35.49ZM1116,34.23c2.9-.92,5.66-1.77,8.3-2.53q5.79.21,11.67.51c-2.65.91-5.44,1.89-8.35,2.95Q1121.72,34.67,1116,34.23ZM452,175.17c1.78-.48,3.56-1,5.35-1.46l1.91-.54q3.92.21,7.85.37-3.68,1-7.34,1.86C457.15,175.34,454.57,175.26,452,175.17Zm6.33.58q-3.6.88-7.18,1.71c-2.52,0-5-.05-7.54-.1,2.36-.6,4.74-1.22,7.11-1.85Q454.5,175.66,458.31,175.75ZM1085.56,44.31q-4.27,1.59-8.75,3.28l-11.16-2c2.93-1.05,5.8-2.07,8.59-3.05Zm-10.43-2.11c2.88-1,5.7-2,8.44-2.88L1095,40.84q-4.18,1.52-8.6,3.15ZM487.18,168.52c2.47-.73,4.93-1.46,7.39-2.21l3.52.26c1.62.12,3.22.23,4.84.33-2.48.71-5,1.4-7.48,2.08C492.69,168.85,489.93,168.69,487.18,168.52Zm7,.81-2.64.71-4.78,1.25c-2.7-.1-5.38-.22-8.06-.35,2.44-.68,4.88-1.38,7.32-2.08C488.72,169,491.45,169.19,494.17,169.33ZM1044.43,52.79l-9,3.43q-5.39-1.3-10.65-2.6c3-1.11,6-2.21,8.88-3.26Zm-10-2.73c3-1.08,5.88-2.13,8.74-3.14l11,2.25q-4.37,1.61-8.9,3.32Zm-41.66,8.12c3.42,1,6.88,2,10.36,2.94l-9.29,3.54q-5.15-1.52-10.19-3Zm-10,3.16c-3.42-1.05-6.83-2.1-10.2-3.16l9-3.3q5.12,1.53,10.34,3Q987.4,59.59,982.77,61.34Zm10.84-3.46q4.56-1.71,9-3.34l10.49,2.82L1004,60.81Q998.73,59.36,993.61,57.88Zm10.47,3.5q5.11,1.42,10.33,2.84l-9.5,3.64q-5.11-1.47-10.14-2.93Zm.81-.3,9.17-3.47,10.51,2.73-9.17,3.5-.19.08Q1010,62.5,1004.89,61.08Zm10-3.78,9-3.37,10.66,2.59-9.2,3.51Q1020.06,58.68,1014.87,57.3Zm8.87-3.92q-5.36-1.32-10.61-2.65,4.43-1.59,8.72-3.07l10.75,2.47Q1028.25,51.71,1023.74,53.38Zm-.81.3-9,3.37q-5.29-1.39-10.48-2.81,4.5-1.65,8.86-3.21Q1017.56,52.37,1022.93,53.68Zm-20.45.31q-5.26-1.44-10.43-2.88c3-1,5.86-2,8.73-3q5.21,1.35,10.54,2.7Q1007,52.34,1002.48,54Zm-.82.3c-2.95,1.08-5.93,2.19-9,3.32q-5.22-1.5-10.33-3l8.85-3.17Q996.39,52.85,1001.66,54.29Zm-20.21,0q-5.13-1.53-10.17-3.08,4.44-1.54,8.75-3,5.07,1.47,10.26,2.92C987.38,52.17,984.44,53.23,981.45,54.31Zm-.82.3c-2.94,1.08-5.92,2.17-8.94,3.3-3.4-1.08-6.77-2.15-10.1-3.24,3-1.08,5.94-2.13,8.85-3.15Q975.49,53.08,980.63,54.61Zm-9.75,3.6q-4.49,1.66-9.07,3.4-5-1.68-10-3.36,4.53-1.68,9-3.28C964.09,56.06,967.47,57.13,970.88,58.21Zm-10.19-3.83q-5-1.64-9.88-3.28c3-1,5.9-2,8.78-3,3.28,1,6.58,2.08,9.93,3.11C966.61,52.26,963.67,53.3,960.69,54.38Zm-.82.3Q955.46,56.27,951,58q-5-1.71-9.84-3.43c3-1.07,5.94-2.11,8.86-3.13C953.23,52.5,956.54,53.59,959.87,54.68Zm-9.74,3.57q-4.47,1.65-9,3.38c-3.28-1.17-6.52-2.35-9.75-3.54q4.51-1.68,8.94-3.27Q945.16,56.55,950.13,58.25Zm-9.86-4c-3.21-1.15-6.4-2.29-9.56-3.45q4.47-1.55,8.82-3c3.17,1.11,6.35,2.2,9.58,3.3Q944.75,52.63,940.27,54.23Zm-.82.29q-4.43,1.59-8.93,3.26Q925.71,56,921,54.19q4.49-1.61,8.88-3.12Q934.61,52.81,939.45,54.52Zm-9.75,3.57q-4.46,1.65-9,3.37-4.79-1.83-9.46-3.71,4.5-1.66,8.93-3.26Q924.89,56.31,929.7,58.09Zm-9.51-4.21q-4.62-1.77-9.17-3.58,4.49-1.54,8.86-3,4.54,1.72,9.17,3.44C926.13,51.78,923.17,52.82,920.19,53.88Zm-.83.3q-4.43,1.59-8.93,3.26-4.62-1.84-9.16-3.72,4.49-1.62,8.9-3.13Q914.72,52.39,919.36,54.18Zm-9.75,3.56q-4.46,1.66-9,3.38-4.59-1.89-9.12-3.83,4.5-1.68,8.94-3.27C903.46,55.27,906.53,56.51,909.61,57.74ZM900.5,53.4q-4.43-1.84-8.77-3.7c3-1,6-2,8.9-3q4.33,1.8,8.75,3.56C906.45,51.28,903.49,52.33,900.5,53.4Zm-.84.3q-4.42,1.59-8.93,3.26-4.44-1.91-8.8-3.83,4.52-1.62,8.94-3.14Q895.22,51.85,899.66,53.7ZM522.72,161.53l7.47-2.39q4.41.44,8.84.81c-2.51.77-5,1.53-7.56,2.27Q527.09,161.9,522.72,161.53Zm7.61,1c-2.5.73-5,1.45-7.54,2.16-2.26-.14-4.51-.28-6.75-.44l-1.84-.14q3.75-1.12,7.47-2.29C524.55,162.11,527.44,162.34,530.33,162.56Zm10.1-2.48q4.41.36,8.8.68-3.78,1.08-7.57,2.13c-2.55-.15-5.09-.3-7.62-.48l-1.1-.08Q536.71,161.22,540.43,160.08Zm1.07-.33c2.51-.78,5-1.56,7.51-2.36,3,.29,6,.55,9,.8-2.52.76-5.06,1.5-7.6,2.24C547.43,160.22,544.46,160,541.5,159.75Zm17.91-1.44q4.47.38,9,.67-3.79,1.07-7.6,2.1-4.14-.22-8.25-.5l-.62-.05C554.4,159.8,556.91,159.07,559.41,158.31Zm1.09-.32L568,155.7q4.54.42,9.1.79-3.74,1.09-7.5,2.16C566.53,158.44,563.51,158.23,560.5,158Zm18-1.39q4.53.36,9.07.66c-2.49.69-5,1.36-7.49,2q-4.2-.21-8.37-.48l-.65-.05Q574.79,157.7,578.51,156.6Zm1.11-.33c2.55-.75,5.1-1.52,7.64-2.29q4.63.41,9.28.77-3.85,1.11-7.74,2.18Q584.2,156.63,579.62,156.27Zm18.4-1.41c3.09.24,6.19.45,9.29.65-2.58.69-5.15,1.37-7.74,2-2.48-.13-5-.26-7.42-.41l-1.79-.11Q594.21,156,598,154.86Zm1.16-.33q3.83-1.11,7.64-2.25c3.14.28,6.29.53,9.45.77-2.56.72-5.13,1.42-7.71,2.12C605.43,155,602.3,154.76,599.18,154.53Zm18.59-1.37c3.14.23,6.3.44,9.46.63-2.55.67-5.12,1.33-7.68,2-3.14-.15-6.28-.32-9.4-.5Zm1.16-.33C683.86,134.46,743.56,109.47,797.17,87c29.44-12.32,57.69-24.14,83.92-33.61q4.38,1.93,8.82,3.84c-22.18,8.26-45.74,17.93-70.14,27.94-57.2,23.47-121.24,49.74-191.26,68.24Q623.71,153.17,618.93,152.83Zm262.26-100Q877,50.92,872.8,49c3-1,6-2,9-3,2.75,1.22,5.55,2.44,8.35,3.65Q885.7,51.19,881.19,52.81Zm-.84.3C854,62.59,825.73,74.44,796.23,86.78c-53.78,22.5-113.68,47.57-178.79,65.94-3.19-.24-6.36-.49-9.53-.76C668.28,133.8,724,110,774.65,88.37,809,73.68,841.83,59.67,871.94,49.3Q876.11,51.22,880.35,53.11Zm-106.66,35c-50.8,21.7-106.66,45.56-167.2,63.71q-4.77-.41-9.51-.89C653.31,133,705.59,110.18,753,89.51c39.89-17.4,76.64-33.44,110.24-44.29q4,1.89,8,3.75C841,59.36,808.15,73.4,773.69,88.12Zm-168.3,64c-2.56.76-5.13,1.52-7.7,2.26q-4.7-.36-9.34-.77c2.54-.79,5.08-1.58,7.62-2.39Q600.67,151.74,605.39,152.16ZM587,153.52q-4.69-.42-9.34-.9c2.54-.83,5.08-1.67,7.6-2.52q4.69.54,9.42,1C592.07,151.94,589.51,152.73,587,153.52Zm-1.08.33c-2.56.78-5.12,1.55-7.7,2.31-3.06-.24-6.12-.51-9.18-.79q3.82-1.2,7.62-2.43C579.69,153.26,582.78,153.57,585.87,153.85Zm-18.24,1.39c-3.07-.29-6.12-.6-9.17-.92l7.57-2.56c3.08.37,6.17.71,9.26,1C572.75,153.63,570.19,154.44,567.63,155.24Zm-1,.33-7.51,2.3q-4.53-.37-9-.8,3.74-1.2,7.45-2.43C560.51,155,563.55,155.28,566.59,155.57Zm-17.91,1.37c-3-.3-6-.61-9-.95q3.72-1.26,7.42-2.55,4.54.56,9.12,1.06Zm-1,.32q-3.78,1.2-7.56,2.37c-3-.26-6-.53-8.92-.82q3.75-1.23,7.5-2.49C541.67,156.65,544.67,157,547.67,157.26Zm-17.81,1.41q-4.47-.43-8.93-.95,3.75-1.31,7.47-2.62c3,.37,6,.74,9,1.08Q533.64,157.44,529.86,158.67Zm-1,.33c-2.5.81-5,1.61-7.54,2.4-2.94-.26-5.86-.53-8.79-.83,2.49-.83,5-1.68,7.45-2.53Q524.43,158.55,528.87,159Zm-8.59,2.73q-3.75,1.17-7.53,2.3-4.32-.32-8.63-.71,3.74-1.2,7.45-2.43Q515.92,161.34,520.28,161.73Zm-8.64,2.64c-2.5.74-5,1.48-7.52,2.2-1.93-.13-3.85-.25-5.77-.39l-2.69-.21c2.49-.76,5-1.54,7.43-2.32C505.93,163.91,508.79,164.15,511.64,164.37ZM504.46,167c2.75.17,5.51.33,8.28.46-1.14.31-2.28.6-3.42.9l-4.06,1c-2.73-.1-5.46-.21-8.17-.34Q500.78,168.05,504.46,167Zm1.2-.34c2.49-.71,5-1.44,7.43-2.18l2.7.2c1.92.14,3.84.26,5.78.38-2.5.7-5,1.38-7.53,2.06Q509.84,166.91,505.66,166.66Zm17.46-1.5q4.18.24,8.39.45l-4.13,1.06c-1.13.28-2.25.57-3.38.84-2.78-.09-5.55-.19-8.31-.32Q519.41,166.2,523.12,165.16Zm1.22-.35q3.74-1,7.47-2.15l2,.15q3.3.23,6.62.42c-2.51.69-5,1.36-7.56,2Q528.59,165.07,524.34,164.81ZM542,163.33c2.84.16,5.68.3,8.54.43l-4.75,1.2-2.79.68c-2.83-.09-5.64-.19-8.46-.31C537,164.68,539.51,164,542,163.33Zm1.24-.35c2.51-.69,5-1.4,7.5-2.11l1.54.11c2.4.16,4.8.3,7.22.44q-3.78,1-7.58,2C549,163.29,546.11,163.14,543.23,163Zm17.86-1.47c2.89.16,5.78.3,8.69.42-2.51.63-5,1.24-7.56,1.85-2.87-.09-5.75-.18-8.6-.3C556.11,162.84,558.61,162.18,561.09,161.51Zm1.27-.34c2.51-.68,5-1.38,7.52-2.08l1.61.11c2.42.15,4.86.3,7.3.43-2.52.66-5.06,1.31-7.6,2C568.24,161.46,565.29,161.32,562.36,161.17Zm18.08-1.46c2.95.16,5.92.29,8.89.41l-5.4,1.31-2.16.5q-4.41-.12-8.82-.28C575.46,161,578,160.37,580.44,159.71Zm1.31-.34,7.4-2,2.78.17q3.15.19,6.3.35c-2.47.64-5,1.26-7.44,1.88C587.77,159.65,584.75,159.52,581.75,159.37ZM599.89,158q4.51.22,9.06.4l-5.08,1.19-2.3.53c-3-.07-6-.16-9-.26Q596.24,158.92,599.89,158Zm1.35-.35c2.55-.66,5.09-1.34,7.63-2q4.64.28,9.29.51-3.85,1-7.72,1.9Q605.82,157.85,601.24,157.63Zm18.61-1.43c3.07.15,6.15.27,9.23.38l-4.53,1-3.15.71c-3.06-.07-6.11-.15-9.14-.26C614.79,157.47,617.33,156.84,619.85,156.2Zm1.38-.35c2.54-.64,5.08-1.3,7.6-2,2.58.15,5.15.29,7.73.41l1.71.08q-3.81.94-7.64,1.84C627.49,156.12,624.35,156,621.23,155.85Zm15.5-1.95c-2.2-.11-4.41-.22-6.62-.35,69.8-18.52,133.59-44.7,190.6-68.09,24.34-10,47.84-19.63,70-27.87,3,1.29,6.06,2.58,9.13,3.84-17.7,6.74-36.25,14.21-55.35,21.9C783.6,107.84,715.13,135.42,639.68,154ZM845.39,83.59c19-7.67,37.54-15.12,55.19-21.84q4.67,1.92,9.41,3.8c-12.83,5-26.08,10.19-39.62,15.55-64.74,25.65-138,54.64-219.46,73.37-3.18-.1-6.34-.22-9.5-.35C716.58,135.47,784.76,108,845.39,83.59Zm56-22.15q4.56-1.72,9-3.38,4.7,1.86,9.47,3.71l-9.08,3.47Q906.05,63.35,901.39,61.44Zm19.3.64q4.78,1.83,9.68,3.64l-9.24,3.56q-4.8-1.84-9.55-3.72Q916.17,63.79,920.69,62.08Zm.8-.31q4.56-1.73,9-3.38,4.85,1.78,9.77,3.55l-9.12,3.47Q926.28,63.61,921.49,61.77Zm19.64.47Q946.05,64,951,65.7l-9.28,3.56q-4.92-1.76-9.76-3.54Zm.82-.31c3-1.14,6.06-2.28,9-3.38q5,1.7,10,3.36-4.53,1.71-9.18,3.49Q946.85,63.68,942,61.93Zm19.92.26q5,1.65,10.07,3.27L962.59,69c-3.33-1.11-6.64-2.22-9.9-3.34Zm.81-.3,9.08-3.41q5.06,1.59,10.21,3.16l-9.23,3.51C969.35,64.07,966,63,962.68,61.89Zm20.19,0q5.05,1.55,10.18,3l-8.37,3.2-1,.4q-5-1.56-10-3.13Zm2.72,6.52,8.38-3.2q5,1.47,10.14,2.93l-9.65,3.68-9.93-3Zm19.44,0,10.1,2.82q-4.89,1.86-9.89,3.74-5-1.42-9.87-2.88Zm.8-.31,9.52-3.64c3.42.92,6.85,1.84,10.32,2.75L1015.93,71Q1010.85,69.54,1005.83,68.12Zm10.32-4,.16-.06,9.22-3.52q5.21,1.33,10.52,2.65l-9.58,3.68C1023,66,1019.57,65.09,1016.15,64.17Zm10.18-3.89,9.24-3.52q5.29,1.27,10.7,2.54l-9.42,3.64Q1031.54,61.61,1026.33,60.28Zm10-3.83,9.08-3.43,10.88,2.4-8.94,3.45-.32.12Q1041.67,57.73,1036.37,56.45Zm9.9-3.73q4.56-1.72,8.94-3.34l11,2.24q-4.47,1.7-9.12,3.49Zm9.78-3.65q4.47-1.65,8.74-3.2l11.19,2-8.91,3.39Zm8.5-3.71-11-2q4.29-1.45,8.4-2.78l11.18,1.76Q1068.92,43.79,1064.55,45.36Zm-.86.31-8.7,3.18q-5.58-1.14-10.93-2.24,4.37-1.53,8.56-3ZM1043,46.4c-3.7-.77-7.31-1.51-10.82-2.25q4.27-1.41,8.4-2.7l10.92,2C1048.73,44.39,1045.9,45.38,1043,46.4Zm-.87.3q-4.28,1.52-8.71,3.12l-10.72-2.46q4.36-1.52,8.58-2.91Zm-20.44.43q-5.36-1.25-10.58-2.49,4.3-1.39,8.46-2.65l10.66,2.24C1027.44,45.16,1024.6,46.12,1021.7,47.13Zm-.85.29c-2.86,1-5.75,2-8.7,3.06q-5.31-1.33-10.52-2.69c2.92-1,5.78-1.94,8.6-2.86Zm-20.17.12-10.25-2.7q4.38-1.38,8.53-2.61,5.09,1.23,10.28,2.46C1006.43,45.61,1003.58,46.55,1000.68,47.54Zm-.86.29c-2.85,1-5.75,2-8.7,3-3.45-1-6.85-1.93-10.23-2.91,2.93-1,5.82-1.92,8.65-2.82Q994.63,46.49,999.82,47.83Zm-19.88-.16q-5-1.44-9.89-2.9c2.94-.91,5.82-1.77,8.62-2.59q4.89,1.35,9.88,2.68Q984.31,46.21,979.94,47.67Zm-.86.29c-2.87,1-5.77,2-8.72,3-3.34-1-6.63-2.07-9.9-3.11q4.34-1.43,8.55-2.75l.15,0Q974.07,46.51,979.08,48Zm-10.89-3.17q-4.25,1.34-8.61,2.77c-3.21-1-6.37-2.05-9.51-3.08q4.45-1.36,8.71-2.57,4.68,1.44,9.47,2.86Zm-9.48,3.06q-4.32,1.42-8.76,3c-3.22-1.09-6.39-2.19-9.54-3.29,2.8-.92,5.56-1.8,8.3-2.64l.46-.14Q953.9,46.31,958.71,47.85Zm-10.82-3.26q-4.11,1.27-8.33,2.65c-3-1.08-6.07-2.15-9.07-3.24q4.5-1.35,8.82-2.55,4.46,1.52,9,3Zm-9.2,2.93q-4.35,1.42-8.8,3-4.62-1.71-9.13-3.43c2.75-.89,5.48-1.75,8.17-2.58l.66-.19Q934.09,45.9,938.69,47.52Zm-10.57-3.35c-2.69.83-5.41,1.68-8.17,2.57-2.9-1.11-5.78-2.22-8.62-3.34,3-.91,6-1.76,8.92-2.56,2.81,1,5.66,2.1,8.52,3.14Zm-9,2.86q-4.38,1.42-8.85,2.95-4.41-1.75-8.72-3.54c2.75-.88,5.48-1.74,8.16-2.55l.75-.22Q914.71,45.35,919.08,47Zm-10.21-3.44c-2.68.81-5.39,1.66-8.12,2.53q-4.14-1.71-8.21-3.44,4.61-1.36,9.05-2.56c2.65,1.09,5.34,2.16,8,3.23Zm-9,2.82c-2.94,1-5.9,1.94-8.9,3q-4.2-1.8-8.33-3.63,4.15-1.34,8.24-2.57l.75-.22Q895.71,44.69,899.87,46.41Zm-9.8-3.54q-4.05,1.22-8.16,2.54-3.95-1.77-7.82-3.55c3.08-.9,6.14-1.75,9.16-2.56Q887,41,890.88,42.63Zm-9,2.82c-3,1-5.94,2-9,3q-4-1.86-8-3.73,4.57-1.47,9.08-2.8Q877.07,43.93,881,45.69ZM863.4,44.61c-2.51-1.2-5-2.4-7.45-3.62,3.12-.91,6.2-1.77,9.26-2.57,2.4,1.14,4.82,2.26,7.26,3.39Q868,43.15,863.4,44.61Zm-.89.28C828.77,55.77,792,71.83,752,89.26c-47.5,20.72-99.92,43.59-156.37,61.55-3.17-.33-6.32-.67-9.47-1C638.63,132.11,687.49,110.34,732,90.51c44.87-20,85.82-38.26,123-49.25Q858.74,43.09,862.51,44.89ZM731,90.26c-44.58,19.87-93.56,41.7-146.12,59.38-3.16-.37-6.3-.76-9.44-1.16,48.8-17.32,94.4-38.09,136.12-57.09,49.92-22.73,95-43.27,135.82-53.9q1.29.61,2.58,1.26c1.44.73,2.92,1.45,4.38,2.18C817,52,776,70.23,731,90.26ZM583.94,150c-2.54.85-5.09,1.7-7.65,2.53-3.12-.33-6.22-.68-9.32-1,2.54-.87,5.06-1.75,7.58-2.64C577.67,149.2,580.8,149.59,583.94,150Zm-18.23,1.34c-3.1-.38-6.21-.77-9.3-1.18,2.52-.91,5-1.83,7.54-2.77,3.12.45,6.24.88,9.38,1.3Q569.53,150,565.71,151.29Zm-.94.32q-3.78,1.29-7.61,2.57c-3.07-.34-6.12-.69-9.17-1.07q3.78-1.32,7.54-2.68C558.6,150.84,561.68,151.24,564.77,151.61Zm-18,1.35c-3.07-.38-6.12-.78-9.17-1.2,2.51-.92,5-1.86,7.49-2.81,3.07.46,6.16.9,9.25,1.32C551.8,151.18,549.28,152.07,546.75,153Zm-.92.32c-2.48.87-5,1.73-7.48,2.57q-4.53-.51-9.05-1.08c2.47-.88,5-1.78,7.41-2.69Q541.26,152.71,545.83,153.28Zm-17.76,1.34c-3-.39-6.06-.79-9.08-1.22q3.72-1.4,7.39-2.82c3,.46,6.08.91,9.13,1.34Q531.8,153.29,528.07,154.62Zm-.9.32q-3.75,1.34-7.51,2.63-4.49-.51-8.95-1.1c2.48-.91,5-1.82,7.43-2.75C521.14,154.15,524.15,154.55,527.17,154.94Zm-8.44,2.95q-3.74,1.29-7.5,2.54-4.43-.47-8.83-1c2.49-.88,5-1.77,7.43-2.67C512.79,157.18,515.75,157.55,518.73,157.89Zm-8.48,2.86c-2.49.83-5,1.64-7.5,2.45q-4.35-.4-8.68-.86c2.48-.84,4.95-1.7,7.42-2.56C504.4,160.12,507.33,160.45,510.25,160.75Zm-8.53,2.77q-3.74,1.2-7.49,2.34c-2.85-.22-5.69-.47-8.53-.73q3.72-1.22,7.41-2.47C496,163,498.85,163.26,501.72,163.52Zm-8.59,2.67c-2.48.76-5,1.5-7.48,2.23-1.58-.11-3.16-.21-4.74-.33l-3.6-.28c2.46-.77,4.92-1.56,7.38-2.35C487.5,165.72,490.31,166,493.13,166.19Zm-12.48,2.3,3.84.27c-2.46.71-4.94,1.41-7.42,2.1-2.74-.14-5.46-.3-8.18-.48q3.67-1.09,7.34-2.24Zm-4.82,2.71-1.88.52c-1.84.5-3.67,1-5.5,1.46q-4-.15-8-.35c2.44-.69,4.87-1.4,7.29-2.11Q471.79,171,475.83,171.2Zm-7,2.41q3.82.13,7.67.23-3.66.87-7.29,1.7-3.8,0-7.56-.1Zm1.39-.37c1.51-.39,3-.8,4.53-1.21l2.72-.74q4,.19,7.92.35-3.67.95-7.35,1.83C475.4,173.41,472.79,173.34,470.19,173.24Zm16.91-1.53q3.88.14,7.75.22c-2.43.58-4.86,1.13-7.28,1.67-2.55,0-5.1,0-7.64-.09Zm1.41-.36,3.77-1,3.52-1c2.67.14,5.34.25,8,.35q-3.7.93-7.39,1.8Q492.45,171.49,488.51,171.35Zm17.1-1.53c2.61.09,5.22.16,7.85.22-2.45.56-4.91,1.12-7.35,1.65q-3.89,0-7.76-.09Q502,170.73,505.61,169.82Zm1.42-.36,3-.78c1.45-.37,2.88-.75,4.32-1.14q4.07.19,8.15.34-3.74.92-7.45,1.78Q511,169.59,507,169.46Zm17.31-1.52c2.66.08,5.33.15,8,.2-2.47.57-4.94,1.11-7.4,1.64-2.64,0-5.28,0-7.9-.08Q520.68,168.85,524.34,167.94Zm1.45-.37,2.32-.58,5.08-1.31c2.76.13,5.53.23,8.3.32-2.5.61-5,1.19-7.5,1.77Q529.88,167.7,525.79,167.57Zm17.53-1.51q4.06.12,8.15.2c-2.48.55-5,1.09-7.46,1.61q-4,0-8-.07Q539.64,167,543.32,166.06Zm1.49-.36c.56-.14,1.13-.27,1.69-.42,1.92-.47,3.83-.95,5.75-1.44,2.8.11,5.62.21,8.44.3q-3.75.88-7.53,1.74Q549,165.81,544.81,165.7Zm17.77-1.5c2.77.08,5.56.14,8.35.18L563.47,166q-4.12,0-8.24-.06Q558.92,165.07,562.58,164.2Zm1.54-.37c2.49-.6,5-1.21,7.43-1.83q4.32.18,8.65.3c-2.51.58-5,1.14-7.53,1.7C569.81,164,567,163.9,564.12,163.83Zm18-1.48q4.27.1,8.56.17c-2.49.53-5,1-7.45,1.55q-4.23,0-8.45,0Q578.42,163.21,582.1,162.35Zm1.58-.37.94-.22c2.17-.51,4.33-1,6.49-1.57,2.94.11,5.88.2,8.84.28-2.5.57-5,1.12-7.5,1.66Q588,162.08,583.68,162Zm18.22-1.46c2.9.06,5.81.12,8.72.15q-3.71.78-7.39,1.51c-2.9,0-5.78,0-8.66,0Q598.23,161.36,601.9,160.52Zm1.62-.37,1.05-.24c2.06-.48,4.13-1,6.19-1.47q4.49.17,9,.27-3.65.81-7.27,1.57C609.48,160.25,606.49,160.21,603.52,160.15Zm18.21-1.39c2.93.06,5.86.1,8.81.13q-3.54.74-7.07,1.42-4.43,0-8.83,0C617,159.8,619.36,159.28,621.73,158.76Zm1.68-.38,1.83-.41,5.68-1.32q4.55.15,9.1.25c-2.54.55-5.07,1.08-7.59,1.61C629.41,158.48,626.41,158.44,623.41,158.38Zm9.06-2.09q3.78-.9,7.54-1.83,4.65.21,9.34.37l-3.29.74-4.29,1C638.66,156.46,635.56,156.39,632.47,156.29Zm14.26-.38c1.51-.33,3-.68,4.5-1,3,.1,6.08.17,9.13.23q-3.75.8-7.47,1.55c-3,0-6.08,0-9.1-.11Zm6.06-1.38c81.17-18.77,154-47.63,218.51-73.16C884.79,76,898,70.8,910.77,65.87q4.74,1.88,9.56,3.72-11.13,4.3-22.82,8.89c-67.19,26.23-143.35,56-229.08,74.9-2.11.47-4.22.92-6.32,1.37C659,154.7,655.89,154.62,652.79,154.53ZM898.43,78.74q11.52-4.5,22.72-8.84,4.77,1.81,9.6,3.6l-5,1.94c-65,25.09-145.83,56.31-234.06,75.6q-9.3,2-18.46,3.84c-3,0-6.08,0-9.1-.1C752.07,135.89,831.55,104.86,898.43,78.74ZM922,69.59,931.19,66Q936,67.82,941,69.57l-9.4,3.62Q926.72,71.41,922,69.59Zm19.84.28q4.82,1.71,9.72,3.4L941.92,77q-4.81-1.71-9.55-3.46Zm.8-.31L951.88,66q4.9,1.7,9.91,3.35l-7,2.66-2.51,1Q947.42,71.28,942.59,69.56Zm13.14,2.71,6.92-2.65q4.88,1.62,9.82,3.2l-9.68,3.69c-3.24-1.08-6.44-2.16-9.63-3.25Zm7.72-3,9.36-3.58q5,1.58,10,3.13l-9.56,3.65Q968.32,70.93,963.45,69.32Zm20.28-.18q4.92,1.52,9.92,3-4.83,1.85-9.78,3.71-4.89-1.51-9.72-3Zm10.84,3.27q4.89,1.45,9.86,2.89l-10,3.75q-4.85-1.44-9.61-2.92Zm10.78,3.15c3.26.94,6.54,1.86,9.84,2.79l-10.31,3.79q-4.83-1.4-9.59-2.82Q1000.39,77.43,1005.35,75.56Zm.8-.3q5-1.89,9.92-3.75c3.34.92,6.69,1.83,10.08,2.74L1016,78Q1011,76.66,1006.15,75.26Zm10.72-4.06,9.75-3.72q5.12,1.35,10.33,2.68L1027,74Q1021.88,72.59,1016.87,71.2Zm10.55-4,9.6-3.69q5.24,1.3,10.55,2.59l-9.82,3.77Zm10.4-4,9.45-3.64L1058,62l-9.66,3.74Q1043.06,64.48,1037.82,63.18Zm10.25-4,.24-.09,9-3.49,11,2.37-9.49,3.7Zm10.09-3.89,9.14-3.51,11.13,2.22-9.32,3.66Zm10-3.83q4.57-1.75,8.94-3.4l11.29,2-6.93,2.73-2.18.85Zm9.77-3.72c3-1.13,5.94-2.24,8.8-3.3l11.43,1.84-9,3.51Zm9.65-3.61c3-1.1,5.86-2.16,8.66-3.17q5.73.77,11.56,1.58L1099,46Zm9.54-3.49c2.93-1,5.76-2.06,8.5-3q5.79.62,11.67,1.28-4.18,1.58-8.65,3.3Q1102.79,41.46,1097.09,40.69Zm8.16-3.47q-5.77-.61-11.44-1.18c2.78-.85,5.48-1.65,8.08-2.37q5.73.36,11.59.79Q1109.5,35.75,1105.25,37.22Zm-1,.33c-2.71.94-5.52,1.93-8.41,3L1084.51,39c2.84-.93,5.59-1.82,8.26-2.65Q1098.47,36.93,1104.3,37.55Zm-21,1.3c-3.76-.49-7.5-1-11.18-1.43,2.74-.82,5.4-1.57,8-2.27q5.61.51,11.33,1.08C1088.78,37.05,1086.07,37.93,1083.27,38.85Zm-.94.31q-4.07,1.37-8.36,2.86l-11.12-1.75q4.2-1.35,8.21-2.55Zm-20.66.93-10.91-1.7q4.1-1.17,8-2.19,5.45.66,11,1.36C1067.15,38.35,1064.44,39.2,1061.67,40.09Zm-.94.3c-2.72.87-5.49,1.79-8.33,2.76l-10.88-2c2.8-.88,5.55-1.7,8.23-2.48Zm-20.32.56L1029.81,39q4.13-1.15,8.09-2.14l10.65,1.63Q1044.56,39.66,1040.41,41Zm-.94.29q-4.08,1.29-8.34,2.69l-10.61-2.23q4.22-1.28,8.28-2.42Zm-20,.24L1009.3,39.3c2.83-.75,5.57-1.45,8.24-2.09l10.14,1.87C1025,39.83,1022.26,40.63,1019.47,41.48Zm-.94.28q-4.14,1.26-8.4,2.64Q1005,43.19,999.89,42q4.32-1.28,8.4-2.37Zm-19.68-.06q-4.92-1.2-9.72-2.39c2.88-.75,5.69-1.43,8.43-2.06l9.61,2.08C1004.44,40.08,1001.67,40.86,998.85,41.7Zm-.94.27q-4.17,1.24-8.48,2.6-5-1.32-9.82-2.65,4.36-1.26,8.52-2.35Zm-19.26-.32c-3.12-.85-6.22-1.71-9.27-2.58Q973.81,38,978,37q4.5,1.14,9.12,2.28C984.37,40.05,981.55,40.82,978.65,41.65Zm-.93.27q-4.19,1.21-8.58,2.58l-9.42-2.85c3-.83,5.85-1.61,8.67-2.32C971.47,40.19,974.57,41.06,977.72,41.92Zm-18.9-.55c-3-.91-5.87-1.81-8.75-2.73,3-.73,6-1.41,8.85-2q4.22,1.23,8.52,2.44Q963.22,40.14,958.82,41.37Zm-.94.26c-2.83.81-5.73,1.66-8.68,2.56q-4.51-1.48-9-3,4.51-1.23,8.82-2.3Q953.42,40.27,957.88,41.63Zm-18.47-.73c-2.78-.94-5.52-1.89-8.24-2.85,3.09-.73,6.12-1.4,9.07-2,2.62.85,5.27,1.71,7.94,2.55Q943.88,39.67,939.41,40.9Zm-.95.26q-4.31,1.2-8.79,2.55c-2.85-1-5.68-2.08-8.47-3.12,3-.82,6-1.59,9-2.3Q934.28,39.73,938.46,41.16Zm-18.07-.88q-3.9-1.45-7.72-2.94,4.7-1.08,9.2-2c.86.29,1.72.58,2.58.89q2.41.87,4.88,1.73Q925,39.06,920.39,40.28Zm-.94.26c-2.92.8-5.88,1.64-8.91,2.54q-4-1.59-8-3.21c3.11-.83,6.15-1.59,9.14-2.3C914.23,38.57,916.83,39.56,919.45,40.54Zm-17.69-1c-2.07-.84-4.13-1.7-6.17-2.55l-1.12-.47c3.08-.69,6.14-1.33,9.16-1.9q3,1,5.92,2.13l1.32.51Q906.4,38.32,901.76,39.55Zm-7.11-2.3q3.06,1.29,6.16,2.56-4.42,1.19-9,2.55c-2.56-1.1-5.08-2.2-7.59-3.31q4.68-1.23,9.26-2.29Zm-11.17,1.48-2.76-1.22c-1.41-.64-2.84-1.24-4.27-1.82q4.57-1,9.07-1.85,3.62,1.2,7.17,2.61C889.65,37.16,886.58,37.91,883.48,38.73Zm-3.73-1L882.53,39c-3,.8-6.07,1.66-9.15,2.56-2.42-1.12-4.83-2.24-7.21-3.37,3.12-.81,6.2-1.56,9.27-2.25Q877.6,36.79,879.75,37.75Zm-14.28.09c-2.28-1.08-4.6-2.09-6.92-3q4.51-1,9-1.79c2.4.79,4.79,1.65,7.15,2.58C871.63,36.29,868.57,37,865.47,37.84Zm-1,.25q-4.59,1.2-9.25,2.57L851,38.52c-.87-.44-1.74-.86-2.62-1.28Q853,36.06,857.52,35,861,36.46,864.52,38.09Zm-16.86-1.18q-3.43-1.6-6.91-3c3-.64,5.94-1.23,8.88-1.75q3.6,1.17,7.12,2.57C853.75,35.4,850.71,36.13,847.66,36.91Zm-1,.25c-41,10.67-86.13,31.24-136.1,54-41.79,19-87.48,39.84-136.36,57.17-3.16-.42-6.3-.84-9.42-1.29,45.3-16.91,87.77-36.67,126.81-54.83,54.82-25.51,103.89-48.35,148.11-58.07Q843.24,35.54,846.69,37.16ZM690.63,92c-39.09,18.19-81.63,38-127,54.89-3.14-.45-6.28-.93-9.4-1.43,41.95-16.42,81.39-35.17,117.82-52.49C707.6,76,741.19,60.06,772.63,48.27c22.24-8.34,41.63-13.92,59.22-17q3.57,1.15,7.1,2.54C794.52,43.62,745.44,66.46,690.63,92ZM562.77,147.17c-2.51.94-5,1.86-7.56,2.78q-4.66-.63-9.3-1.32,3.76-1.42,7.5-2.89Q558.08,146.49,562.77,147.17Zm-18,1.29q-4.65-.71-9.29-1.45l7.45-3q4.67.82,9.36,1.57C549.77,146.54,547.27,147.5,544.75,148.46Zm-.84.32q-3.75,1.42-7.52,2.82-4.62-.65-9.18-1.35c2.49-1,5-1.94,7.45-2.93C537.73,147.83,540.81,148.31,543.91,148.78Zm-17.85,1.3c-3.07-.48-6.13-1-9.19-1.49l7.42-3.05c3.07.55,6.15,1.09,9.24,1.6Q529.81,148.63,526.06,150.08Zm-.83.32c-2.46.95-4.94,1.9-7.42,2.83-3-.43-6.07-.89-9.09-1.36l7.37-3Q520.64,149.69,525.23,150.4ZM517,153.55c-2.48.93-5,1.86-7.47,2.77q-4.5-.6-9-1.25,3.71-1.42,7.39-2.88C510.91,152.66,513.93,153.12,517,153.55Zm-8.35,3.09c-2.48.9-5,1.79-7.46,2.66-3-.35-5.92-.72-8.86-1.11,2.47-.92,4.93-1.86,7.39-2.8C502.65,155.83,505.63,156.24,508.61,156.64Zm-8.37,3c-2.48.86-5,1.73-7.47,2.57-2.91-.31-5.82-.65-8.73-1,2.47-.89,4.93-1.78,7.38-2.69Q495.82,159.1,500.24,159.63Zm-8.43,2.9c-2.48.83-5,1.66-7.47,2.47q-4.29-.41-8.58-.88c2.47-.85,4.93-1.72,7.38-2.59C486,161.88,488.91,162.21,491.81,162.53Zm-8.48,2.8c-2.47.8-5,1.59-7.45,2.37-2.81-.23-5.63-.48-8.43-.75,2.46-.82,4.92-1.65,7.36-2.5C477.65,164.76,480.49,165.06,483.33,165.33Zm-8.51,2.7q-3.7,1.14-7.43,2.25L463.7,170l-4.59-.36c2.46-.78,4.9-1.58,7.34-2.38Q470.64,167.69,474.82,168Zm-8.55,2.58q-3.69,1.09-7.39,2.13c-2.71-.14-5.41-.31-8.11-.49,2.44-.74,4.88-1.49,7.3-2.26C460.81,170.22,463.54,170.42,466.27,170.61Zm-8.62,2.48-1.1.31q-3.14.87-6.26,1.7c-2.64-.1-5.28-.22-7.9-.36,2.42-.71,4.85-1.42,7.27-2.15C452.31,172.77,455,172.94,457.65,173.09ZM449,175.44q-3.64,1-7.26,1.88c-2.57-.07-5.15-.15-7.72-.24l6-1.68,1.16-.33Q445.1,175.28,449,175.44Zm-8.77,2.25-7,1.71c-2.51,0-5-.06-7.5-.11,2.33-.6,4.65-1.22,7-1.85Q436.48,177.59,440.25,177.69Zm-6.73,2.12q3.5,0,7,0c-2.19.46-4.38.92-6.56,1.35-2.34.07-4.67.11-7,.14C429.14,180.82,431.33,180.33,433.52,179.81Zm1.71-.4q3.42-.81,6.84-1.67c2.44,0,4.88.1,7.34.12-2.3.53-4.6,1-6.88,1.53Q438.87,179.42,435.23,179.41Zm16.2-1.53c2.32,0,4.64,0,7,0q-3.36.7-6.7,1.36c-2.3,0-4.6.1-6.9.13Q448.11,178.65,451.43,177.88Zm1.75-.41c2.33-.54,4.65-1.1,7-1.67q3.68.07,7.36.11c-2.37.53-4.72,1.05-7.08,1.55C458,177.48,455.6,177.48,453.18,177.47Zm16.43-1.54q3.51,0,7,0-3.43.7-6.86,1.36-3.5.09-7,.13Q466.21,176.71,469.61,175.93Zm1.68-.38q3.54-.81,7.08-1.67,3.7.09,7.44.12-3.6.8-7.19,1.53Q474.95,175.56,471.29,175.55ZM487.92,174H495c-2.33.46-4.66.92-7,1.36-2.34.05-4.68.1-7,.13C483.33,175,485.62,174.53,487.92,174Zm1.79-.4q3.53-.8,7.08-1.64,3.75.08,7.52.1-3.6.78-7.19,1.51C494.65,173.61,492.17,173.62,489.71,173.62Zm16.78-1.53c2.42,0,4.83,0,7.24,0-2.36.46-4.7.91-7.05,1.34q-3.56.09-7.09.13Q503,172.86,506.49,172.09Zm1.79-.39,7.15-1.62q3.81.07,7.63.1c-2.42.51-4.83,1-7.25,1.49Q512,171.71,508.28,171.7Zm17-1.51c2.45,0,4.89,0,7.34,0-2.35.45-4.71.9-7.08,1.33-2.41.06-4.81.1-7.22.13Q521.8,170.94,525.28,170.19Zm1.85-.4q3.6-.78,7.2-1.61c2.58,0,5.18.08,7.78.09-2.44.51-4.87,1-7.31,1.48C532.24,169.78,529.69,169.79,527.13,169.79Zm17.28-1.51c2.5,0,5,0,7.51,0q-3.58.68-7.15,1.31c-2.45.07-4.9.11-7.36.15C539.75,169.25,542.09,168.77,544.41,168.28Zm1.91-.41q3.61-.76,7.23-1.58c2.64,0,5.3.07,8,.08-2.46.5-4.9,1-7.34,1.46Q550.24,167.88,546.32,167.87Zm17.49-1.5c2.58,0,5.16,0,7.74,0l-7.16,1.29q-3.81.1-7.62.16Q560.28,167.1,563.81,166.37Zm2-.41c2.42-.5,4.82-1,7.24-1.55,2.72,0,5.46.06,8.19.06l-7.35,1.44Q569.81,166,565.77,166Zm17.77-1.49c2.63,0,5.28,0,7.92-.05q-3.56.66-7.11,1.27-3.92.1-7.82.17Q580,165.19,583.54,164.47Zm2-.41q3.6-.74,7.21-1.52,4.17,0,8.37.05c-2.44.48-4.87.94-7.3,1.4Q589.71,164.05,585.57,164.06Zm18-1.47q4,0,8.1-.07c-2.34.42-4.68.83-7,1.22q-4,.12-8,.19C599,163.5,601.27,163.05,603.59,162.59Zm2.08-.42q3.55-.72,7.14-1.48,4.25,0,8.51,0-3.6.69-7.19,1.34Q609.9,162.15,605.67,162.17Zm18.12-1.45c2.7,0,5.42,0,8.13-.08l-6.87,1.17c-2.7.09-5.4.15-8.09.21C619.23,161.6,621.51,161.16,623.79,160.72Zm2.14-.42,6.83-1.38q4.25,0,8.5,0c-2.27.42-4.53.84-6.79,1.24Q630.19,160.27,625.93,160.3Zm8.75-1.78q3.68-.77,7.39-1.58c2.94.06,5.88.1,8.84.13-2.5.5-5,1-7.46,1.45C640.52,158.54,637.6,158.53,634.68,158.52Zm18.39-1.44c2.83,0,5.68,0,8.53,0q-3.61.67-7.23,1.3-4.26.08-8.5.11Q649.47,157.81,653.07,157.08Zm2-.4c2.44-.5,4.87-1,7.29-1.52,2.95.06,5.89.09,8.85.12-2.43.47-4.86.94-7.28,1.39Q659.47,156.7,655.05,156.68Zm18.49-1.39q4.07,0,8.14,0-3.55.65-7.1,1.24l-8.07.12Zm2-.4q8.33-1.66,16.79-3.51c88.38-19.32,169.29-50.57,234.31-75.67l4.93-1.91c3.16,1.17,6.34,2.31,9.55,3.45-63.53,24.28-140.63,52.87-225.39,71.3-10.62,2.31-21.22,4.42-31.72,6.32C681.18,154.89,678.35,154.9,675.54,154.89Zm40.85-6c84.86-18.45,162-47,225.56-71.34q4.68,1.65,9.4,3.28c-60.47,22.77-131.84,48-210.68,65.05q-23.31,5.07-46.2,8.86c-2.6,0-5.2.08-7.8.11C696.51,153,706.44,151.05,716.39,148.89ZM942.76,77.24l9.6-3.67q4.77,1.64,9.62,3.24l-9.81,3.71Q947.43,78.9,942.76,77.24Zm20.09-.14q4.71,1.56,9.47,3.09l-10.07,3.74q-4.65-1.55-9.24-3.12C956.33,79.57,959.6,78.33,962.85,77.1Zm.8-.31,9.7-3.69c3.21,1,6.46,2,9.72,3.05l-9.94,3.73Q968.36,78.35,963.65,76.79ZM984,76.43q4.77,1.47,9.61,2.93l-10.19,3.76q-4.71-1.47-9.37-3Zm10.52,3.19q4.75,1.42,9.58,2.82c-3.45,1.26-6.95,2.52-10.47,3.79q-4.7-1.41-9.32-2.84Q989.45,81.5,994.48,79.62Zm10.5,3.09,9.59,2.73-7,2.47-3.81,1.33q-4.68-1.35-9.3-2.74Zm.82-.31q5.24-1.91,10.33-3.79Q1021,80,1026,81.32q-5.24,1.91-10.61,3.82Q1010.57,83.79,1005.8,82.4Zm11.14-4.1c3.43-1.27,6.83-2.54,10.17-3.8q5,1.35,10.15,2.67-5.15,1.92-10.43,3.84Q1021.85,79.68,1016.94,78.3Zm11-4.1,10-3.79L1048.33,73q-5.05,1.92-10.26,3.85Zm10.8-4.1q5-1.91,9.85-3.78c3.52.86,7.07,1.7,10.64,2.55q-5,1.91-10.07,3.85Q1043.88,71.41,1038.71,70.1ZM1049.36,66l9.67-3.74,10.86,2.46L1060,68.56Q1054.64,67.3,1049.36,66ZM1059.83,62q4.85-1.87,9.51-3.71,5.48,1.18,11.06,2.36l-9.71,3.82C1067,63.6,1063.42,62.78,1059.83,62Zm10.3-4,9.36-3.67q5.61,1.13,11.24,2.22-4.68,1.88-9.54,3.8Q1075.61,59.11,1070.13,57.93Zm10.18-4,2-.8,7.1-2.79,11.41,2.07-9.32,3.74Zm10-3.91,9-3.52,11.55,1.88-9.16,3.71Zm9.82-3.83q4.58-1.79,8.87-3.44c3.86.53,7.75,1.09,11.68,1.65l-2,.8-7.06,2.86Zm9.71-3.77,8.72-3.32,11.78,1.38-8.85,3.59Zm9.6-3.65q4.45-1.66,8.58-3.17,5.88.49,11.85,1l-8.7,3.5C1127.17,39.68,1123.26,39.23,1119.39,38.78Zm9.52-3.51c3-1.07,5.8-2.07,8.49-3q5.86.3,11.82.67c-2.71,1-5.55,2.18-8.54,3.37Q1134.76,35.77,1128.91,35.27Zm9.55-3.35c3-1,5.87-1.93,8.53-2.73,3.82,0,7.65.12,11.52.22-2.62,1-5.42,2-8.38,3.18Q1144.25,32.23,1138.46,31.92Zm9.29-3.5-1.2.35c-3.56,0-7.11-.06-10.63-.05,2.94-.66,5.89-1.3,8.87-1.9,3.35-.17,6.72-.3,10.12-.41C1152.51,27.05,1150.12,27.73,1147.75,28.42Zm-2.49.75c-2.6.79-5.37,1.69-8.29,2.68q-5.78-.29-11.46-.51c2.85-.8,5.56-1.51,8.1-2.1l.51-.11C1137.81,29.11,1141.52,29.13,1145.26,29.17Zm-21.4,2.11c-3.74-.14-7.44-.25-11.12-.34,2-.45,4-.85,5.91-1.18l2.72-.47c3.49-.07,7-.12,10.56-.15C1129.39,29.75,1126.7,30.47,1123.86,31.28Zm-1.27.36q-3.85,1.13-8.06,2.48-5.76-.42-11.42-.79c2.78-.75,5.44-1.43,8-2Q1116.8,31.45,1122.59,31.64Zm-21,1.6c-3.73-.24-7.42-.45-11.08-.65,2.62-.57,5.14-1.07,7.57-1.48,3.68,0,7.39.08,11.14.15Q1105.51,32.15,1101.56,33.24Zm-1.21.33c-2.54.72-5.18,1.5-7.9,2.34q-5.65-.55-11.2-1.07c2.67-.71,5.25-1.34,7.75-1.91C1092.75,33.12,1096.53,33.34,1100.35,33.57Zm-20.54,1.14c-3.63-.34-7.22-.65-10.78-1,2.5-.53,4.94-1,7.3-1.42,3.61.15,7.25.31,10.93.5Q1083.65,33.68,1079.81,34.71Zm-1.16.31c-2.55.69-5.16,1.44-7.84,2.23q-5.52-.69-10.9-1.34c2.64-.67,5.22-1.29,7.72-1.84C1071.27,34.37,1074.93,34.69,1078.65,35Zm-20.08.73q-5.25-.64-10.38-1.23c2.56-.53,5-1,7.48-1.4l10.38.81Q1062.39,34.75,1058.57,35.75Zm-1.14.29c-2.56.67-5.19,1.4-7.87,2.17L1039,36.59c2.67-.65,5.29-1.25,7.84-1.79Q1052.09,35.4,1057.43,36Zm-19.65.36-9.8-1.47c2.69-.53,5.29-1,7.82-1.38,3.17.34,6.38.71,9.63,1.08Q1041.68,35.44,1037.78,36.4Zm-1.12.28c-2.61.66-5.27,1.36-8,2.12l-10-1.85q4.14-1,8.05-1.77Zm-19.25,0L1008.22,35c2.83-.53,5.59-1,8.26-1.37l8.83,1.31C1022.72,35.5,1020.09,36.09,1017.41,36.72Zm-1.1.26c-2.66.65-5.38,1.34-8.14,2.08L998.65,37c2.85-.64,5.62-1.23,8.32-1.74Zm-18.76-.22L989,34.87q4.45-.78,8.68-1.33l1.38.24,6.74,1.25C1003.09,35.55,1000.35,36.12,997.55,36.76Zm-1.08.25c-2.72.63-5.5,1.31-8.36,2.05-3-.75-6-1.51-9-2.26q4.42-1,8.63-1.71Zm-18.4-.47c-2.66-.68-5.31-1.35-7.92-2,3-.49,5.94-.91,8.79-1.25,1.74.3,3.45.64,5.15,1l2.5.55Q982.44,35.6,978.07,36.54Zm-1.08.24c-2.78.62-5.64,1.29-8.56,2L960,36.4c3-.64,6-1.2,8.94-1.69l.24.06Zm-18-.66-4-1.16c-1.13-.33-2.28-.65-3.42-1q4.46-.67,8.71-1.14c2.54.44,5,1,7.49,1.57C965,34.93,962,35.49,959,36.12Zm-4.78-.85L958,36.35q-4.31.91-8.8,2-4-1.26-7.85-2.53,4.63-.91,9.06-1.62C951.68,34.54,953,34.89,954.25,35.27Zm-13.84.27-.22-.07c-2.3-.75-4.62-1.43-7-2,2.93-.42,5.8-.78,8.6-1.06,2.53.44,5,1,7.46,1.56Q944.94,34.64,940.41,35.54Zm-1.08.22c-2.94.6-5.94,1.26-9,2l-5-1.78L923,35.16q4.59-.88,9-1.54C934.43,34.25,936.9,35,939.33,35.76Zm-17.27-.9q-3.54-1.15-7.15-2.08c2.87-.4,5.71-.72,8.53-1,2.49.43,4.95.95,7.38,1.54Q926.52,34,922.06,34.86Zm-1.09.21q-4.47.88-9.1,2l-1.41-.54q-2.84-1.11-5.73-2.07c3-.55,6-1,8.9-1.46C916.11,33.59,918.55,34.29,921,35.07Zm-17.14-.94c-2.34-.76-4.7-1.45-7.1-2.07,2.84-.37,5.66-.67,8.44-.92,2.48.44,4.92,1,7.33,1.54C909.64,33.1,906.75,33.59,903.83,34.13Zm-1.1.21c-3,.56-6,1.2-9,1.88-2.34-.93-4.69-1.79-7.07-2.58q4.44-.8,8.8-1.4Q899.12,33.17,902.73,34.34Zm-17-1q-3.5-1.14-7.05-2.05,4.19-.53,8.33-.87c2.46.44,4.88.95,7.28,1.53C891.46,32.36,888.61,32.83,885.73,33.35Zm-1.12.2q-4.43.83-8.93,1.83c-2.33-.93-4.67-1.78-7-2.56q4.4-.76,8.71-1.35C879.8,32.09,882.21,32.78,884.61,33.55Zm-16.87-1c-2.31-.74-4.65-1.42-7-2q4.14-.51,8.24-.83c2.44.44,4.86.94,7.24,1.52Q872,31.78,867.74,32.52Zm-1.13.21q-4.38.8-8.84,1.77-3.46-1.36-7-2.54c2.89-.49,5.76-.93,8.61-1.29C861.81,31.28,864.23,32,866.61,32.73Zm-16.76-1.06q-3.45-1.11-7-2,4.14-.49,8.14-.79c2.44.44,4.84.94,7.23,1.52C855.46,30.75,852.67,31.18,849.85,31.67Zm-1.13.2q-4.34.77-8.75,1.73-3.45-1.37-7-2.52,4.34-.73,8.52-1.26C843.93,30.43,846.34,31.11,848.72,31.87Zm-16.65-1.09q-3.45-1.09-7-2c2.73-.31,5.42-.57,8.07-.76,2.42.44,4.81.95,7.19,1.52Q836.25,30.07,832.07,30.78Zm-1.14.2c-47.72,8.4-100.45,33.47-159.88,61.72-36.46,17.34-76,36.11-118,52.54-3.14-.5-6.27-1-9.39-1.57,38.71-15.86,75.21-33.59,109.09-50C688.52,76.27,722.27,59.87,754,47.79c26.68-10.18,49.34-16.33,69.77-18.86C826.16,29.55,828.55,30.23,830.93,31ZM651.79,93.39c-33.9,16.47-70.45,34.22-109.19,50.09-3.14-.55-6.27-1.13-9.38-1.72,35.56-15.22,69.2-31.91,100.55-47.48,35.88-17.8,69.78-34.62,101.69-47,31.09-12.06,56.82-18.56,80-20.15,2.41.44,4.79.95,7.16,1.52C771.73,35.15,715.58,62.41,651.79,93.39Zm-110,50.41c-2.48,1-5,2-7.46,3-3.11-.52-6.21-1-9.3-1.61q3.72-1.54,7.41-3.12Q537.13,143,541.81,143.8ZM524,145c-3.1-.56-6.2-1.15-9.28-1.75,2.44-1.07,4.88-2.14,7.3-3.22l6.19,1.21,3.21.62C528.93,142.94,526.45,144,524,145Zm-.78.32c-2.46,1-4.94,2-7.42,3.07-3.08-.53-6.15-1.07-9.2-1.64,2.47-1.05,4.92-2.11,7.37-3.18Q518.56,144.51,523.19,145.34ZM515,148.73l-7.38,3c-3.06-.49-6.09-1-9.12-1.51,2.46-1,4.9-2.05,7.34-3.08C508.85,147.66,511.91,148.2,515,148.73Zm-8.2,3.28c-2.46,1-4.94,1.94-7.42,2.89-3-.44-6-.91-9-1.39,2.46-1,4.9-2,7.34-3C500.71,151,503.73,151.53,506.77,152Zm-8.26,3.21c-2.46.95-4.94,1.88-7.42,2.8q-4.45-.6-8.9-1.26c2.46-1,4.92-1.94,7.36-2.93C492.53,154.31,495.51,154.78,498.51,155.22Zm-8.28,3.12c-2.47.92-4.94,1.82-7.43,2.71q-4.4-.54-8.77-1.14l7.34-2.83C484.31,157.52,487.27,157.94,490.23,158.34Zm-8.32,3q-3.72,1.33-7.44,2.62c-2.88-.32-5.76-.67-8.64-1,2.46-.9,4.9-1.81,7.34-2.73Q477.54,160.83,481.91,161.37Zm-8.38,2.94c-2.46.85-4.94,1.69-7.42,2.51q-4.26-.42-8.51-.9,3.69-1.29,7.35-2.63Q469.23,163.83,473.53,164.31Zm-8.4,2.83q-3.69,1.22-7.41,2.4c-2.79-.24-5.57-.49-8.36-.77q3.67-1.25,7.32-2.52C459.49,166.57,462.31,166.86,465.13,167.14Zm-8.45,2.73q-3.68,1.15-7.37,2.28l-2.6-.19c-1.88-.14-3.74-.29-5.61-.45q3.66-1.19,7.29-2.41C451.16,169.38,453.93,169.63,456.68,169.87Zm-10.24,2.49,1.75.12q-3.68,1.11-7.37,2.17c-2.68-.15-5.35-.32-8-.51,2.44-.75,4.86-1.52,7.28-2.3Q443.27,172.13,446.44,172.36ZM439.67,175l-.38.11q-3.48,1-6.91,1.92c-2.62-.11-5.24-.23-7.85-.38,2.4-.7,4.81-1.43,7.2-2.16C434.37,174.66,437,174.83,439.67,175ZM431,177.37q-3.57,1-7.12,1.87c-2.55-.06-5.11-.14-7.66-.24,2.21-.62,4.43-1.24,6.65-1.89l.42-.12Q427.18,177.2,431,177.37Zm-8.59,2.25q-3.48.88-6.95,1.71c-2.48,0-5-.06-7.45-.11,2.3-.61,4.6-1.22,6.9-1.86Q418.7,179.51,422.45,179.62Zm-8.64,2.12c-2.27.53-4.54,1.06-6.8,1.56q-3.61,0-7.22,0,3.39-.84,6.78-1.72Q410.2,181.69,413.81,181.74Zm-8.72,2q-3.29.72-6.55,1.4-3.46.09-6.92.13,3.25-.75,6.54-1.54C400.47,183.74,402.77,183.74,405.09,183.73Zm-6.33,1.81,6-.19-5.59,1c-2,.12-4,.24-6,.34C395,186.3,396.87,185.93,398.76,185.54Zm2.31-.49q3.09-.65,6.2-1.33c2.19,0,4.38-.06,6.58-.1-2.08.41-4.14.81-6.21,1.19C405.45,184.91,403.25,185,401.07,185.05Zm15.3-1.49,6-.19c-1.87.33-3.74.66-5.6,1-2,.12-4.05.24-6.08.33C412.58,184.31,414.47,183.94,416.37,183.56Zm2.34-.48c2.08-.43,4.15-.87,6.24-1.33q3.3,0,6.58-.09l-6.21,1.17Q422,183,418.71,183.08Zm15.39-1.48c1.93,0,3.85-.11,5.77-.18q-2.85.5-5.7,1-2.87.18-5.74.31C430.32,182.34,432.21,182,434.1,181.6Zm2.44-.49q3.1-.63,6.23-1.31l6.5-.09q-3.15.6-6.3,1.16Q439.76,181,436.54,181.11ZM452,179.64l5.83-.18-5.77,1q-2.86.17-5.73.3C448.25,180.37,450.13,180,452,179.64Zm2.45-.48c2.09-.42,4.19-.85,6.28-1.29,2.18,0,4.35-.06,6.54-.1q-3.19.6-6.39,1.16Q457.68,179.07,454.48,179.16Zm15.61-1.45c2-.05,3.93-.11,5.9-.18l-5.84.95-5.78.3Zm2.52-.49q3.21-.63,6.44-1.3,3.3,0,6.59-.1-3.28.62-6.55,1.18Q475.85,177.14,472.61,177.22Zm15.87-1.46q3-.07,6-.18l-6,1c-1.95.11-3.91.21-5.85.3C484.55,176.5,486.51,176.13,488.48,175.76Zm2.45-.46c2.18-.42,4.36-.86,6.55-1.3,2.23,0,4.45-.06,6.68-.1l-6.65,1.17C495.31,175.16,493.12,175.23,490.93,175.3Zm16.12-1.47,6.06-.18c-2,.33-4.08.65-6.14,1-2,.11-4,.22-5.94.31C503,174.57,505,174.2,507.05,173.83Zm2.56-.48q3.28-.61,6.6-1.28,3.42,0,6.82-.11-3.36.6-6.74,1.17l-.72,0Q512.59,173.27,509.61,173.35Zm16.44-1.46q3.06-.07,6.12-.18-3.1.49-6.21,1l-6,.3Q523,172.45,526.05,171.89Zm2.54-.47q3.31-.61,6.62-1.27,3.46,0,6.94-.11-3.39.6-6.78,1.15l-1,0C532.44,171.31,530.51,171.37,528.59,171.42ZM545.15,170l6.34-.19c-2.08.32-4.16.64-6.23.94-2.08.12-4.16.22-6.23.32C541.06,170.69,543.1,170.34,545.15,170Zm2.66-.48,6.7-1.26,7.16-.12c-2.28.39-4.56.77-6.82,1.13l-1.25,0C551.67,169.37,549.74,169.43,547.81,169.49Zm17-1.46,6.53-.21q-3.15.5-6.28.94c-2.14.12-4.28.22-6.42.32C560.65,168.74,562.7,168.39,564.76,168Zm2.73-.49,6.72-1.23c2.4,0,4.81-.08,7.22-.14h.1l-6.79,1.11-1.45.06C571.35,167.42,569.42,167.48,567.49,167.54Zm17.3-1.46c2.25-.06,4.49-.13,6.74-.22l-6.1.9c-2.24.13-4.47.24-6.7.35Q581.76,166.62,584.79,166.08Zm2.84-.49c2.2-.39,4.42-.79,6.63-1.21l6.13-.11,1.39,0-6.66,1.08-1.66.07C591.52,165.46,589.57,165.53,587.63,165.59Zm17.4-1.45c2.26-.07,4.51-.14,6.76-.23l-5.94.86-6.78.36Zm2.92-.5,6.52-1.16,5.07-.11,2.51-.06c-2.18.35-4.36.7-6.54,1l-1.26.06Q611.1,163.54,608,163.64Zm17.17-1.42c2.3-.07,4.61-.15,6.91-.24q-2.84.42-5.68.81-3.55.21-7.11.38Zm3-.51,6.41-1.12c1.44,0,2.9-.05,4.34-.09l3.37-.09-6.4,1C633.31,161.52,630.73,161.62,628.16,161.71Zm9-1.57,6.51-1.21,8.14-.09c-2.14.37-4.27.72-6.4,1.07C642.63,160,639.87,160.07,637.13,160.14Zm17.56-1.35,3.95-.08,3.06-.08-5.79.88-7.09.29Zm2.66-.46c2.28-.41,4.56-.82,6.85-1.25l7.68-.09c-2.33.39-4.64.77-7,1.13Zm17.53-1.39,3.63-.08,3.06-.08-6.5,1q-3.3.15-6.6.26C670.61,157.66,672.74,157.3,674.88,156.94Zm2.75-.48c2.23-.38,4.46-.78,6.7-1.18,2.46,0,4.91-.05,7.37-.09l-6.76,1.08C682.5,156.35,680.07,156.41,677.63,156.46Zm17.24-1.32,4.11-.09,2.35-.06-6.28.9q-3.18.15-6.35.25C690.75,155.82,692.81,155.48,694.87,155.14Zm2.77-.47c14.4-2.44,29-5.26,43.69-8.44,78.94-17.13,150.36-42.33,210.88-65.11q4.57,1.56,9.22,3.11C942.89,91.07,923.3,98.07,902.69,105c-48.5,16.24-93,28.69-136,38.05q-31.39,6.84-62,11.47C702.33,154.56,700,154.62,697.64,154.67Zm69.69-11.3c43.1-9.39,87.66-21.85,136.22-38.11,20.62-6.91,40.2-13.9,58.75-20.75q4.51,1.5,9.1,3c-51.81,18.66-111.95,38.07-177.18,52.4-27,5.93-53.53,10.69-79.58,14.26l-6.26.24Q737.46,149.86,767.33,143.37ZM963.12,84.21q5.1-1.87,10.07-3.74,4.65,1.48,9.38,2.94-5.13,1.88-10.34,3.76Q967.64,85.7,963.12,84.21Zm20.34-.52q4.6,1.43,9.29,2.83-5.25,1.89-10.63,3.77c-3-.93-6-1.88-9-2.84Q978.34,85.58,983.46,83.69Zm10.2,3.11q4.62,1.38,9.29,2.74-5.49,1.9-10.94,3.77c-3-.9-6-1.82-9-2.74Zm10.22,3q4.62,1.33,9.3,2.65-5.58,1.89-11.29,3.77-4.51-1.31-9-2.64Q998.37,91.72,1003.88,89.8Zm.84-.29,3.76-1.32,7-2.49c3.18.89,6.4,1.77,9.62,2.65q-5.48,1.91-11.1,3.81Q1009.35,90.84,1004.72,89.51Zm11.62-4.11q5.38-1.92,10.61-3.83,4.93,1.34,9.94,2.63-5.39,1.93-10.91,3.85Q1021.14,86.75,1016.34,85.4Zm11.43-4.13q5.31-1.93,10.45-3.85,5.07,1.32,10.22,2.61-5.28,1.93-10.72,3.88C1034.39,83,1031.07,82.16,1027.77,81.27ZM1039,77.12q5.22-1.94,10.28-3.85l10.48,2.56c-3.46,1.3-7,2.59-10.52,3.9ZM1050.11,73q5.13-1.93,10.09-3.85,5.33,1.26,10.73,2.5-5.09,2-10.33,3.92ZM1061,68.8l9.91-3.84q5.43,1.22,11,2.42-5,2-10.14,3.93Zm10.71-4.16q4.95-1.94,9.72-3.82l11.18,2.33q-4.89,2-9.94,3.92C1079,66.27,1075.33,65.45,1071.71,64.64Zm10.52-4.14c3.24-1.28,6.44-2.55,9.56-3.81l11.36,2.22-9.76,3.93Zm10.37-4.13,9.35-3.75,11.52,2.08L1104,58.59Zm10.14-4.07,9.19-3.73,11.67,1.92q-4.56,1.9-9.35,3.88Zm10-4,6.87-2.79c.74-.29,1.47-.59,2.19-.89q5.85.84,11.79,1.72l-9.21,3.87Zm9.87-4,8.91-3.61q5.9.7,11.88,1.46l-9,3.86Zm9.73-4,8.78-3.52q5.91.55,11.94,1.17l-8.88,3.82C1140.19,41.26,1136.25,40.78,1132.33,40.3Zm9.64-3.86q4.53-1.81,8.63-3.4,5.91.38,11.91.82l-1.24.54-7.43,3.21Q1147.86,37,1142,36.44Zm9.55-3.76c3-1.17,5.85-2.24,8.52-3.23,3.87.12,7.78.25,11.71.42l-8.42,3.63Q1157.39,33.07,1151.52,32.68Zm9.55-3.6,2.4-.87c2-.73,4.08-1.43,6.14-2.12q5.52-.06,11.12,0l-3.3,1.37-4.82,2.06Q1166.81,29.24,1161.07,29.08Zm9.8-3.41c2.84-.93,5.69-1.84,8.56-2.7q5.14-.27,10.34-.45-4.05,1.52-8.06,3.15Q1176.25,25.63,1170.87,25.67Zm10.24-3.2c2.76-.81,5.54-1.6,8.33-2.34,3.13-.31,6.26-.59,9.41-.85-2.63.9-5.25,1.82-7.86,2.79C1187.68,22.17,1184.39,22.31,1181.11,22.47Zm12.76-4q-2.5.63-5,1.3c-1.87.18-3.73.38-5.6.59Q1188.55,19.35,1193.87,18.46ZM1178,21.41q4.17-.53,8.37-1c-2.5.69-5,1.4-7.46,2.15-3,.16-5.9.33-8.82.54C1172.69,22.53,1175.33,22,1178,21.41Zm-5.81.76q-2.61.57-5.22,1.19-2.91.21-5.8.47Q1166.63,22.93,1172.17,22.17Zm-16.48,2.58q4.32-.42,8.68-.77-3.9.94-7.74,2c-3.07.09-6.12.21-9.16.34C1150.19,25.75,1152.94,25.23,1155.69,24.75Zm-5.86.6-5.46,1.08q-3.11.15-6.18.33Q1144,26,1149.83,25.35Zm-17.24,2.19q4.52-.32,9.08-.56-4,.84-7.93,1.74c-3.21,0-6.4.05-9.57.11C1127,28.38,1129.77,27.94,1132.59,27.54Zm-5.88.43-5.67.92-6.43.17Q1120.61,28.46,1126.71,28Zm-17.87,1.7c3.13-.12,6.29-.22,9.46-.31l-.21,0q-3.48.62-7.32,1.49c-3.48-.07-6.92-.13-10.34-.17,1.1-.16,2.2-.32,3.27-.45Zm-5.91.27c-1.67.21-3.39.46-5.16.76-2.52,0-5,0-7.49,0Q1096.54,30.25,1102.93,29.94Zm-17.87,1.17q5.19,0,10.47,0c-2.2.41-4.46.88-6.8,1.41q-5.25-.27-10.4-.49C1080.64,31.64,1082.89,31.35,1085.06,31.11Zm-11.31.18h0c2.43-.05,4.88-.1,7.34-.13-1.62.22-3.29.48-5,.76l-8.52-.3Q1070.76,31.37,1073.75,31.29Zm-9.43.64q4.9.14,9.91.33-3.32.6-6.8,1.37-5-.42-10-.79C1059.79,32.48,1062.08,32.17,1064.32,31.93Zm-5.52-.14,2.52.07q-2.83.36-5.77.84-4-.3-7.89-.56C1051.58,31.83,1055.29,31.72,1058.8,31.79Zm-13.83.58c2.92.19,5.88.4,8.86.62-2.32.4-4.68.85-7.1,1.36l-9.3-1.05Q1041.33,32.73,1045,32.37Zm-2.58-.16q-3.3.38-6.7.89l-6.43-.7-.51,0A118.29,118.29,0,0,1,1042.39,32.21Zm-13.5.58,5.2.57c-2.46.39-5,.85-7.52,1.36L1018,33.44c2.81-.38,5.54-.67,8.19-.89C1027.11,32.62,1028,32.7,1028.89,32.79Zm-5.31-.42c-2.3.22-4.66.51-7.08.85l-2.07-.31c-1.4-.2-2.83-.38-4.28-.54A125.27,125.27,0,0,1,1023.58,32.37Zm-9.63.92,1,.15q-3.88.59-8,1.36l-7.38-1.37-.44-.08q4.27-.52,8.31-.81C1009.68,32.73,1011.83,33,1014,33.29Zm-9.24-.95c-2.28.2-4.6.45-7,.76q-3-.51-6.17-.86A130.43,130.43,0,0,1,1004.71,32.34Zm-8.54,1q-4.08.56-8.37,1.31l-3-.67c-1.39-.31-2.81-.6-4.23-.86,2.79-.3,5.52-.53,8.17-.69C991.24,32.61,993.73,32.92,996.17,33.3Zm-10.32-1.13c-2.22.17-4.5.38-6.82.65-2-.33-4-.62-6-.85Q979.66,31.76,985.85,32.17Zm-8.4.85c-2.74.34-5.53.74-8.4,1.22q-3.49-.89-7.1-1.54c2.76-.28,5.45-.48,8.09-.61C972.55,32.32,975,32.63,977.45,33Zm-10.37-1.17q-3.27.23-6.66.58c-1.95-.33-3.93-.62-5.93-.85Q961,31.43,967.08,31.85Zm-8.31.76c-2.7.31-5.44.68-8.25,1.12q-3.46-.85-7-1.52c2.71-.24,5.36-.42,8-.53Q955.17,32,958.77,32.61Zm-10.41-1.19q-3.17.2-6.44.51c-1.89-.32-3.79-.6-5.73-.84C940.37,31,944.42,31.13,948.36,31.42Zm-15.29-.24q3.63.36,7.16.93c-2.66.28-5.38.63-8.14,1q-3.42-.85-6.92-1.51,3.33-.27,6.61-.42ZM930,30.9c-2.11.11-4.24.27-6.39.46q-2.82-.48-5.68-.84Q924.12,30.46,930,30.9Zm-15.29-.32q3.63.38,7.14,1c-2.65.26-5.33.59-8,1q-3.4-.84-6.88-1.49,3.52-.27,7-.4Zm-3.14-.29c-2.06.1-4.14.25-6.22.42q-2.76-.48-5.58-.84Q905.8,29.84,911.55,30.29Zm-15.08-.37q3.59.38,7.08.95c-2.62.24-5.27.55-7.93.91-2.25-.56-4.53-1.05-6.83-1.49,2.46-.17,4.9-.3,7.33-.36Zm-3.19-.3q-3,.14-6.1.38-2.71-.48-5.49-.84Q887.62,29.16,893.28,29.62Zm-14.93-.42h0q3.55.38,7,.95-3.89.34-7.83.86-3.35-.82-6.77-1.47c2.42-.16,4.82-.28,7.2-.33Zm-3.21-.31q-3,.12-6,.35-2.68-.48-5.41-.84C867.62,28.42,871.41,28.58,875.14,28.89Zm-7.83.49c-2.56.22-5.14.5-7.73.82-2.21-.55-4.45-1-6.72-1.47q3.79-.24,7.49-.3Q863.88,28.81,867.31,29.38Zm-10.2-1.27c-2,.07-3.92.18-5.9.32q-2.64-.46-5.34-.83C849.69,27.62,853.43,27.79,857.11,28.11Zm-7.74.46q-3.79.32-7.64.79-3.32-.83-6.69-1.47,3.75-.23,7.42-.28Q846,28,849.37,28.57Zm-10.16-1.28c-1.94.06-3.87.16-5.82.3-1.75-.32-3.52-.59-5.29-.84Q833.76,26.81,839.21,27.29Zm-7.68.44q-3.76.29-7.57.75-3.29-.81-6.65-1.46c2.48-.15,4.94-.23,7.37-.26C827,27,829.27,27.35,831.53,27.73Zm-10.15-1.31c-1.9.06-3.81.16-5.75.28-1.72-.31-3.46-.58-5.21-.83Q816,25.95,821.38,26.42Zm-7.6.42c-23.07,1.77-48.61,8.29-79.24,20.17-32,12.4-65.87,29.23-101.77,47.05-31.38,15.57-65,32.27-100.62,47.5l-3.36-.65-6.07-1.19c32.51-14.52,63.35-30.15,92.25-44.79,36-18.25,70-35.49,102.1-48.16,35.44-14,64-20.64,89.87-20.9Q810.41,26.28,813.78,26.84ZM596.29,95.57c36.11-18.69,70.21-36.35,102.5-49.32,36-14.48,65.06-21.24,91.44-21.3q6.84,0,13.41.58c-25.34.76-53.29,7.47-87.49,21C684,59.2,650,76.44,614,94.7c-28.9,14.65-59.77,30.3-92.28,44.81L512,137.64C541.59,123.89,569.77,109.3,596.29,95.57Zm-85,42.4,9.66,1.87c-2.42,1.08-4.86,2.16-7.3,3.22a.58.58,0,0,1-.14,0l-9.28-1.81C506.57,140.14,508.93,139.06,511.27,138Zm-7.79,3.58,9.39,1.84h0q-3.67,1.61-7.38,3.18-3.67-.69-7.32-1.41l-1.89-.37Q499.89,143.19,503.48,141.55Zm-7.93,3.57,2,.39q3.58.72,7.18,1.38c-2.45,1.05-4.9,2.08-7.37,3.1-3.05-.54-6.1-1.08-9.12-1.66C490.69,147.27,493.13,146.2,495.55,145.12Zm-8.05,3.54q4.53.85,9.1,1.65c-2.45,1-4.91,2-7.38,3-3-.49-6-1-9-1.54Zm-8.07,3.45c3,.53,6,1,9,1.54q-3.68,1.48-7.37,2.93-4.49-.68-8.94-1.41C474.56,154.16,477,153.14,479.43,152.11Zm-8.1,3.38q4.43.73,8.9,1.41-3.69,1.44-7.39,2.84-4.43-.62-8.81-1.29C466.47,157.47,468.9,156.49,471.33,155.49Zm-8.11,3.28c2.91.45,5.84.88,8.77,1.29q-3.69,1.4-7.39,2.75c-2.91-.37-5.8-.76-8.69-1.17Q459.57,160.23,463.22,158.77Zm-8.15,3.2c2.88.41,5.76.79,8.65,1.16q-3.68,1.35-7.38,2.65c-2.86-.33-5.72-.67-8.57-1C450.21,163.83,452.64,162.9,455.07,162Zm-8.17,3.09c2.83.37,5.67.71,8.52,1q-3.68,1.29-7.37,2.54-4.23-.44-8.44-.91C442.05,166.85,444.47,166,446.9,165.06Zm-8.2,3c2.79.33,5.59.63,8.37.92q-3.66,1.23-7.35,2.42c-2.76-.24-5.53-.5-8.29-.78Q435.09,169.35,438.7,168.05Zm-8.22,2.89q4.11.42,8.22.78Q435,172.9,431.33,174c-2.71-.2-5.42-.41-8.13-.65C425.63,172.58,428.06,171.77,430.48,170.94Zm-8.25,2.77q3.72.33,7.42.61l.62,0c-2.42.75-4.86,1.48-7.3,2.19-2.66-.15-5.31-.33-8-.52C417.43,175.27,419.83,174.5,422.23,173.71Zm-8.32,2.66c2.62.2,5.24.37,7.87.53-2.4.7-4.79,1.37-7.17,2-2.6-.11-5.2-.23-7.8-.38C409.19,177.84,411.55,177.11,413.91,176.37Zm-8.26,2.53q3.81.22,7.65.39c-2.35.65-4.7,1.27-7,1.88-2.53-.06-5.06-.15-7.6-.25C401,180.26,403.31,179.59,405.65,178.9Zm-8.29,2.39q3.72.17,7.43.27c-2.32.6-4.62,1.18-6.93,1.74q-3.71,0-7.4-.12Q393.9,182.27,397.36,181.29ZM389,183.56c2.39.07,4.78.11,7.18.14q-3.37.81-6.74,1.58-3.57,0-7.16,0C384.55,184.73,386.79,184.16,389,183.56Zm-8.33,2.13q3.44,0,6.89,0l-6.5,1.41q-3.43.09-6.87.13Q377.45,186.5,380.7,185.69Zm-8.35,2c2.16,0,4.32-.06,6.48-.1q-3.06.63-6.12,1.22c-2.16.1-4.34.18-6.5.25Q369.27,188.4,372.35,187.69Zm-25.05,5.36-3.18.31,3.14-.55,3.24-.22Zm8.45-1.26c-1.66.14-3.32.26-5,.38l4.87-.92,5-.25C359,191.27,357.38,191.54,355.75,191.79Zm2.54-1.07c1.9-.38,3.8-.78,5.7-1.18,2,0,4-.12,5.93-.19-1.92.36-3.84.7-5.75,1l-3.14.19Zm6.12.29-3.19.31,3.15-.54,3.24-.22Zm8.59-1.25-5.07.38c1.64-.29,3.27-.6,4.91-.92l5-.24Zm8.69-.77-3.13.29,3.11-.52,3.22-.21Zm9-1.3q-2.58.21-5.16.39l4.71-.86,5-.25C393.73,187.22,392.21,187.46,390.68,187.69Zm9.26-.82-3.53.34,2.73-.46,3.21-.2Zm8.26-1.17c-1.71.13-3.42.26-5.13.37,1.57-.27,3.14-.56,4.71-.85l5-.24C411.27,185.23,409.74,185.47,408.2,185.7Zm8.33-.73-2.46.23,2.69-.44,2.65-.17Zm8.85-1.22-4.63.33,4.72-.84c1.56-.06,3.14-.14,4.71-.22Zm9-.77-2.53.23,2.69-.43,2.6-.16C436.21,182.74,435.29,182.87,434.37,183Zm8.87-1.21-4.67.34,4.66-.82,4.68-.22C446.36,181.31,444.8,181.55,443.24,181.77Zm9.11-.76-2.61.23,2.61-.41,2.5-.14Zm8.89-1.2c-1.56.12-3.11.23-4.67.33l4.7-.81c1.58-.06,3.15-.14,4.73-.21C464.41,179.35,462.83,179.59,461.24,179.81Zm9.15-.75-2.58.23,2.69-.42,2.59-.15Zm9-1.19c-1.56.12-3.13.23-4.69.33l4.73-.8,4.77-.22Zm9.23-.74-2.51.21,2.66-.4,2.61-.15Zm9.2-1.19-4.77.32,4.87-.81c1.63-.06,3.25-.14,4.88-.21Zm9.25-.73-2.2.18,2.67-.4,2.5-.14Zm9.38-1.19-4.68.31,5-.81,4.89-.22Zm9.46-.74-2.48.2c1-.13,1.92-.27,2.87-.42l2.73-.15Zm9.67-1.21c-1.64.12-3.29.23-4.93.33l5.18-.83,5.14-.23C539.17,171.59,537.37,171.84,535.58,172.07Zm9.66-.74-2.61.22,3.16-.46,2.92-.17Zm10-1.22-5.14.34,5.14-.81,5.25-.23Zm10.39-.8-2.93.25,2.9-.42,3-.17Zm10-1.21-5.42.36,5.1-.79,5.45-.25Zm10.28-.79-3,.25,2.88-.41,3-.18Zm10.26-1.23-5.57.38,4.93-.76,5.49-.25Zm10.92-.85-3.9.32,2.6-.36,3.36-.2Zm9.7-1.16-6,.41,4.81-.73,5.79-.27Zm10.33-.81-2.35.2,2-.28,2.1-.12Zm9.67-1.14-4.92.34,4.41-.66,4.87-.23Zm9.8-.76-1.49.12,1.35-.18.33,0,1.61-.1Zm-.15-.5q-3.15.19-6.27.34c1.86-.29,3.72-.58,5.59-.89l6.24-.22Zm10-.64-4.4.3,4.21-.62,3-.13,1.41-.08Zm10-.77-1.1.09,1.3-.17,1.16-.07Zm-.4-.46-5.82.32,5-.78,5.73-.2Zm10-.63-4,.26,3.41-.48,3.87-.18Zm9.82-.74-1.06.09.38-.05.74,0Zm-1-.35h-.33c-1.64.09-3.27.18-4.91.25,1.89-.27,3.77-.56,5.67-.86,1.82,0,3.64-.12,5.46-.19Zm9.48-.58-3.56.23,4.45-.62,3.91-.17Zm9.18-.66,1.54-.2.77,0Zm1.29-.6-5.28.26,5.42-.8,5.4-.18Zm9.74-.58-3.75.24,4.11-.56,3.85-.17Zm80.3-14.64c65.33-14.36,125.53-33.78,177.38-52.46q4.49,1.43,9,2.84Q975,92.81,968.49,95c-50.9,17.4-98.06,30.89-144.19,41.22-33.92,7.59-67.3,13.42-99.81,17.44l-5.27.26Q756.42,148.66,794.89,140.21ZM726.2,154l-2.78.21,1.4-.17,1.93-.1Zm4.33-.68c30.82-4,62.4-9.6,94.44-16.77,46.2-10.35,93.43-23.85,144.39-41.28q6.48-2.22,12.81-4.44c3,.92,6,1.84,9,2.74a1365.86,1365.86,0,0,1-132.52,38.14,1071.16,1071.16,0,0,1-123.34,21.32ZM745,152.4l-.55,0a1085.47,1085.47,0,0,0,114.92-20.36A1370.66,1370.66,0,0,0,992.07,93.87c3,.89,5.95,1.76,8.95,2.64-30.47,10-63.58,19.8-98.76,28.48A1099.53,1099.53,0,0,1,745,152.4ZM938.8,120c-59.75,15.27-118.57,25.64-175.17,30.89A1118.94,1118.94,0,0,0,903,125.32c35.27-8.7,68.45-18.51,99-28.55,2.95.86,5.91,1.7,8.9,2.54C988.19,106.5,964.08,113.49,938.8,120ZM1011.72,99c-3-.84-6-1.69-8.91-2.54q5.72-1.89,11.3-3.78,4.6,1.29,9.26,2.56Q1017.61,97.15,1011.72,99Zm12.53-4c-3.12-.84-6.2-1.7-9.28-2.56q5.63-1.9,11.12-3.82,4.77,1.29,9.6,2.56Q1030,93.08,1024.25,95Zm12.29-4.11q-4.85-1.26-9.61-2.56c3.69-1.29,7.32-2.57,10.92-3.86q4.94,1.29,9.92,2.56Q1042.23,88.95,1036.54,90.87Zm12.08-4.16q-5-1.26-9.93-2.55,5.43-1.95,10.73-3.88c3.39.85,6.79,1.69,10.23,2.53Q1054.22,84.76,1048.62,86.71Zm11.86-4.2q-5.16-1.26-10.24-2.54c3.57-1.3,7.08-2.61,10.54-3.9q5.22,1.26,10.52,2.5Q1066,80.54,1060.48,82.51Zm11.64-4.24q-5.3-1.24-10.53-2.51,5.27-2,10.35-3.92l10.78,2.46Q1077.51,76.27,1072.12,78.27ZM1083.53,74q-5.43-1.23-10.78-2.45,5.16-2,10.14-3.93l11,2.39Q1088.82,72,1083.53,74Zm11.19-4.3q-5.57-1.2-11-2.39l10-3.93,11.24,2.31Q1099.9,67.66,1094.72,69.69Zm11-4.33-11.23-2.31c3.32-1.32,6.59-2.64,9.78-3.93l11.43,2.21Q1110.78,63.33,1105.67,65.36ZM1116.43,61,1105,58.8q4.89-2,9.55-3.91L1126.15,57Q1121.41,59,1116.43,61Zm10.5-4.35-11.6-2.09q4.82-2,9.38-3.9l11.74,1.95Q1131.83,54.6,1126.93,56.66Zm10.28-4.37-11.72-1.94,9.24-3.89q5.88.85,11.86,1.76Q1142.06,50.22,1137.21,52.29Zm10.14-4.4-11.84-1.77q4.68-2,9.07-3.87,5.93.75,12,1.55Q1152.11,45.8,1147.35,47.89Zm9.93-4.42c-4-.53-8-1-11.91-1.55l8.91-3.84q6,.62,12,1.29Q1162,41.35,1157.28,43.47ZM1167,39q-6-.66-12-1.28l7.16-3.09,1.58-.69q6,.45,12,1Q1171.65,36.88,1167,39Zm9.51-4.44c-4-.35-8-.67-11.91-1l8.51-3.68q5.88.27,11.84.61Q1181.08,32.43,1176.54,34.58ZM1192.29,27c-2,1-4.18,2.07-6.55,3.22q-5.91-.34-11.73-.61l4.38-1.87,3.88-1.61q5.67,0,11.42.18Zm2.2-1.08q-5.65-.14-11.24-.19c2.76-1.11,5.53-2.19,8.32-3.22q5.34-.16,10.74-.24Q1198.38,24,1194.49,25.87Zm8.76-4.07q-5.25.06-10.46.21,4.11-1.5,8.28-2.9c3.31-.24,6.64-.46,10-.64Q1207.14,20.08,1203.25,21.8Zm9-3.81c-3.2.17-6.38.36-9.54.59,2.68-.88,5.36-1.72,8.07-2.52,3-.37,6-.7,9.06-1C1217.27,16,1214.75,17,1212.23,18Zm9.16-3.51c-2.73.25-5.45.54-8.16.85,2.43-.7,4.88-1.38,7.33-2,2.57-.44,5.16-.86,7.75-1.25C1226,12.84,1223.69,13.64,1221.39,14.48Zm9.34-3.22c-1.7.24-3.39.49-5.08.76q4.83-1.18,9.72-2.22C1233.82,10.28,1232.27,10.76,1230.73,11.26Z"/></g></g></svg>